<svg width="652" height="580" viewBox="0 0 652 580" fill="none" xmlns="http://www.w3.org/2000/svg">
<g clip-path="url(#clip0)">
<path d="M66.6027 213.585L41.8282 241.357C62.4096 250.087 83.2433 237.967 91.7834 231.891C119.359 247.044 151.673 251.122 182.149 243.295C212.625 235.467 238.974 216.323 255.835 189.757C272.697 163.191 278.803 131.199 272.912 100.29C267.021 69.3809 249.576 41.8775 224.125 23.3755C198.674 4.87346 167.131 -3.23713 135.912 0.693916C104.693 4.62496 76.1452 20.3023 56.0758 44.5362C36.0065 68.77 25.9239 99.7398 27.8795 131.144C29.8351 162.548 43.6819 192.028 66.6027 213.585V213.585Z" fill="#E6E6E6"/>
<path d="M84.6136 103.166C110.172 102.9 135.727 102.443 161.285 102.096C169.805 101.98 178.325 101.879 186.846 101.792C194.188 101.715 194.206 90.299 186.846 90.3756C161.288 90.6418 135.732 91.0987 110.175 91.4459C101.655 91.5617 93.1342 91.6631 84.6136 91.7503C77.272 91.8267 77.2532 103.243 84.6136 103.166V103.166Z" fill="white"/>
<path d="M84.6134 129.804L187.911 128.734L217.289 128.429C224.63 128.353 224.649 116.937 217.289 117.013L113.992 118.083L84.6134 118.388C77.2717 118.464 77.253 129.88 84.6134 129.804V129.804Z" fill="white"/>
<path d="M84.6134 156.442L187.911 155.371L217.289 155.067C224.63 154.991 224.649 143.575 217.289 143.651L113.992 144.721L84.6134 145.025C77.2717 145.102 77.253 156.518 84.6134 156.442V156.442Z" fill="white"/>
<path d="M9 265.375C13.9706 265.375 18 261.346 18 256.375C18 251.405 13.9706 247.375 9 247.375C4.02944 247.375 0 251.405 0 256.375C0 261.346 4.02944 265.375 9 265.375Z" fill="#E6E6E6"/>
<path d="M456.289 310.674L451.258 342.076C450.943 344.044 450.199 345.918 449.081 347.567C447.962 349.216 446.495 350.599 444.783 351.619C443.071 352.639 441.156 353.271 439.174 353.47C437.191 353.67 435.189 353.431 433.308 352.772V352.772C431.438 352.116 429.733 351.06 428.313 349.677C426.893 348.294 425.792 346.618 425.087 344.766C424.382 342.913 424.089 340.929 424.231 338.952C424.372 336.975 424.943 335.053 425.904 333.319L442.274 303.795L505.555 177.397C508.046 173.194 511.858 169.934 516.396 168.124C520.934 166.314 525.944 166.058 530.644 167.394L537.348 169.3L527.377 198.539L456.289 310.674Z" fill="#A0616A"/>
<path d="M630.924 531.437L645.737 530.657L629.365 476.082L605.975 480.76L630.924 531.437Z" fill="#A0616A"/>
<path d="M482.791 541.573H499.164L507.74 488.556H482.791V541.573Z" fill="#A0616A"/>
<path d="M508.744 93.73C508.743 105.368 513.334 116.535 521.519 124.808C529.705 133.081 540.823 137.79 552.46 137.914C564.097 138.037 575.312 133.565 583.671 125.467C592.03 117.37 596.857 106.302 597.103 94.6673C597.116 94.3593 597.116 94.0379 597.116 93.73C597.119 87.9256 595.978 82.1776 593.759 76.8142C591.539 71.4509 588.285 66.5774 584.182 62.4721C580.078 58.3668 575.207 55.1102 569.844 52.8883C564.482 50.6664 558.734 49.5228 552.93 49.5228C547.126 49.5228 541.378 50.6664 536.016 52.8883C530.654 55.1102 525.782 58.3668 521.678 62.4721C517.575 66.5774 514.321 71.4509 512.101 76.8142C509.882 82.1776 508.741 87.9256 508.744 93.73Z" fill="#2F2E41"/>
<path d="M571.676 69.6285C584.247 69.6285 594.438 59.4373 594.438 46.8659C594.438 34.2945 584.247 24.1033 571.676 24.1033C559.104 24.1033 548.913 34.2945 548.913 46.8659C548.913 59.4373 559.104 69.6285 571.676 69.6285Z" fill="#2F2E41"/>
<path d="M569.301 64.2657C573.694 65.8711 578.475 66.0839 582.994 64.8751C587.512 63.6664 591.548 61.0948 594.553 57.5103C597.558 53.9258 599.385 49.5025 599.787 44.8425C600.188 40.1824 599.143 35.5119 596.796 31.4665C598.945 33.8275 600.573 36.6143 601.575 39.6459C602.577 42.6774 602.929 45.8858 602.61 49.0625C602.29 52.2392 601.306 55.3131 599.721 58.0845C598.135 60.8559 595.985 63.2627 593.408 65.1484C590.832 67.0342 587.888 68.3567 584.767 69.0301C581.646 69.7035 578.418 69.7126 575.294 69.0568C572.169 68.4011 569.217 67.0952 566.63 65.224C564.043 63.3527 561.879 60.9581 560.278 58.1957C562.748 60.9219 565.845 63.0052 569.301 64.2657V64.2657Z" fill="#2F2E41"/>
<path d="M549.445 142.234C563.545 142.234 574.975 130.804 574.975 116.704C574.975 102.604 563.545 91.174 549.445 91.174C535.345 91.174 523.915 102.604 523.915 116.704C523.915 130.804 535.345 142.234 549.445 142.234Z" fill="#A0616A"/>
<path d="M567.773 126.02C567.773 126.02 570.112 155.646 584.925 161.884L527.231 214.9L508.519 206.324L521.773 168.901C521.773 168.901 552.18 162.663 539.705 135.376L567.773 126.02Z" fill="#A0616A"/>
<path d="M469.537 493.234L511.638 495.573L531.129 348.999L581.806 494.794L632.483 478.421L582.586 311.576C569.739 265.423 580.547 214.702 598.179 162.663L578.688 157.206L534.248 163.443C529.653 163.45 525.143 164.684 521.185 167.016C517.226 169.349 513.962 172.696 511.729 176.712C500.782 196.312 492.867 215.327 499.32 231.572C473.447 299.288 467.868 391.828 469.537 493.234Z" fill="#646536" fill-opacity="0.9"/>
<path d="M594.281 324.051L583.454 353.954C582.775 355.827 582.516 357.827 582.695 359.812C582.874 361.796 583.486 363.717 584.489 365.439C585.491 367.162 586.859 368.643 588.497 369.778C590.134 370.914 592.001 371.676 593.965 372.012V372.012C595.919 372.345 597.922 372.248 599.835 371.727C601.747 371.207 603.523 370.275 605.038 368.996C606.553 367.718 607.77 366.125 608.605 364.327C609.441 362.53 609.873 360.571 609.873 358.589V324.83L615.82 183.602C615.68 178.718 613.927 174.018 610.836 170.235C607.744 166.452 603.487 163.798 598.729 162.688L591.942 161.104L586.484 191.51L594.281 324.051Z" fill="#A0616A"/>
<path d="M636.225 574.772C639.362 574.864 642.437 573.881 644.94 571.986C647.442 570.09 649.222 567.397 649.983 564.351L650.501 562.279C652.982 552.358 652.323 541.912 648.617 532.381L643.398 518.963L627.805 525.98L623.007 559.035C622.728 560.956 622.859 562.914 623.39 564.78C623.921 566.647 624.841 568.38 626.089 569.866C627.337 571.352 628.885 572.557 630.632 573.403C632.379 574.248 634.285 574.715 636.225 574.772V574.772Z" fill="#2F2E41"/>
<path d="M457.718 577.937C459.425 578.976 461.368 579.562 463.365 579.638C465.361 579.715 467.345 579.281 469.126 578.377L498.815 561.654C500.74 560.57 502.282 558.915 503.226 556.917C504.17 554.919 504.471 552.678 504.087 550.502L500.723 531.437H482.011L455.27 559.885C454.075 561.157 453.178 562.679 452.646 564.342C452.114 566.004 451.959 567.764 452.194 569.494C452.428 571.224 453.046 572.879 454.002 574.34C454.957 575.801 456.227 577.029 457.718 577.937V577.937Z" fill="#2F2E41"/>
<path d="M509.145 87.7716C516.068 104.549 533.957 116.493 554.938 116.493C572.907 116.493 588.613 107.736 597.103 94.6673C597.116 94.3593 597.116 94.038 597.116 93.73C597.116 82.5279 592.861 71.7441 585.212 63.5599C577.563 55.3756 567.091 50.402 555.915 49.6449C544.738 48.8879 533.692 52.4041 525.009 59.4822C516.326 66.5602 510.656 76.6718 509.145 87.7716V87.7716Z" fill="#2F2E41"/>
<path d="M431.336 218.272C431.326 191.206 422.424 164.893 406 143.381C389.575 121.868 366.538 106.346 340.432 99.2034C314.326 92.0605 286.596 93.692 261.507 103.847C236.418 114.002 215.36 132.117 201.572 155.408C187.784 178.698 182.028 205.873 185.192 232.754C188.355 259.634 200.261 284.731 219.079 304.184C237.898 323.638 262.586 336.37 289.346 340.424C316.107 344.477 343.458 339.627 367.193 326.619C375.734 332.695 396.567 344.815 417.149 336.085L392.374 308.313C404.69 296.774 414.503 282.827 421.205 267.339C427.908 251.85 431.356 235.149 431.336 218.272Z" fill="#EEECBD" fill-opacity="0.75"/>
<path d="M244.637 197.894C270.195 197.628 295.75 197.171 321.308 196.824C329.828 196.708 338.348 196.607 346.869 196.52C354.211 196.443 354.229 185.027 346.869 185.104C321.31 185.37 295.755 185.827 270.198 186.174C261.678 186.29 253.157 186.391 244.637 186.478C237.295 186.555 237.276 197.971 244.637 197.894V197.894Z" fill="white"/>
<path d="M244.637 224.532L347.934 223.462L377.312 223.157C384.654 223.081 384.672 211.665 377.312 211.741L274.015 212.812L244.637 213.116C237.295 213.192 237.276 224.608 244.637 224.532V224.532Z" fill="white"/>
<path d="M244.637 251.17L347.934 250.099L377.312 249.795C384.654 249.719 384.672 238.303 377.312 238.379L274.015 239.449L244.637 239.754C237.295 239.83 237.276 251.246 244.637 251.17Z" fill="white"/>
</g>
<defs>
<clipPath id="clip0">
<rect width="651.977" height="579.647" fill="white"/>
</clipPath>
</defs>
</svg>
