<svg width="1101" height="228" viewBox="0 0 1101 228" fill="none" xmlns="http://www.w3.org/2000/svg">
<path d="M26.9277 50.041H17.0137L14.9395 56H10.3164L19.9844 30.4062H23.9746L33.6602 56H29.0195L26.9277 50.041ZM18.2617 46.4551H25.6797L21.9707 35.8379L18.2617 46.4551ZM35.3652 46.3496C35.3652 43.4199 36.0449 41.0703 37.4043 39.3008C38.7637 37.5195 40.5859 36.6289 42.8711 36.6289C44.8867 36.6289 46.5156 37.332 47.7578 38.7383V29H52.0293V56H48.1621L47.9512 54.0312C46.6738 55.5781 44.9688 56.3516 42.8359 56.3516C40.6094 56.3516 38.8047 55.4551 37.4219 53.6621C36.0508 51.8691 35.3652 49.4316 35.3652 46.3496ZM39.6367 46.7188C39.6367 48.6523 40.0059 50.1641 40.7441 51.2539C41.4941 52.332 42.5547 52.8711 43.9258 52.8711C45.6719 52.8711 46.9492 52.0918 47.7578 50.5332V42.4121C46.9727 40.8887 45.707 40.127 43.9609 40.127C42.5781 40.127 41.5117 40.6777 40.7617 41.7793C40.0117 42.8691 39.6367 44.5156 39.6367 46.7188ZM60.502 36.9805L60.625 38.9668C61.9609 37.4082 63.7891 36.6289 66.1094 36.6289C68.6523 36.6289 70.3926 37.6016 71.3301 39.5469C72.7129 37.6016 74.6582 36.6289 77.166 36.6289C79.2637 36.6289 80.8223 37.209 81.8418 38.3691C82.873 39.5293 83.4004 41.2402 83.4238 43.502V56H79.1523V43.625C79.1523 42.418 78.8887 41.5332 78.3613 40.9707C77.834 40.4082 76.9609 40.127 75.7422 40.127C74.7695 40.127 73.9727 40.3906 73.3516 40.918C72.7422 41.4336 72.3145 42.1133 72.0684 42.957L72.0859 56H67.8145V43.4844C67.7559 41.2461 66.6133 40.127 64.3867 40.127C62.6758 40.127 61.4629 40.8242 60.748 42.2188V56H56.4766V36.9805H60.502ZM92.3535 56H88.082V36.9805H92.3535V56ZM87.8184 32.041C87.8184 31.3848 88.0234 30.8398 88.4336 30.4062C88.8555 29.9727 89.4531 29.7559 90.2266 29.7559C91 29.7559 91.5977 29.9727 92.0195 30.4062C92.4414 30.8398 92.6523 31.3848 92.6523 32.041C92.6523 32.6855 92.4414 33.2246 92.0195 33.6582C91.5977 34.0801 91 34.291 90.2266 34.291C89.4531 34.291 88.8555 34.0801 88.4336 33.6582C88.0234 33.2246 87.8184 32.6855 87.8184 32.041ZM100.984 36.9805L101.107 39.1777C102.514 37.4785 104.359 36.6289 106.645 36.6289C110.605 36.6289 112.621 38.8965 112.691 43.4316V56H108.42V43.6777C108.42 42.4707 108.156 41.5801 107.629 41.0059C107.113 40.4199 106.264 40.127 105.08 40.127C103.357 40.127 102.074 40.9062 101.23 42.4648V56H96.959V36.9805H100.984ZM142.68 46.6836C142.68 49.625 142.012 51.9746 140.676 53.7324C139.34 55.4785 137.547 56.3516 135.297 56.3516C133.211 56.3516 131.541 55.666 130.287 54.2949V63.3125H126.016V36.9805H129.953L130.129 38.9141C131.383 37.3906 133.088 36.6289 135.244 36.6289C137.564 36.6289 139.381 37.4961 140.693 39.2305C142.018 40.9531 142.68 43.3496 142.68 46.4199V46.6836ZM138.426 46.3145C138.426 44.416 138.045 42.9102 137.283 41.7969C136.533 40.6836 135.455 40.127 134.049 40.127C132.303 40.127 131.049 40.8477 130.287 42.2891V50.7266C131.061 52.2031 132.326 52.9414 134.084 52.9414C135.443 52.9414 136.504 52.3965 137.266 51.3066C138.039 50.2051 138.426 48.541 138.426 46.3145ZM145.51 46.3145C145.51 44.4512 145.879 42.7754 146.617 41.2871C147.355 39.7871 148.393 38.6387 149.729 37.8418C151.064 37.0332 152.6 36.6289 154.334 36.6289C156.9 36.6289 158.98 37.4551 160.574 39.1074C162.18 40.7598 163.047 42.9512 163.176 45.6816L163.193 46.6836C163.193 48.5586 162.83 50.2344 162.104 51.7109C161.389 53.1875 160.357 54.3301 159.01 55.1387C157.674 55.9473 156.127 56.3516 154.369 56.3516C151.686 56.3516 149.535 55.4609 147.918 53.6797C146.312 51.8867 145.51 49.502 145.51 46.5254V46.3145ZM149.781 46.6836C149.781 48.6406 150.186 50.1758 150.994 51.2891C151.803 52.3906 152.928 52.9414 154.369 52.9414C155.811 52.9414 156.93 52.3789 157.727 51.2539C158.535 50.1289 158.939 48.4824 158.939 46.3145C158.939 44.3926 158.523 42.8691 157.691 41.7441C156.871 40.6191 155.752 40.0566 154.334 40.0566C152.939 40.0566 151.832 40.6133 151.012 41.7266C150.191 42.8281 149.781 44.4805 149.781 46.6836ZM176.764 40.8828C176.201 40.7891 175.621 40.7422 175.023 40.7422C173.066 40.7422 171.748 41.4922 171.068 42.9922V56H166.797V36.9805H170.875L170.98 39.1074C172.012 37.4551 173.441 36.6289 175.27 36.6289C175.879 36.6289 176.383 36.7109 176.781 36.875L176.764 40.8828ZM185.693 32.3574V36.9805H189.051V40.1445H185.693V50.7617C185.693 51.4883 185.834 52.0156 186.115 52.3438C186.408 52.6602 186.924 52.8184 187.662 52.8184C188.154 52.8184 188.652 52.7598 189.156 52.6426V55.9473C188.184 56.2168 187.246 56.3516 186.344 56.3516C183.062 56.3516 181.422 54.541 181.422 50.9199V40.1445H178.293V36.9805H181.422V32.3574H185.693ZM203.693 56C203.506 55.6367 203.342 55.0449 203.201 54.2246C201.842 55.6426 200.178 56.3516 198.209 56.3516C196.299 56.3516 194.74 55.8066 193.533 54.7168C192.326 53.627 191.723 52.2793 191.723 50.6738C191.723 48.6465 192.473 47.0938 193.973 46.0156C195.484 44.9258 197.641 44.3809 200.441 44.3809H203.061V43.1328C203.061 42.1484 202.785 41.3633 202.234 40.7773C201.684 40.1797 200.846 39.8809 199.721 39.8809C198.748 39.8809 197.951 40.127 197.33 40.6191C196.709 41.0996 196.398 41.7148 196.398 42.4648H192.127C192.127 41.4219 192.473 40.4492 193.164 39.5469C193.855 38.6328 194.793 37.918 195.977 37.4023C197.172 36.8867 198.502 36.6289 199.967 36.6289C202.193 36.6289 203.969 37.1914 205.293 38.3164C206.617 39.4297 207.297 41 207.332 43.0273V51.6055C207.332 53.3164 207.572 54.6816 208.053 55.7012V56H203.693ZM199 52.9238C199.844 52.9238 200.635 52.7188 201.373 52.3086C202.123 51.8984 202.686 51.3477 203.061 50.6562V47.0703H200.758C199.176 47.0703 197.986 47.3457 197.189 47.8965C196.393 48.4473 195.994 49.2266 195.994 50.2344C195.994 51.0547 196.264 51.7109 196.803 52.2031C197.354 52.6836 198.086 52.9238 199 52.9238ZM216.35 56H212.078V29H216.35V56Z" fill="#333333"/>
<path d="M15.3965 152.576V163H13.2344V137.406H21.9531C24.6133 137.406 26.7109 138.086 28.2461 139.445C29.793 140.805 30.5664 142.674 30.5664 145.053C30.5664 147.455 29.8223 149.312 28.334 150.625C26.8574 151.926 24.7129 152.576 21.9004 152.576H15.3965ZM15.3965 150.748H21.9531C24.0508 150.748 25.6504 150.25 26.752 149.254C27.8535 148.258 28.4043 146.869 28.4043 145.088C28.4043 143.318 27.8535 141.912 26.752 140.869C25.6621 139.814 24.1094 139.275 22.0938 139.252H15.3965V150.748ZM42.0449 163.352C40.4277 163.352 38.9629 162.953 37.6504 162.156C36.3496 161.359 35.3359 160.252 34.6094 158.834C33.8828 157.404 33.5195 155.805 33.5195 154.035V153.279C33.5195 151.451 33.8711 149.805 34.5742 148.34C35.2891 146.875 36.2793 145.727 37.5449 144.895C38.8105 144.051 40.1816 143.629 41.6582 143.629C43.9668 143.629 45.7949 144.42 47.1426 146.002C48.502 147.572 49.1816 149.723 49.1816 152.453V153.631H35.6113V154.035C35.6113 156.191 36.2266 157.99 37.457 159.432C38.6992 160.861 40.2578 161.576 42.1328 161.576C43.2578 161.576 44.248 161.371 45.1035 160.961C45.9707 160.551 46.7559 159.895 47.459 158.992L48.7773 159.994C47.2305 162.232 44.9863 163.352 42.0449 163.352ZM41.6582 145.422C40.0762 145.422 38.7402 146.002 37.6504 147.162C36.5723 148.322 35.916 149.881 35.6816 151.838H47.0898V151.609C47.0312 149.781 46.5098 148.293 45.5254 147.145C44.541 145.996 43.252 145.422 41.6582 145.422ZM55.2812 143.98L55.3516 147.232C56.0664 146.061 56.957 145.17 58.0234 144.561C59.0898 143.939 60.2676 143.629 61.5566 143.629C63.5957 143.629 65.1133 144.203 66.1094 145.352C67.1055 146.5 67.6094 148.223 67.6211 150.52V163H65.5293V150.502C65.5176 148.803 65.1543 147.537 64.4395 146.705C63.7363 145.873 62.6055 145.457 61.0469 145.457C59.7461 145.457 58.5918 145.867 57.584 146.688C56.5879 147.496 55.8496 148.592 55.3691 149.975V163H53.2773V143.98H55.2812ZM72.2266 153.314C72.2266 150.361 72.8828 148.012 74.1953 146.266C75.5195 144.508 77.3125 143.629 79.5742 143.629C82.1406 143.629 84.0977 144.643 85.4453 146.67V136H87.5371V163H85.5684L85.4805 160.469C84.1328 162.391 82.1523 163.352 79.5391 163.352C77.3477 163.352 75.5781 162.473 74.2305 160.715C72.8945 158.945 72.2266 156.561 72.2266 153.561V153.314ZM74.3535 153.684C74.3535 156.109 74.8398 158.025 75.8125 159.432C76.7852 160.826 78.1562 161.523 79.9258 161.523C82.5156 161.523 84.3555 160.381 85.4453 158.096V149.166C84.3555 146.693 82.5273 145.457 79.9609 145.457C78.1914 145.457 76.8145 146.154 75.8301 147.549C74.8457 148.932 74.3535 150.977 74.3535 153.684ZM95.4297 163H93.3203V143.98H95.4297V163ZM92.9512 138.479C92.9512 138.08 93.0801 137.746 93.3379 137.477C93.5957 137.195 93.9473 137.055 94.3926 137.055C94.8379 137.055 95.1895 137.195 95.4473 137.477C95.7168 137.746 95.8516 138.08 95.8516 138.479C95.8516 138.877 95.7168 139.211 95.4473 139.48C95.1895 139.75 94.8379 139.885 94.3926 139.885C93.9473 139.885 93.5957 139.75 93.3379 139.48C93.0801 139.211 92.9512 138.877 92.9512 138.479ZM103.164 143.98L103.234 147.232C103.949 146.061 104.84 145.17 105.906 144.561C106.973 143.939 108.15 143.629 109.439 143.629C111.479 143.629 112.996 144.203 113.992 145.352C114.988 146.5 115.492 148.223 115.504 150.52V163H113.412V150.502C113.4 148.803 113.037 147.537 112.322 146.705C111.619 145.873 110.488 145.457 108.93 145.457C107.629 145.457 106.475 145.867 105.467 146.688C104.471 147.496 103.732 148.592 103.252 149.975V163H101.16V143.98H103.164ZM120.109 153.314C120.109 150.338 120.766 147.982 122.078 146.248C123.402 144.502 125.195 143.629 127.457 143.629C130.047 143.629 132.016 144.66 133.363 146.723L133.469 143.98H135.438V162.613C135.438 165.062 134.752 167.002 133.381 168.432C132.01 169.861 130.152 170.576 127.809 170.576C126.484 170.576 125.219 170.277 124.012 169.68C122.816 169.094 121.873 168.309 121.182 167.324L122.359 166.059C123.848 167.887 125.617 168.801 127.668 168.801C129.426 168.801 130.797 168.279 131.781 167.236C132.766 166.205 133.275 164.77 133.311 162.93V160.539C131.963 162.414 130 163.352 127.422 163.352C125.219 163.352 123.449 162.473 122.113 160.715C120.777 158.957 120.109 156.584 120.109 153.596V153.314ZM122.236 153.684C122.236 156.109 122.723 158.025 123.695 159.432C124.668 160.826 126.039 161.523 127.809 161.523C130.398 161.523 132.232 160.363 133.311 158.043V149.201C132.818 147.982 132.109 147.057 131.184 146.424C130.258 145.779 129.145 145.457 127.844 145.457C126.074 145.457 124.697 146.154 123.713 147.549C122.729 148.932 122.236 150.977 122.236 153.684ZM164.969 153.684C164.969 156.648 164.312 159.004 163 160.75C161.688 162.484 159.93 163.352 157.727 163.352C155.125 163.352 153.133 162.438 151.75 160.609V170.312H149.658V143.98H151.609L151.715 146.67C153.086 144.643 155.072 143.629 157.674 143.629C159.947 143.629 161.729 144.49 163.018 146.213C164.318 147.936 164.969 150.326 164.969 153.385V153.684ZM162.859 153.314C162.859 150.889 162.361 148.973 161.365 147.566C160.369 146.16 158.98 145.457 157.199 145.457C155.91 145.457 154.803 145.768 153.877 146.389C152.951 147.01 152.242 147.912 151.75 149.096V158.219C152.254 159.309 152.975 160.141 153.912 160.715C154.85 161.289 155.957 161.576 157.234 161.576C159.004 161.576 160.381 160.873 161.365 159.467C162.361 158.049 162.859 155.998 162.859 153.314ZM177.01 163.352C175.393 163.352 173.928 162.953 172.615 162.156C171.314 161.359 170.301 160.252 169.574 158.834C168.848 157.404 168.484 155.805 168.484 154.035V153.279C168.484 151.451 168.836 149.805 169.539 148.34C170.254 146.875 171.244 145.727 172.51 144.895C173.775 144.051 175.146 143.629 176.623 143.629C178.932 143.629 180.76 144.42 182.107 146.002C183.467 147.572 184.146 149.723 184.146 152.453V153.631H170.576V154.035C170.576 156.191 171.191 157.99 172.422 159.432C173.664 160.861 175.223 161.576 177.098 161.576C178.223 161.576 179.213 161.371 180.068 160.961C180.936 160.551 181.721 159.895 182.424 158.992L183.742 159.994C182.195 162.232 179.951 163.352 177.01 163.352ZM176.623 145.422C175.041 145.422 173.705 146.002 172.615 147.162C171.537 148.322 170.881 149.881 170.646 151.838H182.055V151.609C181.996 149.781 181.475 148.293 180.49 147.145C179.506 145.996 178.217 145.422 176.623 145.422ZM191.512 139.111V143.98H195.449V145.703H191.512V158.377C191.512 159.432 191.699 160.217 192.074 160.732C192.461 161.248 193.1 161.506 193.99 161.506C194.342 161.506 194.91 161.447 195.695 161.33L195.783 163.053C195.232 163.252 194.482 163.352 193.533 163.352C192.092 163.352 191.043 162.936 190.387 162.104C189.73 161.26 189.402 160.023 189.402 158.395V145.703H185.904V143.98H189.402V139.111H191.512ZM202.164 163H200.055V143.98H202.164V163ZM199.686 138.479C199.686 138.08 199.814 137.746 200.072 137.477C200.33 137.195 200.682 137.055 201.127 137.055C201.572 137.055 201.924 137.195 202.182 137.477C202.451 137.746 202.586 138.08 202.586 138.479C202.586 138.877 202.451 139.211 202.182 139.48C201.924 139.75 201.572 139.885 201.127 139.885C200.682 139.885 200.33 139.75 200.072 139.48C199.814 139.211 199.686 138.877 199.686 138.479ZM211.164 139.111V143.98H215.102V145.703H211.164V158.377C211.164 159.432 211.352 160.217 211.727 160.732C212.113 161.248 212.752 161.506 213.643 161.506C213.994 161.506 214.562 161.447 215.348 161.33L215.436 163.053C214.885 163.252 214.135 163.352 213.186 163.352C211.744 163.352 210.695 162.936 210.039 162.104C209.383 161.26 209.055 160.023 209.055 158.395V145.703H205.557V143.98H209.055V139.111H211.164ZM221.816 163H219.707V143.98H221.816V163ZM219.338 138.479C219.338 138.08 219.467 137.746 219.725 137.477C219.982 137.195 220.334 137.055 220.779 137.055C221.225 137.055 221.576 137.195 221.834 137.477C222.104 137.746 222.238 138.08 222.238 138.479C222.238 138.877 222.104 139.211 221.834 139.48C221.576 139.75 221.225 139.885 220.779 139.885C220.334 139.885 219.982 139.75 219.725 139.48C219.467 139.211 219.338 138.877 219.338 138.479ZM226.387 153.209C226.387 151.381 226.738 149.734 227.441 148.27C228.156 146.805 229.158 145.668 230.447 144.859C231.748 144.039 233.219 143.629 234.859 143.629C237.391 143.629 239.441 144.52 241.012 146.301C242.582 148.07 243.367 150.42 243.367 153.35V153.789C243.367 155.629 243.01 157.287 242.295 158.764C241.592 160.229 240.596 161.359 239.307 162.156C238.018 162.953 236.547 163.352 234.895 163.352C232.375 163.352 230.324 162.467 228.742 160.697C227.172 158.916 226.387 156.561 226.387 153.631V153.209ZM228.496 153.789C228.496 156.062 229.082 157.932 230.254 159.396C231.438 160.85 232.984 161.576 234.895 161.576C236.793 161.576 238.328 160.85 239.5 159.396C240.684 157.932 241.275 156.004 241.275 153.613V153.209C241.275 151.756 241.006 150.426 240.467 149.219C239.928 148.012 239.172 147.08 238.199 146.424C237.227 145.756 236.113 145.422 234.859 145.422C232.984 145.422 231.455 146.16 230.271 147.637C229.088 149.102 228.496 151.023 228.496 153.402V153.789ZM249.73 143.98L249.801 147.232C250.516 146.061 251.406 145.17 252.473 144.561C253.539 143.939 254.717 143.629 256.006 143.629C258.045 143.629 259.562 144.203 260.559 145.352C261.555 146.5 262.059 148.223 262.07 150.52V163H259.979V150.502C259.967 148.803 259.604 147.537 258.889 146.705C258.186 145.873 257.055 145.457 255.496 145.457C254.195 145.457 253.041 145.867 252.033 146.688C251.037 147.496 250.299 148.592 249.818 149.975V163H247.727V143.98H249.73ZM278.91 158.166C278.91 157.123 278.488 156.285 277.645 155.652C276.812 155.02 275.553 154.527 273.865 154.176C272.178 153.812 270.865 153.402 269.928 152.945C269.002 152.477 268.311 151.908 267.854 151.24C267.408 150.572 267.186 149.764 267.186 148.814C267.186 147.314 267.812 146.078 269.066 145.105C270.32 144.121 271.926 143.629 273.883 143.629C276.004 143.629 277.703 144.156 278.98 145.211C280.27 146.254 280.914 147.619 280.914 149.307H278.805C278.805 148.193 278.336 147.268 277.398 146.529C276.473 145.791 275.301 145.422 273.883 145.422C272.5 145.422 271.387 145.732 270.543 146.354C269.711 146.963 269.295 147.76 269.295 148.744C269.295 149.693 269.641 150.432 270.332 150.959C271.035 151.475 272.307 151.949 274.146 152.383C275.998 152.816 277.381 153.279 278.295 153.771C279.221 154.264 279.906 154.855 280.352 155.547C280.797 156.238 281.02 157.076 281.02 158.061C281.02 159.666 280.369 160.949 279.068 161.91C277.779 162.871 276.092 163.352 274.006 163.352C271.791 163.352 269.992 162.818 268.609 161.752C267.238 160.674 266.553 159.314 266.553 157.674H268.662C268.744 158.904 269.26 159.865 270.209 160.557C271.17 161.236 272.436 161.576 274.006 161.576C275.471 161.576 276.654 161.254 277.557 160.609C278.459 159.965 278.91 159.15 278.91 158.166Z" fill="#333333"/>
<path d="M1042.87 227.18C1074.98 227.18 1101 223.701 1101 219.411C1101 215.12 1074.98 211.641 1042.87 211.641C1010.77 211.641 984.747 215.12 984.747 219.411C984.747 223.701 1010.77 227.18 1042.87 227.18Z" fill="#E6E6E6"/>
<path d="M733.296 228C765.492 228 791.592 224.522 791.592 220.231C791.592 215.94 765.492 212.461 733.296 212.461C701.1 212.461 675 215.94 675 220.231C675 224.522 701.1 228 733.296 228Z" fill="#E6E6E6"/>
<path d="M772.149 104.25L773.649 107.255C773.649 107.255 782.161 118.27 776.903 119.996C771.644 121.722 768.854 109.549 768.854 109.549L767.464 107.845L772.149 104.25Z" fill="#FFB8B8"/>
<path d="M762.345 47.3476L763.744 46.7736C763.744 46.7736 765.4 47.3476 765.4 49.8162C765.4 52.2849 763.363 88.3276 763.363 88.3276L767.436 108.077L761.836 109.064L753.18 90.7963L762.345 47.3476Z" fill="#575A89"/>
<path d="M762.345 47.3476L763.744 46.7736C763.744 46.7736 765.4 47.3476 765.4 49.8162C765.4 52.2849 763.363 88.3276 763.363 88.3276L774.31 105.361L767.182 110.299L753.18 90.7963L762.345 47.3476Z" fill="#BCC4DB" fill-opacity="0.9"/>
<path d="M761.327 104.621C761.327 104.621 767.945 107.09 767.436 111.533C766.927 115.977 760.308 204.355 760.308 204.355L762.345 214.23L742.997 214.724L742.488 151.032L728.742 214.724H709.394L723.141 102.646L761.327 104.621Z" fill="#2F2E41"/>
<path d="M759.799 212.255L764.382 216.699C764.382 216.699 775.073 218.674 772.528 222.13C769.982 225.586 743.507 221.142 743.507 221.142L744.016 213.243L759.799 212.255Z" fill="#2F2E41"/>
<path d="M726.705 212.255L731.287 216.699C731.287 216.699 741.979 218.674 739.434 222.13C736.888 225.586 710.413 221.142 710.413 221.142L710.922 213.243L726.705 212.255Z" fill="#2F2E41"/>
<path d="M745.034 29.5731C751.783 29.5731 757.253 24.2679 757.253 17.7235C757.253 11.1791 751.783 5.87384 745.034 5.87384C738.286 5.87384 732.815 11.1791 732.815 17.7235C732.815 24.2679 738.286 29.5731 745.034 29.5731Z" fill="#FFB8B8"/>
<path d="M752.671 24.6356L751.653 44.8788L735.87 35.9918L737.906 24.6356H752.671Z" fill="#FFB8B8"/>
<path d="M735.361 31.0543L750.125 41.4229L752.671 34.0166L757.253 45.8664L754.708 67.0972L735.361 31.0543Z" fill="#CFCCE0"/>
<path d="M735.36 29.5731L751.653 51.2975L752.243 33.1495L757.253 36.9791V40.9291L764.381 47.3476L761.836 72.0344L761.327 101.165C761.327 101.165 764.381 103.633 763.363 105.115C762.345 106.596 758.272 110.052 753.69 110.052C749.107 110.052 720.595 106.596 720.595 104.621C720.595 102.646 721.614 76.9717 721.614 76.9717V42.4102L733.833 33.523L735.36 29.5731Z" fill="#BCC4DB" fill-opacity="0.9"/>
<path d="M719.577 111.533L726.196 120.914L728.742 110.052L725.687 108.077L719.577 111.533Z" fill="#FFB8B8"/>
<path opacity="0.2" d="M751.684 125.68L741.896 151.39L742.852 151.733L752.64 126.023L751.684 125.68Z" fill="black"/>
<path d="M737.652 6.12068C737.652 6.12068 739.179 -1.28534 747.834 0.195862L746.816 0.689591C746.816 0.689591 754.962 -0.297878 753.944 4.14574C753.944 4.14574 760.563 8.09562 759.035 12.5392C758.137 15.1147 757.456 17.7566 756.999 20.439L755.471 18.9578C755.471 18.9578 753.944 9.08309 744.78 10.0706C737.906 10.8112 735.106 13.9587 734.39 16.2268C734.06 17.2933 733.639 18.3312 733.132 19.3299L732.56 19.4515C732.56 19.4515 729.505 8.58935 737.652 6.12068Z" fill="#2F2E41"/>
<path d="M727.214 41.9165L722.579 41.7079L721.614 42.4102C720.505 43.4844 719.484 44.6399 718.559 45.8664C717.54 47.3476 704.303 83.3903 704.303 83.3903C704.057 85.5793 704.408 87.7926 705.321 89.8088C706.849 93.265 719.068 114.002 719.068 114.002L728.232 108.571L716.013 84.3777L724.668 72.5281L727.214 41.9165Z" fill="#BCC4DB" fill-opacity="0.9"/>
<path d="M1025.6 196.826V210.125H1033.83L1034.92 196.826H1025.6Z" fill="#A0616A"/>
<path d="M1045.07 197.624L1048.36 205.071L1053.85 207.199L1054.95 192.304L1050.56 190.177L1045.07 197.624Z" fill="#A0616A"/>
<path d="M1052.2 204.008C1052.2 204.008 1051.74 200.65 1047.03 202.063L1047.81 211.987C1047.81 211.987 1043.98 223.158 1049.46 222.094C1054.95 221.03 1058.24 210.923 1058.24 210.923L1062.08 193.9L1052.8 191.266L1052.2 204.008Z" fill="#2F2E41"/>
<path d="M1017.64 91.2332C1017.64 91.2332 1009.96 147.62 1012.71 154.004C1015.45 160.387 1044.25 201.614 1044.25 201.614L1056.87 185.655L1028.62 151.344L1054.95 116.235L1057.14 94.9568L1017.64 91.2332Z" fill="#2F2E41"/>
<path d="M1047.81 111.447L1055.06 115.164L1054.95 116.235L1037.12 202.678L1023.4 200.018L1032.46 139.109L1047.81 111.447Z" fill="#2F2E41"/>
<path d="M1024.78 206.135L1021.48 210.923C1021.48 210.923 1014.35 222.626 1022.03 222.626C1029.71 222.626 1033 222.626 1033.55 219.966C1033.96 218.153 1034.51 216.375 1035.2 214.647L1034.65 207.731L1024.78 206.135Z" fill="#2F2E41"/>
<path d="M1046.17 30.0585C1052.83 30.0585 1058.24 24.8188 1058.24 18.3555C1058.24 11.8921 1052.83 6.65247 1046.17 6.65247C1039.5 6.65247 1034.1 11.8921 1034.1 18.3555C1034.1 24.8188 1039.5 30.0585 1046.17 30.0585Z" fill="#A0616A"/>
<path d="M1036.3 22.0792C1036.3 22.0792 1037.94 31.1224 1033 32.7183C1028.07 34.3141 1039.04 55.5923 1039.04 55.5923L1051.66 35.378C1051.66 35.378 1048.36 28.4626 1050.56 25.2709L1036.3 22.0792Z" fill="#A0616A"/>
<path d="M1039.04 46.5491L1036.06 29.2141L1030.26 32.7182L1014.9 41.2295L1020.94 66.2314L1018.74 81.658C1018.74 81.658 1016 86.4456 1016.55 88.5734C1017.1 90.7013 1016 91.7652 1016.55 92.2971C1017.1 92.8291 1044.52 97.0847 1052.75 100.276C1060.98 103.468 1062.08 104.532 1061.53 101.872C1060.98 99.2125 1054.95 86.4456 1054.95 86.4456L1059.88 65.1675L1066.47 46.5491L1050.49 32.2473L1039.04 46.5491Z" fill="#646536" fill-opacity="0.9"/>
<path d="M1062.63 69.955L1066.47 80.0622L1056.59 97.6167L1053.37 100.047C1052.86 100.431 1052.48 100.951 1052.27 101.543C1052.07 102.135 1052.04 102.773 1052.21 103.378L1054.4 111.447L1060.14 103.182C1060.14 103.182 1075.79 84.8497 1075.24 80.0622C1074.69 75.2746 1073.05 67.8272 1073.05 67.8272L1062.63 69.955Z" fill="#A0616A"/>
<path d="M1008.32 61.4437L1005.58 74.7426L995.154 99.7444C995.154 99.7444 983.634 110.384 989.12 112.511C994.605 114.639 1001.19 101.872 1001.19 101.872L1014.35 77.9343L1019.29 63.5715L1008.32 61.4437Z" fill="#A0616A"/>
<path d="M1060.43 45.4851L1064.85 45.1006L1066.47 46.549C1066.47 46.549 1075.79 66.7633 1074.69 68.8911C1073.6 71.0189 1062.63 72.0828 1062.63 72.0828L1058.24 59.3159L1060.43 45.4851Z" fill="#646536" fill-opacity="0.9"/>
<path d="M1018.74 41.7615L1016.02 40.6097L1014.9 41.2295C1014.9 41.2295 1003.93 62.5077 1006.67 63.5716C1009.42 64.6355 1022.58 66.2314 1022.58 66.2314L1018.74 41.7615Z" fill="#646536" fill-opacity="0.9"/>
<path opacity="0.2" d="M1030.26 153.875L1026.92 176.377L1023.8 171.741L1030.26 153.875Z" fill="black"/>
<path d="M1054.01 11.4246C1054.01 11.4246 1055.23 14.527 1049.59 12.9366C1049.59 12.9366 1047.35 13.9931 1047.48 12.19C1047.48 12.19 1044.4 15.0011 1043.82 13.1494C1043.23 11.2977 1041.62 13.6049 1041.62 13.6049L1040.41 10.5025L1038.85 12.2086L1033.84 11.8689C1033.84 11.8689 1033.27 -0.249183 1050.37 2.11765C1067.46 4.48449 1057.64 22.9577 1057.64 22.9577C1057.64 22.9577 1057.75 19.5295 1056.18 21.2356C1054.62 22.9417 1054.01 11.4246 1054.01 11.4246Z" fill="#2F2E41"/>
<path d="M776.216 106.968V158.049H996.251V106.968H776.216ZM908.048 149.478H848.937H789.826V142.279H908.048V149.478ZM908.048 136.108H789.826V128.909H908.048V136.108ZM982.641 122.738H789.826V115.539H982.641V122.738Z" fill="#CCCCCC"/>
<path d="M897.488 84.4211H867.792V55.6239H887.943V56.3099H868.499V83.7355H896.781V70.0225H897.488V84.4211Z" fill="#3F3D56"/>
<path d="M882.487 76.9098C881.801 74.9448 873.195 68.2654 878.469 67.1427L882.793 72.7343L902.675 53.4547L904.674 55.3937L882.487 76.9098Z" fill="#C0A9B0"/>
</svg>
