<svg width="695" height="571" viewBox="0 0 695 571" fill="none" xmlns="http://www.w3.org/2000/svg">
<path d="M107.872 1.12705C97.7965 4.19505 92.6224 11.5861 92.6224 22.7425C92.6224 34.875 101.2 47.0075 114.816 54.1197C117.812 55.6537 120.127 57.4666 119.854 58.0244C119.446 58.5822 111.549 72.8065 102.29 89.6805C64.1651 158.292 9.5652 266.787 3.16571 286.311C-1.05524 299.141 -1.05524 306.811 3.16571 311.413C10.9268 319.919 46.1921 335.12 69.6115 340.001C116.859 349.763 191.202 339.025 217.481 318.385C225.923 311.831 226.876 303.464 219.659 299.559C218.025 298.722 216.936 296.631 216.936 294.678C216.936 292.726 215.438 287.008 213.532 281.848C209.856 271.808 206.452 265.253 179.084 213.795C159.613 177.397 143.274 143.231 135.921 123.847C129.385 106.694 124.075 85.2179 125.165 80.337C126.254 74.6194 131.292 75.1772 150.082 83.2656C185.211 98.4661 207.949 105.02 230.552 106.554C246.891 107.67 262.413 105.718 289.237 99.3028C302.853 95.9559 311.839 94.5614 314.154 95.1192C316.332 95.677 319.056 98.0477 320.826 101.255C323.549 105.857 323.821 108.367 323.821 126.636C323.821 146.299 323.957 147.275 328.859 162.476C331.718 170.982 334.986 183.533 336.075 190.227C338.526 205.009 340.433 246.706 341.522 313.504C341.93 340.698 342.883 369.007 343.564 376.259C344.654 385.881 344.517 389.646 343.428 390.065C339.752 391.32 332.263 399.548 329.131 405.823C324.774 414.748 322.187 425.486 320.417 442.779C316.741 480.292 315.924 486.009 313.473 492.703C308.571 506.23 302.444 509.438 275.212 512.366C250.84 514.876 250.567 515.016 243.351 521.431C236.271 527.567 234.909 527.846 203.32 528.822C190.93 529.101 178.539 530.216 175.816 531.053C166.012 533.982 161.655 539.699 159.068 553.087C158.387 556.573 158.66 557.549 160.158 557.549C161.519 557.549 162.608 555.597 163.153 552.25C163.562 549.322 165.195 544.859 166.693 542.349C171.186 534.818 176.224 533.563 207.405 532.448C236.815 531.471 240.355 530.774 246.21 524.08C250.295 519.478 253.971 518.363 274.123 516.41C297.542 514.179 303.397 512.366 310.205 505.254C318.375 496.887 320.553 487.822 323.957 447.381C326.136 421.163 331.038 405.963 339.752 397.735L345.198 392.714L348.194 400.106C351.598 409.17 356.227 411.68 361.946 407.776C372.839 400.384 367.801 387.415 353.912 387.415C350.645 387.415 349.011 386.718 348.466 384.905C346.968 380.303 344.926 332.191 344.926 301.651C344.79 258.42 342.611 206.822 340.16 191.203C339.071 183.952 335.939 171.401 333.216 163.173C328.995 150.483 328.314 145.881 327.77 132.214C327.361 121.894 327.497 116.874 328.314 118.269C329.131 119.384 331.855 128.17 334.714 137.792C342.611 165.265 352.142 181.023 360.993 181.023C363.988 181.023 363.988 181.023 363.988 219.652C363.988 263.859 366.031 332.331 368.209 358.13C369.843 378.211 371.885 387.555 377.604 400.663C384.004 415.446 385.638 422.697 387.816 448.775C389.858 472.622 392.037 486.009 395.577 494.237C401.704 509.019 413.823 520.733 427.438 524.917C431.115 526.033 442.961 527.846 453.717 528.961C469.92 530.495 474.005 531.332 476.864 533.842C484.217 539.839 489.119 541.233 500.828 540.257C506.819 539.839 521.797 539.002 534.187 538.584C554.203 537.886 557.198 538.165 561.419 540.397C570.95 545.417 565.368 554.202 550.527 557.41C530.239 561.872 487.485 564.104 383.731 565.917C266.498 568.008 205.09 567.59 208.358 564.522C209.992 563.128 225.514 559.362 237.36 557.689C259.009 554.481 291.143 553.366 365.758 553.366C411.78 553.366 442.961 552.808 442.961 552.111C442.961 551.413 439.012 550.298 434.246 549.879C420.494 548.345 267.179 550.019 250.976 551.971C213.532 556.155 188.07 565.359 204.409 568.845C215.03 571.076 273.714 571.634 360.584 570.24C505.73 567.869 545.897 565.359 560.739 557.828C575.308 550.577 574.082 539.141 558.288 535.097C551.888 533.563 535.549 533.842 501.373 536.073L488.302 537.05L481.221 532.029C473.869 526.869 473.46 526.73 448.407 524.22C428.936 522.267 421.039 519.478 412.189 511.111C398.709 498.421 394.216 484.196 391.356 445.01C389.586 421.86 387.952 414.609 380.736 398.153C371.885 377.653 369.707 351.994 368.481 248.658L367.664 180.326L371.749 177.955C376.651 175.026 383.323 162.476 385.774 152.017C387.952 142.534 398.981 130.122 406.47 128.728C415.865 126.915 428.8 135.84 450.449 158.85C478.226 188.693 498.786 205.427 518.665 214.631C529.15 219.512 551.207 225.648 558.152 225.648C561.419 225.648 562.781 226.346 562.781 227.88C562.781 233.039 538.817 294.539 505.594 374.167C485.306 422.697 482.311 431.064 481.494 442.5C479.179 469.554 508.045 489.775 558.015 496.329C586.881 500.094 639.03 497.445 660.543 491.169C677.019 486.288 689.818 477.084 691.588 468.578C691.996 466.486 693.085 463.278 694.039 461.326C696.898 455.887 694.447 449.472 671.845 402.337C638.486 332.889 590.285 227.461 591.511 226.485C591.783 226.206 596.412 224.672 601.723 223.138C623.644 216.444 635.082 199.152 629.499 181.72C623.1 161.918 592.191 152.017 578.984 165.544C570.814 174.05 570.95 185.346 579.937 208.635C582.524 215.329 584.566 221.186 584.566 221.744C584.566 222.441 581.162 222.859 577.078 222.859H569.453L570.406 214.492C571.904 200.547 568.772 197.757 543.719 190.785C501.782 179.071 491.433 171.68 442.961 118.826C421.447 95.3981 408.785 88.5648 392.037 91.4934C387.408 92.3301 382.778 93.3063 381.553 93.8641C379.238 94.7008 378.013 92.4696 358.678 55.2353L353.776 46.0313L362.354 36.8273C375.97 22.4635 378.149 13.9568 370.252 5.8685C366.439 1.96378 364.669 1.12705 359.631 1.12705C346.832 1.12705 341.658 15.6303 346.968 36.409L349.011 44.3579L344.109 50.9122C338.118 59.0006 334.442 66.2522 330.629 77.6874L327.77 86.7519L325.591 81.1738C324.366 77.9663 321.098 73.5038 318.511 71.1331C308.98 62.6264 297.542 61.5107 248.253 64.5787C206.452 67.2284 178.948 66.81 157.57 63.1842C146.405 61.3713 127.071 56.072 127.071 54.9564C127.071 54.6775 129.113 50.0755 131.564 44.9157C139.87 26.9261 136.057 9.35485 122.578 2.66105C116.314 -0.406942 113.591 -0.68585 107.872 1.12705ZM125.165 9.63376C129.794 14.2358 132.517 20.9296 132.517 27.9023C132.517 32.6437 127.888 45.334 124.62 49.7966L122.033 53.004L115.361 49.5177C106.919 45.1946 99.1581 36.5484 97.2519 29.4363C95.2095 22.1846 95.3456 21.069 98.4773 14.2358C103.788 3.07941 116.314 0.848146 125.165 9.63376ZM364.124 5.31068C366.575 5.31068 370.796 11.0283 370.796 14.3752C370.796 16.467 369.843 19.9534 368.618 22.4635C366.303 27.0655 354.729 40.1742 352.823 40.1742C349.419 40.1742 347.785 17.0248 350.781 10.8888C352.687 6.98413 358.269 3.63723 360.993 4.61341C362.082 5.03177 363.444 5.31068 364.124 5.31068ZM364.533 74.6194L376.515 97.3505L372.839 104.881C368.481 113.946 365.894 128.588 364.669 151.319L363.716 168.472H359.767C357.044 168.472 355.002 167.217 352.687 163.87C344.79 153.132 336.484 131.517 332.399 111.156L329.54 96.3743L333.216 83.5445C337.165 69.3202 339.888 63.3236 346.287 54.2591C349.555 49.7966 350.917 48.6809 351.734 50.0755C352.278 51.1911 357.997 62.208 364.533 74.6194ZM154.983 66.6705C178.131 70.5753 199.508 71.412 233.411 69.3202C272.761 66.81 301.763 66.81 308.435 69.1807C315.243 71.6909 321.098 78.8031 323.685 88.007C326.953 99.5817 326.544 101.255 322.051 96.2348C315.924 89.541 312.928 89.541 290.054 94.9797C261.324 101.952 249.07 103.486 231.369 102.51C208.903 101.255 186.709 94.9797 151.579 79.5003C127.615 69.0413 121.624 69.878 121.624 84.1023C121.624 105.02 140.142 149.506 180.037 223.835C200.869 262.743 211.353 284.777 212.443 291.75C212.987 295.794 212.851 296.909 211.626 296.212C208.222 293.981 186.028 291.331 158.796 289.658C110.595 286.869 47.1452 289.658 27.4021 295.375C22.0919 296.909 18.9602 300.675 20.7303 303.464C25.4959 311.552 79.6873 317.13 139.325 315.875C185.892 314.76 202.639 311.971 214.485 303.464C216.391 302.069 217.344 302.209 219.251 304.161C221.429 306.392 221.429 306.811 219.387 310.437C209.992 326.753 147.495 341.953 99.1581 339.443C81.3212 338.606 64.5736 335.538 48.0983 330.1C34.4824 325.637 9.02056 312.389 5.75274 308.205C2.07643 303.464 2.89339 297.886 9.5652 280.733C20.0495 253.4 82.5466 131.517 116.995 71.2725L124.348 58.4427L132.245 61.2318C136.466 62.7658 146.814 65.1365 154.983 66.6705ZM414.503 99.1634C422.945 103.347 430.57 110.599 457.666 140.163C490.753 176.282 500.828 182.418 552.705 197.618C565.096 201.383 567.41 203.893 566.593 213.097C566.185 217.002 565.368 220.767 564.687 221.465C562.781 223.278 540.995 219.094 528.469 214.492C506.275 206.264 489.799 193.574 455.079 158.292C434.927 137.932 427.983 131.656 421.175 128.17C416.41 125.799 411.372 123.847 409.874 123.847C405.381 123.847 395.713 129.285 391.901 133.887C389.995 136.119 388.497 137.792 388.497 137.513C388.361 137.234 388.088 133.051 387.816 128.03C387.408 123.01 385.91 114.643 384.412 109.483C382.778 104.323 381.961 99.4423 382.37 98.745C385.501 93.5852 403.883 93.8641 414.503 99.1634ZM383.459 131.656L383.731 144.347L376.923 153.551C373.247 158.71 369.571 162.894 368.89 162.894C367.392 162.894 369.162 135.84 371.477 123.01C372.43 117.571 374.336 110.738 375.698 107.67L378.013 102.231L380.6 110.599C382.37 116.037 383.323 123.289 383.459 131.656ZM606.08 164.986C628.546 171.819 633.856 196.642 616.292 211.563C611.39 215.747 596.821 221.465 591.374 221.465C587.017 221.465 575.444 187.298 576.805 178.652C578.984 165.125 589.877 160.105 606.08 164.986ZM603.356 263.998C628.546 319.919 641.345 347.671 666.943 401.361C688.592 446.962 693.085 457.142 691.179 457.142C690.771 457.142 689.409 455.608 687.911 453.935C678.516 441.663 638.894 435.806 585.928 438.874C533.643 441.942 501.509 448.078 494.837 456.306C489.527 462.721 498.514 469.135 517.848 472.622C541.404 477.084 629.635 474.156 673.615 467.601C681.103 466.486 687.367 465.789 687.639 466.067C689.273 467.741 683.01 475.969 677.427 479.594C662.45 489.356 636.579 493.819 596.14 493.819C580.482 493.958 562.645 493.122 556.654 492.285C528.333 487.962 507.636 480.013 496.199 468.996C487.212 460.35 484.489 453.098 485.579 440.966C486.532 430.785 490.889 419.211 519.21 351.157C538 305.835 561.283 246.985 564.823 235.131L567.274 227.182L576.261 226.764C581.162 226.485 585.656 226.625 586.2 227.043C586.745 227.461 594.506 244.056 603.356 263.998ZM184.258 295.375C191.338 296.212 200.461 297.467 204.545 298.304C211.081 299.699 211.626 300.117 209.72 301.93C206.588 305.137 188.479 309.042 168.599 310.855C148.039 312.807 79.0065 311.831 58.9911 309.321C42.9243 307.369 27.5382 304.161 25.9043 302.488C22.5003 299.001 39.1118 295.794 68.5222 293.981C91.1247 292.586 166.557 293.423 184.258 295.375ZM656.595 445.428C671.3 447.799 681.512 451.843 685.461 456.863C688.184 460.489 688.184 460.489 685.597 461.465C681.24 463.139 649.651 466.765 617.925 469.135C581.299 471.924 528.06 471.227 513.219 467.741C503.143 465.37 497.016 462.163 497.697 459.513C499.331 454.074 522.205 448.775 558.015 445.428C598.591 441.523 632.495 441.523 656.595 445.428Z" fill="#C7B0B0" fill-opacity="0.5"/>
</svg>
