<svg width="769" height="275" viewBox="0 0 769 275" fill="none" xmlns="http://www.w3.org/2000/svg">
<path d="M21.1309 89.668C20.873 92.3984 19.8652 94.5312 18.1074 96.0664C16.3496 97.5898 14.0117 98.3516 11.0938 98.3516C9.05469 98.3516 7.25586 97.8711 5.69727 96.9102C4.15039 95.9375 2.95508 94.5605 2.11133 92.7793C1.26758 90.998 0.828125 88.9297 0.792969 86.5742V84.1836C0.792969 81.7695 1.2207 79.6426 2.07617 77.8027C2.93164 75.9629 4.15625 74.5449 5.75 73.5488C7.35547 72.5527 9.20703 72.0547 11.3047 72.0547C14.1289 72.0547 16.4023 72.8223 18.125 74.3574C19.8477 75.8926 20.8496 78.0605 21.1309 80.8613H16.7012C16.4902 79.0215 15.9512 77.6973 15.084 76.8887C14.2285 76.0684 12.9688 75.6582 11.3047 75.6582C9.37109 75.6582 7.88281 76.3672 6.83984 77.7852C5.80859 79.1914 5.28125 81.2598 5.25781 83.9902V86.2578C5.25781 89.0234 5.75 91.1328 6.73438 92.5859C7.73047 94.0391 9.18359 94.7656 11.0938 94.7656C12.8398 94.7656 14.1523 94.373 15.0312 93.5879C15.9102 92.8027 16.4668 91.4961 16.7012 89.668H21.1309ZM28.918 81.0547C30.3125 79.4375 32.0762 78.6289 34.209 78.6289C38.2637 78.6289 40.3203 80.9434 40.3789 85.5723V98H36.1074V85.7305C36.1074 84.418 35.8203 83.4922 35.2461 82.9531C34.6836 82.4023 33.8516 82.127 32.75 82.127C31.0391 82.127 29.7617 82.8887 28.918 84.4121V98H24.6465V71H28.918V81.0547ZM56.0762 98C55.8887 97.6367 55.7246 97.0449 55.584 96.2246C54.2246 97.6426 52.5605 98.3516 50.5918 98.3516C48.6816 98.3516 47.123 97.8066 45.916 96.7168C44.709 95.627 44.1055 94.2793 44.1055 92.6738C44.1055 90.6465 44.8555 89.0938 46.3555 88.0156C47.8672 86.9258 50.0234 86.3809 52.8242 86.3809H55.4434V85.1328C55.4434 84.1484 55.168 83.3633 54.6172 82.7773C54.0664 82.1797 53.2285 81.8809 52.1035 81.8809C51.1309 81.8809 50.334 82.127 49.7129 82.6191C49.0918 83.0996 48.7812 83.7148 48.7812 84.4648H44.5098C44.5098 83.4219 44.8555 82.4492 45.5469 81.5469C46.2383 80.6328 47.1758 79.918 48.3594 79.4023C49.5547 78.8867 50.8848 78.6289 52.3496 78.6289C54.5762 78.6289 56.3516 79.1914 57.6758 80.3164C59 81.4297 59.6797 83 59.7148 85.0273V93.6055C59.7148 95.3164 59.9551 96.6816 60.4355 97.7012V98H56.0762ZM51.3828 94.9238C52.2266 94.9238 53.0176 94.7188 53.7559 94.3086C54.5059 93.8984 55.0684 93.3477 55.4434 92.6562V89.0703H53.1406C51.5586 89.0703 50.3691 89.3457 49.5723 89.8965C48.7754 90.4473 48.377 91.2266 48.377 92.2344C48.377 93.0547 48.6465 93.7109 49.1855 94.2031C49.7363 94.6836 50.4688 94.9238 51.3828 94.9238ZM68.1523 78.9805L68.2754 81.1777C69.6816 79.4785 71.5273 78.6289 73.8125 78.6289C77.7734 78.6289 79.7891 80.8965 79.8594 85.4316V98H75.5879V85.6777C75.5879 84.4707 75.3242 83.5801 74.7969 83.0059C74.2812 82.4199 73.4316 82.127 72.248 82.127C70.5254 82.127 69.2422 82.9062 68.3984 84.4648V98H64.127V78.9805H68.1523ZM83.4805 88.3496C83.4805 85.3965 84.1719 83.041 85.5547 81.2832C86.9492 79.5137 88.7949 78.6289 91.0918 78.6289C93.2598 78.6289 94.9648 79.3848 96.207 80.8965L96.4004 78.9805H100.25V97.4199C100.25 99.916 99.4707 101.885 97.9121 103.326C96.3652 104.768 94.2734 105.488 91.6367 105.488C90.2422 105.488 88.877 105.195 87.541 104.609C86.2168 104.035 85.209 103.279 84.5176 102.342L86.5391 99.7754C87.8516 101.334 89.4688 102.113 91.3906 102.113C92.8086 102.113 93.9277 101.727 94.748 100.953C95.5684 100.191 95.9785 99.0664 95.9785 97.5781V96.2949C94.748 97.666 93.1074 98.3516 91.0566 98.3516C88.8301 98.3516 87.0078 97.4668 85.5898 95.6973C84.1836 93.9277 83.4805 91.4785 83.4805 88.3496ZM87.7344 88.7188C87.7344 90.6289 88.1211 92.1348 88.8945 93.2363C89.6797 94.3262 90.7637 94.8711 92.1465 94.8711C93.8691 94.8711 95.1465 94.1328 95.9785 92.6562V84.2891C95.1699 82.8477 93.9043 82.127 92.1816 82.127C90.7754 82.127 89.6797 82.6836 88.8945 83.7969C88.1211 84.9102 87.7344 86.5508 87.7344 88.7188ZM113.029 98.3516C110.322 98.3516 108.125 97.502 106.438 95.8027C104.762 94.0918 103.924 91.8184 103.924 88.9824V88.4551C103.924 86.5566 104.287 84.8633 105.014 83.375C105.752 81.875 106.783 80.709 108.107 79.877C109.432 79.0449 110.908 78.6289 112.537 78.6289C115.127 78.6289 117.125 79.4551 118.531 81.1074C119.949 82.7598 120.658 85.0977 120.658 88.1211V89.8438H108.23C108.359 91.4141 108.881 92.6562 109.795 93.5703C110.721 94.4844 111.881 94.9414 113.275 94.9414C115.232 94.9414 116.826 94.1504 118.057 92.5684L120.359 94.7656C119.598 95.9023 118.578 96.7871 117.301 97.4199C116.035 98.041 114.611 98.3516 113.029 98.3516ZM112.52 82.0566C111.348 82.0566 110.398 82.4668 109.672 83.2871C108.957 84.1074 108.5 85.25 108.301 86.7148H116.439V86.3984C116.346 84.9688 115.965 83.8906 115.297 83.1641C114.629 82.4258 113.703 82.0566 112.52 82.0566ZM144.723 98H140.293V86.627H128.85V98H124.402V72.4062H128.85V83.0586H140.293V72.4062H144.723V98ZM161.105 96.1367C159.852 97.6133 158.07 98.3516 155.762 98.3516C153.699 98.3516 152.135 97.748 151.068 96.541C150.014 95.334 149.486 93.5879 149.486 91.3027V78.9805H153.758V91.25C153.758 93.6641 154.76 94.8711 156.764 94.8711C158.838 94.8711 160.238 94.127 160.965 92.6387V78.9805H165.236V98H161.211L161.105 96.1367ZM186.277 88.6836C186.277 91.6367 185.615 93.9863 184.291 95.7324C182.979 97.4785 181.168 98.3516 178.859 98.3516C176.633 98.3516 174.898 97.5488 173.656 95.9434L173.445 98H169.578V71H173.85V80.8086C175.08 79.3555 176.738 78.6289 178.824 78.6289C181.145 78.6289 182.967 79.4902 184.291 81.2129C185.615 82.9355 186.277 85.3438 186.277 88.4375V88.6836ZM182.006 88.3145C182.006 86.252 181.643 84.7051 180.916 83.6738C180.189 82.6426 179.135 82.127 177.752 82.127C175.9 82.127 174.6 82.9355 173.85 84.5527V92.3926C174.611 94.0449 175.924 94.8711 177.787 94.8711C179.123 94.8711 180.154 94.373 180.881 93.377C181.607 92.3809 181.982 90.875 182.006 88.8594V88.3145Z" fill="#333333"/>
<path d="M14.9785 198.408C14.9785 197.283 14.5801 196.416 13.7832 195.807C12.998 195.197 11.5742 194.582 9.51172 193.961C7.44922 193.34 5.80859 192.648 4.58984 191.887C2.25781 190.422 1.0918 188.512 1.0918 186.156C1.0918 184.094 1.92969 182.395 3.60547 181.059C5.29297 179.723 7.47852 179.055 10.1621 179.055C11.9434 179.055 13.5312 179.383 14.9258 180.039C16.3203 180.695 17.416 181.633 18.2129 182.852C19.0098 184.059 19.4082 185.4 19.4082 186.877H14.9785C14.9785 185.541 14.5566 184.498 13.7129 183.748C12.8809 182.986 11.6855 182.605 10.127 182.605C8.67383 182.605 7.54297 182.916 6.73438 183.537C5.9375 184.158 5.53906 185.025 5.53906 186.139C5.53906 187.076 5.97266 187.861 6.83984 188.494C7.70703 189.115 9.13672 189.725 11.1289 190.322C13.1211 190.908 14.7207 191.582 15.9277 192.344C17.1348 193.094 18.0195 193.961 18.582 194.945C19.1445 195.918 19.4258 197.061 19.4258 198.373C19.4258 200.506 18.6055 202.205 16.9648 203.471C15.3359 204.725 13.1211 205.352 10.3203 205.352C8.46875 205.352 6.76367 205.012 5.20508 204.332C3.6582 203.641 2.45117 202.691 1.58398 201.484C0.728516 200.277 0.300781 198.871 0.300781 197.266H4.74805C4.74805 198.719 5.22852 199.844 6.18945 200.641C7.15039 201.438 8.52734 201.836 10.3203 201.836C11.8672 201.836 13.0273 201.525 13.8008 200.904C14.5859 200.271 14.9785 199.439 14.9785 198.408ZM27.459 205H23.1875V185.98H27.459V205ZM22.9238 181.041C22.9238 180.385 23.1289 179.84 23.5391 179.406C23.9609 178.973 24.5586 178.756 25.332 178.756C26.1055 178.756 26.7031 178.973 27.125 179.406C27.5469 179.84 27.7578 180.385 27.7578 181.041C27.7578 181.686 27.5469 182.225 27.125 182.658C26.7031 183.08 26.1055 183.291 25.332 183.291C24.5586 183.291 23.9609 183.08 23.5391 182.658C23.1289 182.225 22.9238 181.686 22.9238 181.041ZM31.3789 195.35C31.3789 192.396 32.0703 190.041 33.4531 188.283C34.8477 186.514 36.6934 185.629 38.9902 185.629C41.1582 185.629 42.8633 186.385 44.1055 187.896L44.2988 185.98H48.1484V204.42C48.1484 206.916 47.3691 208.885 45.8105 210.326C44.2637 211.768 42.1719 212.488 39.5352 212.488C38.1406 212.488 36.7754 212.195 35.4395 211.609C34.1152 211.035 33.1074 210.279 32.416 209.342L34.4375 206.775C35.75 208.334 37.3672 209.113 39.2891 209.113C40.707 209.113 41.8262 208.727 42.6465 207.953C43.4668 207.191 43.877 206.066 43.877 204.578V203.295C42.6465 204.666 41.0059 205.352 38.9551 205.352C36.7285 205.352 34.9062 204.467 33.4883 202.697C32.082 200.928 31.3789 198.479 31.3789 195.35ZM35.6328 195.719C35.6328 197.629 36.0195 199.135 36.793 200.236C37.5781 201.326 38.6621 201.871 40.0449 201.871C41.7676 201.871 43.0449 201.133 43.877 199.656V191.289C43.0684 189.848 41.8027 189.127 40.0801 189.127C38.6738 189.127 37.5781 189.684 36.793 190.797C36.0195 191.91 35.6328 193.551 35.6328 195.719ZM56.5156 185.98L56.6387 188.178C58.0449 186.479 59.8906 185.629 62.1758 185.629C66.1367 185.629 68.1523 187.896 68.2227 192.432V205H63.9512V192.678C63.9512 191.471 63.6875 190.58 63.1602 190.006C62.6445 189.42 61.7949 189.127 60.6113 189.127C58.8887 189.127 57.6055 189.906 56.7617 191.465V205H52.4902V185.98H56.5156ZM80.9668 205.352C78.2598 205.352 76.0625 204.502 74.375 202.803C72.6992 201.092 71.8613 198.818 71.8613 195.982V195.455C71.8613 193.557 72.2246 191.863 72.9512 190.375C73.6895 188.875 74.7207 187.709 76.0449 186.877C77.3691 186.045 78.8457 185.629 80.4746 185.629C83.0645 185.629 85.0625 186.455 86.4688 188.107C87.8867 189.76 88.5957 192.098 88.5957 195.121V196.844H76.168C76.2969 198.414 76.8184 199.656 77.7324 200.57C78.6582 201.484 79.8184 201.941 81.2129 201.941C83.1699 201.941 84.7637 201.15 85.9941 199.568L88.2969 201.766C87.5352 202.902 86.5156 203.787 85.2383 204.42C83.9727 205.041 82.5488 205.352 80.9668 205.352ZM80.457 189.057C79.2852 189.057 78.3359 189.467 77.6094 190.287C76.8945 191.107 76.4375 192.25 76.2383 193.715H84.377V193.398C84.2832 191.969 83.9023 190.891 83.2344 190.164C82.5664 189.426 81.6406 189.057 80.457 189.057ZM91.127 195.35C91.127 192.42 91.8066 190.07 93.166 188.301C94.5254 186.52 96.3477 185.629 98.6328 185.629C100.648 185.629 102.277 186.332 103.52 187.738V178H107.791V205H103.924L103.713 203.031C102.436 204.578 100.73 205.352 98.5977 205.352C96.3711 205.352 94.5664 204.455 93.1836 202.662C91.8125 200.869 91.127 198.432 91.127 195.35ZM95.3984 195.719C95.3984 197.652 95.7676 199.164 96.5059 200.254C97.2559 201.332 98.3164 201.871 99.6875 201.871C101.434 201.871 102.711 201.092 103.52 199.533V191.412C102.734 189.889 101.469 189.127 99.7227 189.127C98.3398 189.127 97.2734 189.678 96.5234 190.779C95.7734 191.869 95.3984 193.516 95.3984 195.719ZM126.072 195.49V205H121.625V179.406H131.416C134.275 179.406 136.543 180.15 138.219 181.639C139.906 183.127 140.75 185.096 140.75 187.545C140.75 190.053 139.924 192.004 138.271 193.398C136.631 194.793 134.328 195.49 131.363 195.49H126.072ZM126.072 191.922H131.416C132.998 191.922 134.205 191.553 135.037 190.814C135.869 190.064 136.285 188.986 136.285 187.58C136.285 186.197 135.863 185.096 135.02 184.275C134.176 183.443 133.016 183.016 131.539 182.992H126.072V191.922ZM152.369 205.352C149.662 205.352 147.465 204.502 145.777 202.803C144.102 201.092 143.264 198.818 143.264 195.982V195.455C143.264 193.557 143.627 191.863 144.354 190.375C145.092 188.875 146.123 187.709 147.447 186.877C148.771 186.045 150.248 185.629 151.877 185.629C154.467 185.629 156.465 186.455 157.871 188.107C159.289 189.76 159.998 192.098 159.998 195.121V196.844H147.57C147.699 198.414 148.221 199.656 149.135 200.57C150.061 201.484 151.221 201.941 152.615 201.941C154.572 201.941 156.166 201.15 157.396 199.568L159.699 201.766C158.938 202.902 157.918 203.787 156.641 204.42C155.375 205.041 153.951 205.352 152.369 205.352ZM151.859 189.057C150.688 189.057 149.738 189.467 149.012 190.287C148.297 191.107 147.84 192.25 147.641 193.715H155.779V193.398C155.686 191.969 155.305 190.891 154.637 190.164C153.969 189.426 153.043 189.057 151.859 189.057ZM168.682 181.357V185.98H172.039V189.145H168.682V199.762C168.682 200.488 168.822 201.016 169.104 201.344C169.396 201.66 169.912 201.818 170.65 201.818C171.143 201.818 171.641 201.76 172.145 201.643V204.947C171.172 205.217 170.234 205.352 169.332 205.352C166.051 205.352 164.41 203.541 164.41 199.92V189.145H161.281V185.98H164.41V181.357H168.682ZM179.861 205H175.59V185.98H179.861V205ZM175.326 181.041C175.326 180.385 175.531 179.84 175.941 179.406C176.363 178.973 176.961 178.756 177.734 178.756C178.508 178.756 179.105 178.973 179.527 179.406C179.949 179.84 180.16 180.385 180.16 181.041C180.16 181.686 179.949 182.225 179.527 182.658C179.105 183.08 178.508 183.291 177.734 183.291C176.961 183.291 176.363 183.08 175.941 182.658C175.531 182.225 175.326 181.686 175.326 181.041ZM189.881 181.357V185.98H193.238V189.145H189.881V199.762C189.881 200.488 190.021 201.016 190.303 201.344C190.596 201.66 191.111 201.818 191.85 201.818C192.342 201.818 192.84 201.76 193.344 201.643V204.947C192.371 205.217 191.434 205.352 190.531 205.352C187.25 205.352 185.609 203.541 185.609 199.92V189.145H182.48V185.98H185.609V181.357H189.881ZM201.061 205H196.789V185.98H201.061V205ZM196.525 181.041C196.525 180.385 196.73 179.84 197.141 179.406C197.562 178.973 198.16 178.756 198.934 178.756C199.707 178.756 200.305 178.973 200.727 179.406C201.148 179.84 201.359 180.385 201.359 181.041C201.359 181.686 201.148 182.225 200.727 182.658C200.305 183.08 199.707 183.291 198.934 183.291C198.16 183.291 197.562 183.08 197.141 182.658C196.73 182.225 196.525 181.686 196.525 181.041ZM204.928 195.314C204.928 193.451 205.297 191.775 206.035 190.287C206.773 188.787 207.811 187.639 209.146 186.842C210.482 186.033 212.018 185.629 213.752 185.629C216.318 185.629 218.398 186.455 219.992 188.107C221.598 189.76 222.465 191.951 222.594 194.682L222.611 195.684C222.611 197.559 222.248 199.234 221.521 200.711C220.807 202.188 219.775 203.33 218.428 204.139C217.092 204.947 215.545 205.352 213.787 205.352C211.104 205.352 208.953 204.461 207.336 202.68C205.73 200.887 204.928 198.502 204.928 195.525V195.314ZM209.199 195.684C209.199 197.641 209.604 199.176 210.412 200.289C211.221 201.391 212.346 201.941 213.787 201.941C215.229 201.941 216.348 201.379 217.145 200.254C217.953 199.129 218.357 197.482 218.357 195.314C218.357 193.393 217.941 191.869 217.109 190.744C216.289 189.619 215.17 189.057 213.752 189.057C212.357 189.057 211.25 189.613 210.43 190.727C209.609 191.828 209.199 193.48 209.199 195.684ZM230.188 185.98L230.311 188.178C231.717 186.479 233.562 185.629 235.848 185.629C239.809 185.629 241.824 187.896 241.895 192.432V205H237.623V192.678C237.623 191.471 237.359 190.58 236.832 190.006C236.316 189.42 235.467 189.127 234.283 189.127C232.561 189.127 231.277 189.906 230.434 191.465V205H226.162V185.98H230.188ZM256.924 199.832C256.924 199.07 256.607 198.49 255.975 198.092C255.354 197.693 254.316 197.342 252.863 197.037C251.41 196.732 250.197 196.346 249.225 195.877C247.092 194.846 246.025 193.352 246.025 191.395C246.025 189.754 246.717 188.383 248.1 187.281C249.482 186.18 251.24 185.629 253.373 185.629C255.646 185.629 257.48 186.191 258.875 187.316C260.281 188.441 260.984 189.9 260.984 191.693H256.713C256.713 190.873 256.408 190.193 255.799 189.654C255.189 189.104 254.381 188.828 253.373 188.828C252.436 188.828 251.668 189.045 251.07 189.479C250.484 189.912 250.191 190.492 250.191 191.219C250.191 191.875 250.467 192.385 251.018 192.748C251.568 193.111 252.682 193.48 254.357 193.855C256.033 194.219 257.346 194.658 258.295 195.174C259.256 195.678 259.965 196.287 260.422 197.002C260.891 197.717 261.125 198.584 261.125 199.604C261.125 201.314 260.416 202.703 258.998 203.77C257.58 204.824 255.723 205.352 253.426 205.352C251.867 205.352 250.479 205.07 249.26 204.508C248.041 203.945 247.092 203.172 246.412 202.188C245.732 201.203 245.393 200.143 245.393 199.006H249.541C249.6 200.014 249.98 200.793 250.684 201.344C251.387 201.883 252.318 202.152 253.479 202.152C254.604 202.152 255.459 201.941 256.045 201.52C256.631 201.086 256.924 200.523 256.924 199.832Z" fill="#333333"/>
<g clip-path="url(#clip0)">
<path d="M767.887 200.453C765.142 217.89 756.638 234.815 742.604 245.525C728.792 256.073 711.097 259.821 694.014 263.043C673.527 266.912 652.982 270.448 632.382 273.652C629.462 274.117 626.539 274.566 623.615 275H503.628C503.506 274.838 503.378 274.67 503.257 274.501C503.061 274.218 502.866 273.935 502.677 273.652C502.569 273.49 502.461 273.322 502.353 273.153H577.615C579.751 273.151 581.798 272.303 583.309 270.794C584.82 269.286 585.67 267.24 585.674 265.105V164.703C586.159 163.18 586.611 161.65 587.023 160.099C588.942 152.881 590.19 145.5 590.752 138.052C591.157 132.862 591.278 127.672 591.19 122.476C590.941 108.193 589.073 93.9105 587.043 79.7291C586.895 78.6843 586.74 77.6329 586.591 76.5881C585.161 66.7339 583.86 56.0102 588.83 47.376C594.515 37.4949 607.133 33.3766 618.496 34.3876C638.937 36.2142 656.154 51.8583 665.103 70.3197C674.046 88.7745 676.049 109.764 676.865 130.254C677.296 141.119 677.249 152.47 675.732 163.368C680.857 151.654 685.987 139.939 691.121 128.225C693.859 121.977 696.739 115.526 701.81 110.957C712.411 101.392 729.946 103.32 741.269 112.028C752.585 120.743 758.789 134.514 762.917 148.176C768.028 165.074 770.638 183.016 767.887 200.453Z" fill="#F2F2F2"/>
<path d="M722.668 105.745C730.081 118.867 733.482 133.914 733.4 148.929C733.286 163.816 729.991 178.507 723.736 192.019C718.078 204.219 710.195 215.259 700.492 224.573C690.915 233.867 679.551 241.122 667.088 245.9C652.627 251.317 636.986 252.802 621.762 250.204C619.647 249.841 617.548 249.401 615.464 248.883C614.2 248.572 613.661 250.521 614.926 250.833C630.768 254.758 647.381 254.28 662.971 249.452C675.956 245.277 687.937 238.465 698.162 229.443C708.515 220.396 717.077 209.488 723.402 197.284C730.323 183.922 734.361 169.258 735.255 154.238C736.138 138.998 733.582 123.485 726.987 109.66C726.188 107.985 725.331 106.34 724.415 104.724C724.275 104.502 724.054 104.344 723.799 104.281C723.544 104.219 723.275 104.259 723.048 104.391C722.821 104.523 722.655 104.738 722.584 104.991C722.513 105.244 722.543 105.514 722.668 105.745H722.668Z" fill="white"/>
<path d="M615.299 34.1202C623.518 49.2636 629.924 65.3223 634.382 81.9641C643.308 115.295 644.652 150.201 638.316 184.119C635.153 201.065 629.994 217.578 622.947 233.312C615.921 248.914 605.805 265.352 588.525 270.815C586.575 271.429 584.576 271.875 582.55 272.15C581.266 272.326 581.813 274.275 583.088 274.1C600.962 271.648 613.383 256.806 621.172 241.677C629.232 226.023 634.971 209.023 638.787 191.861C646.351 157.615 646.079 122.105 637.992 87.9794C633.974 70.9792 627.969 54.5105 620.1 38.9128C619.112 36.9595 618.094 35.0218 617.046 33.0996C616.423 31.9561 614.676 32.9756 615.299 34.1202V34.1202Z" fill="white"/>
<path d="M530.698 31.1792H409.578C407.119 31.1824 404.763 32.1598 403.024 33.8972C401.286 35.6346 400.308 37.99 400.305 40.447V101.102H418.945C420.308 101.099 421.65 101.443 422.843 102.102C424.036 102.761 425.041 103.714 425.763 104.87L432.224 115.149L438.401 124.969L439.561 126.816L446.629 138.052L446.71 138.18H539.971V40.447C539.967 37.99 538.989 35.6346 537.251 33.8972C535.513 32.1599 533.156 31.1824 530.698 31.1792V31.1792Z" fill="#CCCCCC"/>
<path d="M482.688 49.7216H422.674C421.083 49.7216 419.557 50.3532 418.433 51.4776C417.308 52.602 416.676 54.1269 416.676 55.717C416.676 57.3071 417.308 58.8321 418.433 59.9564C419.557 61.0808 421.083 61.7125 422.674 61.7125H482.688C484.279 61.7125 485.805 61.0808 486.93 59.9564C488.055 58.8321 488.687 57.3071 488.687 55.717C488.687 54.1269 488.055 52.602 486.93 51.4776C485.805 50.3532 484.279 49.7216 482.688 49.7216Z" fill="white"/>
<path d="M515.969 79.1629H423.221C421.484 79.1629 419.818 79.8524 418.59 81.0798C417.362 82.3072 416.672 83.9718 416.672 85.7076C416.672 87.4434 417.362 89.1081 418.59 90.3355C419.818 91.5628 421.484 92.2524 423.221 92.2524H515.969C517.706 92.2524 519.371 91.5628 520.599 90.3355C521.827 89.1081 522.517 87.4434 522.517 85.7076C522.517 83.9718 521.827 82.3072 520.599 81.0798C519.371 79.8524 517.706 79.1629 515.969 79.1629V79.1629Z" fill="white"/>
<path d="M521.89 105.834C521.363 104.709 520.526 103.757 519.478 103.089C518.429 102.422 517.212 102.067 515.969 102.066H423.221C423.079 102.066 422.944 102.073 422.802 102.08C424.012 102.74 425.032 103.701 425.763 104.87L432.224 115.149H515.969C517.07 115.149 518.154 114.872 519.119 114.342C520.084 113.812 520.9 113.047 521.491 112.118C522.081 111.189 522.428 110.126 522.498 109.027C522.567 107.929 522.358 106.83 521.89 105.834V105.834Z" fill="white"/>
<path d="M522.45 130.631C522.237 129.064 521.463 127.627 520.271 126.586C519.08 125.545 517.551 124.971 515.969 124.969H438.401L439.561 126.816L446.629 138.052H515.969C517.332 138.055 518.66 137.628 519.766 136.832C520.615 136.228 521.307 135.429 521.785 134.503C522.262 133.576 522.511 132.549 522.511 131.507C522.511 131.214 522.491 130.921 522.45 130.631V130.631Z" fill="white"/>
<path d="M596.484 83.4159L587.043 79.729L539.971 61.3687L483.652 39.4023C481.36 38.5132 478.808 38.5687 476.557 39.5567C474.306 40.5448 472.538 42.3847 471.641 44.6731L469.672 49.7216L464.986 61.7124L458.174 79.1629L453.062 92.2524L449.232 102.066L444.12 115.149L440.282 124.969L440.175 125.252L439.561 126.816L446.629 138.052L446.71 138.18H577.615C578.817 138.179 580.003 138.447 581.088 138.965C582.172 139.483 583.126 140.238 583.88 141.173L584.433 139.771L591.19 122.476L601.751 95.427C602.643 93.1359 602.589 90.585 601.602 88.3334C600.614 86.0819 598.774 84.3135 596.484 83.4159V83.4159Z" fill="#EEECBD" fill-opacity="0.75"/>
<path d="M545.015 83.2407L539.971 81.2725L489.108 61.4361C487.625 60.8624 485.975 60.8983 484.518 61.536C483.062 62.1737 481.916 63.3614 481.333 64.8399C480.758 66.323 480.794 67.9733 481.434 69.4297C482.073 70.8861 483.264 72.0301 484.745 72.6114L501.544 79.1628L522.322 87.2646L539.971 94.1531L540.652 94.416C542.134 94.9911 543.784 94.9549 545.239 94.3154C546.694 93.6759 547.836 92.4853 548.414 91.0051C548.992 89.5248 548.959 87.8758 548.322 86.4201C547.684 84.9644 546.495 83.8209 545.015 83.2407V83.2407Z" fill="white"/>
<path d="M565.301 122.765L539.971 112.884L521.89 105.834L512.233 102.066L487.078 92.2524L478.905 89.0643C477.38 88.4693 475.688 88.4665 474.161 89.0566C472.634 89.6467 471.384 90.7869 470.657 92.2524C470.576 92.4209 470.495 92.5961 470.428 92.7781C470.115 93.5783 469.963 94.4322 469.981 95.2911C469.998 96.1499 470.185 96.9969 470.53 97.7837C470.875 98.5704 471.372 99.2816 471.992 99.8764C472.612 100.471 473.343 100.938 474.144 101.251L476.234 102.066L509.765 115.149L539.971 126.931L560.539 134.958C561.296 135.254 562.101 135.405 562.913 135.403C564.441 135.406 565.921 134.875 567.098 133.902C568.274 132.929 569.074 131.575 569.357 130.075C569.64 128.575 569.39 127.023 568.649 125.688C567.908 124.353 566.724 123.319 565.301 122.765H565.301Z" fill="white"/>
<path d="M539.971 137.466L538.345 136.832L522.45 130.631L507.93 124.969L482.749 115.149L470.569 110.397C469.768 110.084 468.913 109.931 468.052 109.949C467.192 109.966 466.344 110.153 465.556 110.498C464.768 110.843 464.055 111.34 463.46 111.961C462.864 112.581 462.397 113.313 462.084 114.115C461.772 114.916 461.62 115.771 461.639 116.631C461.657 117.49 461.845 118.338 462.192 119.125C462.538 119.913 463.037 120.624 463.658 121.218C464.28 121.813 465.013 122.279 465.815 122.59L471.911 124.969L502.326 136.832L505.455 138.052L505.779 138.18H541.798L539.971 137.466Z" fill="white"/>
<path d="M478.446 138.052L475.317 136.832L462.241 131.73C461.327 131.372 460.345 131.225 459.366 131.298C458.388 131.372 457.439 131.664 456.589 132.154C455.739 132.644 455.01 133.319 454.457 134.129C453.904 134.939 453.54 135.863 453.393 136.832C453.328 137.235 453.303 137.644 453.318 138.052C453.317 138.095 453.319 138.138 453.325 138.18H478.777L478.446 138.052Z" fill="white"/>
<path d="M505.455 138.052L502.326 136.832H453.392C453.328 137.235 453.303 137.644 453.318 138.052H446.629L446.71 138.18H505.779L505.455 138.052ZM505.455 138.052H446.628L446.709 138.18H505.779L505.455 138.052ZM505.455 138.052H446.628L446.709 138.18H505.779L505.455 138.052ZM505.779 138.18L505.455 138.052H446.628L446.709 138.18H505.779ZM387.755 273.153C385.62 273.15 383.574 272.301 382.064 270.792C380.555 269.284 379.706 267.239 379.702 265.105V109.157C379.704 107.022 380.553 104.976 382.062 103.466C383.572 101.956 385.619 101.106 387.755 101.102H400.305V99.7542H387.755C385.262 99.7589 382.872 100.751 381.11 102.514C379.348 104.276 378.357 106.665 378.354 109.157V265.105C378.356 266.908 378.876 268.672 379.853 270.187C380.83 271.702 382.222 272.905 383.863 273.652H502.677C502.569 273.49 502.461 273.322 502.353 273.153H387.755ZM584.433 139.771C583.557 138.842 582.5 138.102 581.328 137.597C580.155 137.092 578.892 136.831 577.615 136.832H447.458L440.175 125.253L439.999 124.969L433.822 115.149L426.903 104.149C426.055 102.805 424.88 101.698 423.489 100.929C422.098 100.161 420.535 99.7567 418.945 99.7542H387.755C385.262 99.7589 382.872 100.751 381.11 102.514C379.348 104.276 378.357 106.665 378.354 109.157V265.105C378.356 266.908 378.876 268.672 379.853 270.187C380.83 271.702 382.222 272.905 383.863 273.652C385.084 274.213 386.411 274.503 387.755 274.501H577.615C578.96 274.503 580.29 274.213 581.513 273.652C583.154 272.905 584.546 271.702 585.523 270.187C586.5 268.672 587.021 266.908 587.023 265.105V146.235C587.024 143.827 586.097 141.512 584.433 139.771V139.771ZM585.674 265.105C585.67 267.24 584.82 269.286 583.309 270.794C581.798 272.303 579.751 273.151 577.615 273.153H387.755C385.62 273.15 383.574 272.301 382.064 270.792C380.555 269.284 379.706 267.239 379.702 265.105V109.157C379.704 107.022 380.553 104.976 382.062 103.466C383.572 101.956 385.619 101.106 387.755 101.102H418.945C420.308 101.099 421.65 101.443 422.843 102.102C424.036 102.761 425.041 103.714 425.763 104.87L432.224 115.149L438.401 124.969L439.561 126.816L446.629 138.052L446.71 138.18H577.615C579.752 138.182 581.8 139.031 583.311 140.541C584.822 142.051 585.672 144.099 585.674 146.235V265.105ZM505.455 138.052H446.629L446.71 138.18H505.779L505.455 138.052ZM505.455 138.052H446.629L446.71 138.18H505.779L505.455 138.052ZM505.455 138.052H446.629L446.71 138.18H505.779L505.455 138.052ZM505.455 138.052L502.326 136.832H447.458L440.175 125.253L439.561 126.816L446.629 138.052L446.71 138.18H505.779L505.455 138.052Z" fill="#3F3D56" fill-opacity="0.75"/>
<path d="M350.83 193.963L346.967 202.035L313.978 190.986L319.679 179.072L350.83 193.963Z" fill="#FFB8B8"/>
<path d="M341.542 207.447L349.35 191.131L359.157 195.819L347.017 221.187L346.267 220.829C343.865 219.681 342.018 217.626 341.132 215.116C340.246 212.607 340.393 209.848 341.542 207.447V207.447Z" fill="#2F2E41"/>
<path d="M358.607 266.047L349.66 265.745L349.283 230.935L359.771 231.554L358.607 266.047Z" fill="#FFB8B8"/>
<path d="M342.524 262.946L360.61 263.556L360.244 274.415L332.123 273.466L332.152 272.636C332.241 269.976 333.385 267.461 335.33 265.644C337.275 263.827 339.863 262.856 342.524 262.946Z" fill="#2F2E41"/>
<path d="M373.015 120.366C373.015 120.366 345.632 113.433 333.218 123.65L326.281 143.721L298.532 183.131L338.695 207.216L345.997 188.97L328.472 180.212L349.648 161.966L345.997 258.304L359.871 260.494C359.871 260.494 390.541 141.531 373.015 120.366Z" fill="#2F2E41"/>
<path d="M331.471 126.619L331.804 126.026C335.323 119.774 334.753 109.595 333.655 102.156C332.736 95.9252 332.763 84.945 332.948 76.8306C332.994 74.0918 333.971 71.45 335.719 69.3403C337.467 67.2306 339.882 65.7785 342.566 65.2232C350.896 63.4906 361.123 63.1235 366.478 63.0586L366.483 63.4235L366.478 63.0586C367.933 63.0528 369.332 63.6172 370.376 64.6307C371.419 65.6441 372.023 67.0259 372.059 68.4796C372.222 77.2177 372.171 93.152 370.002 101.701C366.782 114.39 371.817 123.012 371.868 123.098L372.172 123.605L331.471 126.619Z" fill="#646536" fill-opacity="0.95"/>
<path d="M317.385 161.612C318.276 161.186 319.063 160.569 319.69 159.805C320.317 159.042 320.769 158.15 321.014 157.193C321.259 156.236 321.291 155.237 321.108 154.267C320.925 153.296 320.531 152.377 319.955 151.575L335.409 84.9692H323.725L310.086 150.262C308.802 151.32 307.951 152.812 307.694 154.455C307.437 156.098 307.792 157.778 308.691 159.177C309.591 160.576 310.973 161.597 312.575 162.046C314.177 162.495 315.889 162.34 317.385 161.612Z" fill="#FFB8B8"/>
<path d="M411.352 96.0494L385.562 71.6664L378.592 81.4196L396.017 96.746L373.164 114.884C372.999 114.873 372.835 114.859 372.667 114.859C371.261 114.858 369.884 115.261 368.701 116.022C367.518 116.782 366.579 117.867 365.997 119.146C365.415 120.426 365.214 121.845 365.418 123.236C365.623 124.627 366.223 125.929 367.149 126.987C368.074 128.046 369.285 128.815 370.636 129.204C371.988 129.592 373.423 129.584 374.769 129.178C376.116 128.773 377.317 127.989 378.23 126.919C379.142 125.85 379.726 124.54 379.914 123.147L379.986 123.219L411.352 96.0494Z" fill="#FFB8B8"/>
<path d="M340.926 66.0793C340.926 66.0793 324.82 63.4392 323.36 75.8463C321.899 88.2534 321.169 88.2534 321.169 88.2534C321.169 88.2534 332.853 86.064 335.774 88.9833C338.695 91.9026 340.926 66.0793 340.926 66.0793Z" fill="#646536" fill-opacity="0.75"/>
<path d="M364.983 64.1691C364.983 64.1691 378.127 61.9796 383.969 67.8182C389.811 73.6569 392.731 75.1165 392.731 75.1165C392.731 75.1165 379.587 82.4148 384.699 88.9833C384.699 88.9833 370.825 82.4148 368.634 84.6043C366.443 86.7938 364.983 64.1691 364.983 64.1691Z" fill="#646536" fill-opacity="0.75"/>
<path d="M353.454 21.7968C349.308 18.4873 348.219 12.1001 350.624 7.37318C353.03 2.64628 358.469 -0.20154 363.77 0.0111341C369.072 0.223808 374.068 3.26605 377.14 7.5904C381.454 13.6649 382.36 22.1077 388.097 26.8634C393.279 31.1587 400.702 31.0357 407.426 30.694C409.692 30.5788 412.032 30.4453 414.066 29.4388C416.099 28.4324 417.761 26.3098 417.499 24.0569C419.188 26.7293 418.208 30.4762 415.942 32.6813C413.676 34.8863 410.449 35.8101 407.308 36.1779C401.766 36.7601 396.168 35.8894 391.065 33.6518C385.963 31.4141 381.531 27.8866 378.207 23.4167C375.868 20.1912 374.062 16.4352 370.852 14.0737C367.642 11.7122 362.29 11.5478 360.319 15.0106C359.344 16.7233 359.44 18.8716 358.544 20.6265C357.647 22.3814 354.737 23.3276 353.874 21.5562" fill="#2F2E41"/>
<path d="M352.82 56.9924C363.994 56.9924 373.052 47.9393 373.052 36.7717C373.052 25.6041 363.994 16.551 352.82 16.551C341.647 16.551 332.589 25.6041 332.589 36.7717C332.589 47.9393 341.647 56.9924 352.82 56.9924Z" fill="#2F2E41"/>
<path d="M352.698 58.5753C361.846 58.5753 369.262 51.1635 369.262 42.0206C369.262 32.8777 361.846 25.4659 352.698 25.4659C343.55 25.4659 336.135 32.8777 336.135 42.0206C336.135 51.1635 343.55 58.5753 352.698 58.5753Z" fill="#FFB8B8"/>
<path d="M337.595 29.8621C339.846 30.3543 339.11 34.1285 340.889 35.5924C342.493 36.913 344.804 35.5549 346.824 35.0633C349.373 34.4426 352.042 35.3519 354.396 36.5111C356.75 37.6703 359.02 39.1089 361.588 39.649C364.156 40.189 367.201 39.5803 368.64 37.3873C370.017 35.2905 369.51 32.4629 368.433 30.1977C367.094 27.3813 364.993 24.996 362.367 23.3119C359.742 21.6278 356.696 20.7124 353.577 20.6691C350.457 20.6259 347.388 21.4567 344.717 23.0674C342.045 24.6782 339.879 27.0044 338.462 29.7826" fill="#2F2E41"/>
<path d="M727.862 274.326C727.861 274.505 727.79 274.676 727.664 274.802C727.537 274.928 727.366 274.999 727.187 275H245.674C245.496 275 245.324 274.929 245.198 274.803C245.071 274.676 245 274.505 245 274.326C245 274.147 245.071 273.976 245.198 273.849C245.324 273.723 245.496 273.652 245.674 273.652H727.187C727.366 273.652 727.537 273.724 727.664 273.85C727.79 273.976 727.861 274.147 727.862 274.326V274.326Z" fill="#3F3D56" fill-opacity="0.75"/>
</g>
<defs>
<clipPath id="clip0">
<rect width="524" height="275" fill="white" transform="translate(245)"/>
</clipPath>
</defs>
</svg>
