<svg width="656" height="507" viewBox="0 0 656 507" fill="none" xmlns="http://www.w3.org/2000/svg">
<path d="M306.592 238.81H8.98806C6.60509 238.807 4.32046 237.714 2.63545 235.772C0.950436 233.829 0.00266074 231.195 6.10352e-05 228.448V10.362C0.00267183 7.6148 0.95045 4.98094 2.63546 3.03834C4.32047 1.09573 6.6051 0.00305825 8.98806 4.57764e-05H306.592C308.975 0.00304803 311.26 1.09573 312.945 3.03834C314.63 4.98095 315.578 7.61483 315.58 10.3621V228.448C315.578 231.195 314.63 233.829 312.945 235.772C311.26 237.714 308.975 238.807 306.592 238.81ZM8.98806 2.30267C7.1347 2.30526 5.3579 3.15521 4.04738 4.66608C2.73685 6.17694 1.99962 8.22537 1.99737 10.362V228.448C1.99962 230.585 2.73684 232.633 4.04736 234.144C5.35789 235.655 7.1347 236.505 8.98806 236.507H306.592C308.445 236.505 310.222 235.655 311.533 234.144C312.843 232.633 313.581 230.585 313.583 228.448V10.362C313.581 8.22536 312.843 6.17694 311.533 4.66608C310.222 3.15521 308.445 2.30526 306.592 2.30267H8.98806Z" fill="#3F3D56"/>
<path d="M182.016 203.006C212.588 203.006 237.372 174.434 237.372 139.188C237.372 103.943 212.588 75.3709 182.016 75.3709C151.445 75.3709 126.661 103.943 126.661 139.188C126.661 174.434 151.445 203.006 182.016 203.006Z" fill="#CCCCCC"/>
<path d="M608.378 505.611C610.469 479.645 616.245 454.252 625.475 430.445C628.048 423.819 630.879 417.34 633.97 411.006C634.764 409.377 632.591 407.913 631.797 409.542C620.558 432.611 612.685 457.652 608.492 483.664C607.325 490.929 606.449 498.244 605.862 505.611C605.713 507.469 608.23 507.457 608.378 505.611H608.378Z" fill="#E6E6E6"/>
<path d="M640.064 415.659C648.865 415.659 656 407.433 656 397.286C656 387.14 648.865 378.914 640.064 378.914C631.263 378.914 624.128 387.14 624.128 397.286C624.128 407.433 631.263 415.659 640.064 415.659Z" fill="#EEECBD" fill-opacity="0.75"/>
<path d="M610.008 506.099C611.365 489.254 615.112 472.78 621.1 457.335C622.769 453.037 624.606 448.833 626.611 444.724C626.711 444.509 626.735 444.258 626.678 444.023C626.621 443.788 626.487 443.588 626.304 443.464C626.121 443.341 625.904 443.305 625.698 443.362C625.492 443.42 625.314 443.568 625.201 443.775C617.91 458.74 612.802 474.986 610.082 491.861C609.325 496.574 608.756 501.32 608.376 506.099C608.279 507.304 609.912 507.297 610.008 506.099Z" fill="#E6E6E6"/>
<path d="M630.564 447.743C636.274 447.743 640.903 442.406 640.903 435.824C640.903 429.241 636.274 423.905 630.564 423.905C624.855 423.905 620.226 429.241 620.226 435.824C620.226 442.406 624.855 447.743 630.564 447.743Z" fill="#EEECBD" fill-opacity="0.75"/>
<path d="M607.948 504.974C600.031 490.73 594.196 475.083 590.678 458.659C589.701 454.087 588.907 449.47 588.295 444.809C588.26 444.568 588.145 444.352 587.974 444.208C587.804 444.063 587.591 444 587.381 444.033C587.171 444.065 586.981 444.19 586.849 444.382C586.718 444.573 586.656 444.816 586.677 445.059C588.913 462.029 593.552 478.46 600.41 493.695C602.328 497.948 604.411 502.093 606.661 506.131C607.228 507.15 608.511 505.986 607.948 504.974V504.974Z" fill="#E6E6E6"/>
<path d="M586.664 446.906C592.374 446.906 597.003 441.57 597.003 434.987C597.003 428.404 592.374 423.068 586.664 423.068C580.954 423.068 576.326 428.404 576.326 434.987C576.326 441.57 580.954 446.906 586.664 446.906Z" fill="#EEECBD" fill-opacity="0.75"/>
<path d="M525.241 333.108C525.92 331.921 526.365 330.577 526.545 329.171C526.725 327.765 526.635 326.33 526.281 324.968C525.928 323.606 525.32 322.35 524.5 321.288C523.68 320.227 522.668 319.385 521.536 318.823L523.709 284.36L510.119 293.132L510.139 324.514C509.446 326.77 509.495 329.241 510.276 331.458C511.058 333.675 512.518 335.485 514.379 336.544C516.241 337.603 518.375 337.839 520.377 337.205C522.379 336.572 524.109 335.114 525.241 333.108Z" fill="#FFB8B8"/>
<path d="M521.86 199.14L525.576 308.81L510.479 307.843L507.124 192.775L510.308 191.048C511.519 190.391 512.853 190.09 514.19 190.172C515.527 190.253 516.825 190.716 517.969 191.517C519.113 192.318 520.067 193.434 520.746 194.764C521.425 196.094 521.808 197.598 521.86 199.14Z" fill="#BCC4DB" fill-opacity="0.75"/>
<path d="M475.17 495.276H464.888L459.995 449.55H475.171L475.17 495.276Z" fill="#FFB8B8"/>
<path d="M457.542 491.888H477.373V506.283H445.056C445.056 504.393 445.379 502.521 446.007 500.774C446.634 499.028 447.554 497.441 448.713 496.104C449.873 494.768 451.249 493.707 452.764 492.984C454.279 492.26 455.903 491.888 457.542 491.888Z" fill="#2F2E41"/>
<path d="M560.724 481.109L551.393 486.089L530.289 446.965L544.062 439.614L560.724 481.109Z" fill="#FFB8B8"/>
<path d="M543.493 486.572L561.489 476.967L566.735 490.031L537.408 505.683C536.719 503.967 536.33 502.112 536.263 500.223C536.196 498.334 536.452 496.449 537.017 494.674C537.582 492.9 538.445 491.271 539.556 489.881C540.667 488.491 542.005 487.366 543.493 486.572Z" fill="#2F2E41"/>
<path d="M450.754 346.048L461.359 485.569L475.618 483.635L486.156 356.191L544.394 477.834L559.491 472.999C559.491 472.999 510.898 305.426 507.124 291.405C502.987 276.035 470.22 270.132 470.22 270.132L468.962 268.681C454.882 290.532 449.242 318.884 450.754 346.048Z" fill="#2F2E41"/>
<path d="M507.249 178.944C518.627 178.944 527.85 168.311 527.85 155.194C527.85 142.078 518.627 131.445 507.249 131.445C495.872 131.445 486.649 142.078 486.649 155.194C486.649 168.311 495.872 178.944 507.249 178.944Z" fill="#FFB8B8"/>
<path d="M521.748 191.615L505.866 287.054C505.866 287.054 484.109 282.045 476.359 276.011C473.29 273.613 470.505 271.138 468.156 268.894C465.515 266.393 462.984 263.74 460.574 260.946C460.574 260.946 466.144 229.413 468.131 220.972C470.439 211.194 478.358 199.804 484.526 192.043C486.762 189.231 489.619 187.174 492.792 186.091C495.965 185.008 499.333 184.941 502.537 185.897L521.748 191.615Z" fill="#BCC4DB" fill-opacity="0.9"/>
<path opacity="0.2" d="M476.359 276.011C473.29 273.613 470.505 271.138 468.156 268.894C469.003 254.448 487.464 224.201 494.946 224.201C494.946 224.201 496.715 270.818 476.359 276.011Z" fill="black"/>
<path d="M438.361 313.952C439.52 313.467 440.573 312.695 441.446 311.691C442.318 310.686 442.989 309.474 443.411 308.138C443.833 306.802 443.996 305.376 443.888 303.96C443.78 302.544 443.404 301.173 442.787 299.942L462.379 273.792L446.934 271.475L430.697 296.662C428.973 297.995 427.732 300.01 427.211 302.327C426.69 304.644 426.923 307.1 427.868 309.231C428.813 311.362 430.403 313.02 432.337 313.89C434.27 314.76 436.414 314.782 438.361 313.952Z" fill="#FFB8B8"/>
<path d="M493.136 186.998C492.282 187.018 491.433 187.13 490.598 187.333C488.907 187.778 487.338 188.701 486.033 190.017C484.727 191.333 483.726 193.002 483.118 194.875L458.897 253.21L432.896 285.12L445.896 297.207L486.994 254.66L503.414 203.14C503.938 201.279 504.071 199.301 503.801 197.37C503.531 195.439 502.867 193.609 501.863 192.032C500.859 190.455 499.544 189.176 498.026 188.301C496.509 187.425 494.832 186.979 493.136 186.998Z" fill="#BCC4DB" fill-opacity="0.75"/>
<path d="M508.469 178.725C511.401 173.666 513.714 166.65 510.486 161.836C507.3 157.085 501.015 157.785 496.135 155.682C489.338 152.753 485.396 143.547 486.625 135.303C487.855 127.058 493.595 120.224 500.434 117.427C507.273 114.631 514.985 115.54 521.682 118.761C529.926 122.725 536.998 130.393 539.964 140.107C542.93 149.821 541.344 161.485 535.192 168.951C528.597 176.956 518.245 179.089 508.669 178.96" fill="#2F2E41"/>
<path d="M540.818 150.722C541.657 156.129 546.801 159.199 551.529 159.874C556.257 160.549 561.147 159.683 565.75 161.101C573.864 163.6 579.216 172.596 582.161 181.664C585.107 190.731 586.413 200.518 590.241 209.137C594.068 217.755 601.489 225.354 609.858 224.548C608.218 229.307 605.345 233.366 601.63 236.173C597.915 238.98 593.54 240.397 589.1 240.231C584.661 240.065 580.374 238.324 576.825 235.246C573.276 232.168 570.637 227.902 569.268 223.03C566.193 212.087 569.723 199.037 564.346 189.348C561.37 183.986 556.233 180.832 551.279 178.022C546.325 175.212 541.125 172.327 537.804 167.243C534.482 162.158 533.819 154.128 537.912 149.856" fill="#2F2E41"/>
<path d="M641.133 506.792H372.491C372.36 506.792 372.229 506.763 372.108 506.705C371.986 506.647 371.876 506.563 371.783 506.456C371.69 506.349 371.616 506.222 371.566 506.082C371.515 505.942 371.489 505.792 371.489 505.64C371.489 505.489 371.515 505.339 371.566 505.199C371.616 505.059 371.69 504.932 371.783 504.825C371.876 504.718 371.986 504.633 372.108 504.576C372.229 504.518 372.36 504.489 372.491 504.489H641.133C641.265 504.489 641.395 504.518 641.516 504.576C641.638 504.633 641.748 504.718 641.841 504.825C641.934 504.932 642.008 505.059 642.059 505.199C642.109 505.339 642.135 505.489 642.135 505.64C642.135 505.792 642.109 505.942 642.059 506.082C642.008 506.222 641.934 506.349 641.841 506.456C641.748 506.563 641.638 506.647 641.516 506.705C641.395 506.763 641.265 506.792 641.133 506.792Z" fill="#3F3D56"/>
<path d="M165.276 215.778C154.162 215.778 143.297 211.979 134.056 204.86C124.815 197.742 117.613 187.624 113.36 175.786C109.106 163.948 107.994 150.922 110.162 138.355C112.33 125.788 117.682 114.245 125.541 105.185C133.4 96.1243 143.413 89.9542 154.313 87.4544C165.214 84.9547 176.512 86.2376 186.781 91.141C197.049 96.0443 205.825 104.348 212 115.002C218.174 125.655 221.47 138.181 221.47 150.994C221.453 168.17 215.527 184.637 204.993 196.782C194.458 208.927 180.174 215.759 165.276 215.778ZM165.276 88.1435C154.494 88.1436 143.953 91.8297 134.988 98.7358C126.023 105.642 119.036 115.458 114.909 126.942C110.783 138.427 109.704 151.064 111.807 163.256C113.911 175.448 119.103 186.646 126.727 195.436C134.352 204.226 144.066 210.212 154.641 212.637C165.216 215.062 176.177 213.817 186.139 209.06C196.1 204.303 204.615 196.247 210.605 185.912C216.595 175.576 219.793 163.424 219.793 150.994C219.776 134.331 214.027 118.355 203.807 106.573C193.587 94.79 179.73 88.1623 165.276 88.1435Z" fill="#3F3D56"/>
<path d="M129.982 35.8044L78.2081 139.188H181.757L129.982 35.8044L78.2081 139.188H181.757L129.982 35.8044Z" fill="#646536" fill-opacity="0.75"/>
<path d="M57.2696 308.384C56.9258 312.024 55.5821 314.868 53.2383 316.915C50.8946 318.946 47.7774 319.962 43.8868 319.962C41.168 319.962 38.7696 319.321 36.6915 318.04C34.629 316.743 33.0352 314.907 31.9102 312.532C30.7852 310.157 30.1993 307.399 30.1524 304.259V301.071C30.1524 297.853 30.7227 295.017 31.8633 292.563C33.004 290.11 34.6368 288.22 36.7618 286.892C38.9024 285.563 41.3712 284.899 44.168 284.899C47.9337 284.899 50.9649 285.923 53.2618 287.97C55.5587 290.017 56.8946 292.907 57.2696 296.642H51.3633C51.0821 294.188 50.3633 292.423 49.2071 291.345C48.0665 290.251 46.3868 289.704 44.168 289.704C41.5899 289.704 39.6055 290.649 38.2149 292.54C36.8399 294.415 36.1368 297.173 36.1055 300.813V303.837C36.1055 307.524 36.7618 310.337 38.0743 312.274C39.4024 314.212 41.3399 315.181 43.8868 315.181C46.2149 315.181 47.9649 314.657 49.1368 313.61C50.3087 312.563 51.0508 310.821 51.3633 308.384H57.2696ZM67.6524 296.899C69.5118 294.743 71.8633 293.665 74.7071 293.665C80.1133 293.665 82.8555 296.751 82.9337 302.923V319.493H77.2383V303.134C77.2383 301.384 76.8555 300.149 76.0899 299.431C75.3399 298.696 74.2305 298.329 72.7618 298.329C70.4805 298.329 68.7774 299.345 67.6524 301.376V319.493H61.9571V283.493H67.6524V296.899ZM103.863 319.493C103.613 319.009 103.395 318.22 103.207 317.126C101.395 319.017 99.1758 319.962 96.5508 319.962C94.004 319.962 91.9258 319.235 90.3165 317.782C88.7071 316.329 87.9024 314.532 87.9024 312.392C87.9024 309.688 88.9024 307.618 90.9024 306.181C92.918 304.728 95.793 304.001 99.5274 304.001H103.02V302.337C103.02 301.024 102.652 299.978 101.918 299.196C101.184 298.399 100.066 298.001 98.5665 298.001C97.2696 298.001 96.2071 298.329 95.379 298.985C94.5508 299.626 94.1368 300.446 94.1368 301.446H88.4415C88.4415 300.056 88.9024 298.759 89.8243 297.556C90.7462 296.337 91.9962 295.384 93.5743 294.696C95.168 294.009 96.9415 293.665 98.8946 293.665C101.863 293.665 104.231 294.415 105.996 295.915C107.762 297.399 108.668 299.493 108.715 302.196V313.634C108.715 315.915 109.035 317.735 109.676 319.095V319.493H103.863ZM97.6055 315.392C98.7305 315.392 99.7852 315.118 100.77 314.571C101.77 314.024 102.52 313.29 103.02 312.368V307.587H99.9493C97.8399 307.587 96.254 307.954 95.1915 308.688C94.129 309.423 93.5977 310.462 93.5977 311.806C93.5977 312.899 93.9571 313.774 94.6758 314.431C95.4102 315.071 96.3868 315.392 97.6055 315.392ZM119.965 294.134L120.129 297.063C122.004 294.798 124.465 293.665 127.512 293.665C132.793 293.665 135.481 296.688 135.574 302.735V319.493H129.879V303.063C129.879 301.454 129.527 300.267 128.824 299.501C128.137 298.72 127.004 298.329 125.426 298.329C123.129 298.329 121.418 299.368 120.293 301.446V319.493H114.598V294.134H119.965ZM140.402 306.626C140.402 302.688 141.324 299.548 143.168 297.204C145.027 294.845 147.488 293.665 150.551 293.665C153.441 293.665 155.715 294.673 157.371 296.688L157.629 294.134H162.762V318.72C162.762 322.048 161.723 324.673 159.645 326.595C157.582 328.517 154.793 329.478 151.277 329.478C149.418 329.478 147.598 329.087 145.816 328.306C144.051 327.54 142.707 326.532 141.785 325.282L144.481 321.86C146.231 323.938 148.387 324.978 150.949 324.978C152.84 324.978 154.332 324.462 155.426 323.431C156.52 322.415 157.066 320.915 157.066 318.931V317.22C155.426 319.048 153.238 319.962 150.504 319.962C147.535 319.962 145.106 318.782 143.215 316.423C141.34 314.063 140.402 310.798 140.402 306.626ZM146.074 307.118C146.074 309.665 146.59 311.673 147.621 313.142C148.668 314.595 150.113 315.321 151.957 315.321C154.254 315.321 155.957 314.337 157.066 312.368V301.212C155.988 299.29 154.301 298.329 152.004 298.329C150.129 298.329 148.668 299.071 147.621 300.556C146.59 302.04 146.074 304.228 146.074 307.118ZM179.801 319.962C176.191 319.962 173.262 318.829 171.012 316.563C168.777 314.282 167.66 311.251 167.66 307.47V306.767C167.66 304.235 168.145 301.978 169.113 299.993C170.098 297.993 171.473 296.438 173.238 295.329C175.004 294.22 176.973 293.665 179.145 293.665C182.598 293.665 185.262 294.767 187.137 296.97C189.027 299.173 189.973 302.29 189.973 306.321V308.618H173.402C173.574 310.712 174.27 312.368 175.488 313.587C176.723 314.806 178.27 315.415 180.129 315.415C182.738 315.415 184.863 314.36 186.504 312.251L189.574 315.181C188.559 316.696 187.199 317.876 185.496 318.72C183.809 319.548 181.91 319.962 179.801 319.962ZM179.121 298.235C177.559 298.235 176.293 298.782 175.324 299.876C174.371 300.97 173.762 302.493 173.496 304.446H184.348V304.024C184.223 302.118 183.715 300.681 182.824 299.712C181.934 298.728 180.699 298.235 179.121 298.235ZM222.059 319.493H216.152V304.329H200.895V319.493H194.965V285.368H200.895V299.571H216.152V285.368H222.059V319.493ZM243.902 317.009C242.231 318.978 239.856 319.962 236.777 319.962C234.027 319.962 231.941 319.157 230.52 317.548C229.113 315.938 228.41 313.61 228.41 310.563V294.134H234.106V310.493C234.106 313.712 235.441 315.321 238.113 315.321C240.879 315.321 242.746 314.329 243.715 312.345V294.134H249.41V319.493H244.043L243.902 317.009ZM277.465 307.071C277.465 311.009 276.582 314.142 274.816 316.47C273.066 318.798 270.652 319.962 267.574 319.962C264.606 319.962 262.293 318.892 260.637 316.751L260.356 319.493H255.199V283.493H260.895V296.571C262.535 294.634 264.746 293.665 267.527 293.665C270.621 293.665 273.051 294.813 274.816 297.11C276.582 299.407 277.465 302.618 277.465 306.743V307.071ZM271.77 306.579C271.77 303.829 271.285 301.767 270.316 300.392C269.348 299.017 267.941 298.329 266.098 298.329C263.629 298.329 261.895 299.407 260.895 301.563V312.017C261.91 314.22 263.66 315.321 266.145 315.321C267.926 315.321 269.301 314.657 270.27 313.329C271.238 312.001 271.738 309.993 271.77 307.306V306.579Z" fill="#333333"/>
</svg>
