<svg width="646" height="638" viewBox="0 0 646 638" fill="none" xmlns="http://www.w3.org/2000/svg">
<path d="M20.0156 88.7891C16.1562 87.6797 13.3438 86.3203 11.5781 84.7109C9.82812 83.0859 8.95312 81.0859 8.95312 78.7109C8.95312 76.0234 10.0234 73.8047 12.1641 72.0547C14.3203 70.2891 17.1172 69.4062 20.5547 69.4062C22.8984 69.4062 24.9844 69.8594 26.8125 70.7656C28.6562 71.6719 30.0781 72.9219 31.0781 74.5156C32.0938 76.1094 32.6016 77.8516 32.6016 79.7422H28.0781C28.0781 77.6797 27.4219 76.0625 26.1094 74.8906C24.7969 73.7031 22.9453 73.1094 20.5547 73.1094C18.3359 73.1094 16.6016 73.6016 15.3516 74.5859C14.1172 75.5547 13.5 76.9062 13.5 78.6406C13.5 80.0312 14.0859 81.2109 15.2578 82.1797C16.4453 83.1328 18.4531 84.0078 21.2812 84.8047C24.125 85.6016 26.3438 86.4844 27.9375 87.4531C29.5469 88.4062 30.7344 89.5234 31.5 90.8047C32.2812 92.0859 32.6719 93.5938 32.6719 95.3281C32.6719 98.0938 31.5938 100.312 29.4375 101.984C27.2812 103.641 24.3984 104.469 20.7891 104.469C18.4453 104.469 16.2578 104.023 14.2266 103.133C12.1953 102.227 10.625 100.992 9.51562 99.4297C8.42188 97.8672 7.875 96.0938 7.875 94.1094H12.3984C12.3984 96.1719 13.1562 97.8047 14.6719 99.0078C16.2031 100.195 18.2422 100.789 20.7891 100.789C23.1641 100.789 24.9844 100.305 26.25 99.3359C27.5156 98.3672 28.1484 97.0469 28.1484 95.375C28.1484 93.7031 27.5625 92.4141 26.3906 91.5078C25.2188 90.5859 23.0938 89.6797 20.0156 88.7891ZM44.8922 104H40.5562V78.6406H44.8922V104ZM40.2047 71.9141C40.2047 71.2109 40.4156 70.6172 40.8375 70.1328C41.275 69.6484 41.9156 69.4062 42.7594 69.4062C43.6031 69.4062 44.2437 69.6484 44.6812 70.1328C45.1187 70.6172 45.3375 71.2109 45.3375 71.9141C45.3375 72.6172 45.1187 73.2031 44.6812 73.6719C44.2437 74.1406 43.6031 74.375 42.7594 74.375C41.9156 74.375 41.275 74.1406 40.8375 73.6719C40.4156 73.2031 40.2047 72.6172 40.2047 71.9141ZM53.2219 91.1094C53.2219 87.1562 54.1359 84.0156 55.9641 81.6875C57.7922 79.3438 60.2141 78.1719 63.2297 78.1719C66.3234 78.1719 68.7375 79.2656 70.4719 81.4531L70.6828 78.6406H74.6437V103.391C74.6437 106.672 73.6672 109.258 71.7141 111.148C69.7766 113.039 67.1672 113.984 63.8859 113.984C62.0578 113.984 60.2687 113.594 58.5187 112.812C56.7687 112.031 55.4328 110.961 54.5109 109.602L56.7609 107C58.6203 109.297 60.8937 110.445 63.5812 110.445C65.6906 110.445 67.3312 109.852 68.5031 108.664C69.6906 107.477 70.2844 105.805 70.2844 103.648V101.469C68.55 103.469 66.1828 104.469 63.1828 104.469C60.2141 104.469 57.8078 103.273 55.9641 100.883C54.1359 98.4922 53.2219 95.2344 53.2219 91.1094ZM57.5812 91.6016C57.5812 94.4609 58.1672 96.7109 59.3391 98.3516C60.5109 99.9766 62.1516 100.789 64.2609 100.789C66.9953 100.789 69.0031 99.5469 70.2844 97.0625V85.4844C68.9562 83.0625 66.9641 81.8516 64.3078 81.8516C62.1984 81.8516 60.55 82.6719 59.3625 84.3125C58.175 85.9531 57.5812 88.3828 57.5812 91.6016ZM87.7078 78.6406L87.8484 81.8281C89.7859 79.3906 92.3172 78.1719 95.4422 78.1719C100.802 78.1719 103.505 81.1953 103.552 87.2422V104H99.2156V87.2188C99.2 85.3906 98.7781 84.0391 97.95 83.1641C97.1375 82.2891 95.8641 81.8516 94.1297 81.8516C92.7234 81.8516 91.4891 82.2266 90.4266 82.9766C89.3641 83.7266 88.5359 84.7109 87.9422 85.9297V104H83.6062V78.6406H87.7078ZM148.219 91.6016C148.219 95.4609 147.336 98.5703 145.57 100.93C143.805 103.289 141.414 104.469 138.398 104.469C135.32 104.469 132.898 103.492 131.133 101.539V113.75H126.797V78.6406H130.758L130.969 81.4531C132.734 79.2656 135.188 78.1719 138.328 78.1719C141.375 78.1719 143.781 79.3203 145.547 81.6172C147.328 83.9141 148.219 87.1094 148.219 91.2031V91.6016ZM143.883 91.1094C143.883 88.25 143.273 85.9922 142.055 84.3359C140.836 82.6797 139.164 81.8516 137.039 81.8516C134.414 81.8516 132.445 83.0156 131.133 85.3438V97.4609C132.43 99.7734 134.414 100.93 137.086 100.93C139.164 100.93 140.812 100.109 142.031 98.4688C143.266 96.8125 143.883 94.3594 143.883 91.1094ZM166.673 104.469C163.236 104.469 160.439 103.344 158.283 101.094C156.127 98.8281 155.048 95.8047 155.048 92.0234V91.2266C155.048 88.7109 155.525 86.4688 156.478 84.5C157.447 82.5156 158.791 80.9688 160.509 79.8594C162.244 78.7344 164.119 78.1719 166.134 78.1719C169.431 78.1719 171.994 79.2578 173.822 81.4297C175.65 83.6016 176.564 86.7109 176.564 90.7578V92.5625H159.384C159.447 95.0625 160.173 97.0859 161.564 98.6328C162.97 100.164 164.752 100.93 166.908 100.93C168.439 100.93 169.736 100.617 170.798 99.9922C171.861 99.3672 172.791 98.5391 173.587 97.5078L176.236 99.5703C174.111 102.836 170.923 104.469 166.673 104.469ZM166.134 81.7344C164.384 81.7344 162.916 82.375 161.728 83.6562C160.541 84.9219 159.806 86.7031 159.525 89H172.228V88.6719C172.103 86.4688 171.509 84.7656 170.447 83.5625C169.384 82.3438 167.947 81.7344 166.134 81.7344ZM189.886 72.5V78.6406H194.62V81.9922H189.886V97.7188C189.886 98.7344 190.097 99.5 190.519 100.016C190.941 100.516 191.659 100.766 192.675 100.766C193.175 100.766 193.863 100.672 194.738 100.484V104C193.597 104.312 192.488 104.469 191.409 104.469C189.472 104.469 188.011 103.883 187.027 102.711C186.042 101.539 185.55 99.875 185.55 97.7188V81.9922H180.933V78.6406H185.55V72.5H189.886ZM206.817 104H202.481V78.6406H206.817V104ZM202.13 71.9141C202.13 71.2109 202.341 70.6172 202.762 70.1328C203.2 69.6484 203.841 69.4062 204.684 69.4062C205.528 69.4062 206.169 69.6484 206.606 70.1328C207.044 70.6172 207.262 71.2109 207.262 71.9141C207.262 72.6172 207.044 73.2031 206.606 73.6719C206.169 74.1406 205.528 74.375 204.684 74.375C203.841 74.375 203.2 74.1406 202.762 73.6719C202.341 73.2031 202.13 72.6172 202.13 71.9141ZM222.061 72.5V78.6406H226.795V81.9922H222.061V97.7188C222.061 98.7344 222.272 99.5 222.694 100.016C223.116 100.516 223.834 100.766 224.85 100.766C225.35 100.766 226.038 100.672 226.913 100.484V104C225.772 104.312 224.663 104.469 223.584 104.469C221.647 104.469 220.186 103.883 219.202 102.711C218.217 101.539 217.725 99.875 217.725 97.7188V81.9922H213.108V78.6406H217.725V72.5H222.061ZM238.992 104H234.656V78.6406H238.992V104ZM234.305 71.9141C234.305 71.2109 234.516 70.6172 234.938 70.1328C235.375 69.6484 236.016 69.4062 236.859 69.4062C237.703 69.4062 238.344 69.6484 238.781 70.1328C239.219 70.6172 239.438 71.2109 239.438 71.9141C239.438 72.6172 239.219 73.2031 238.781 73.6719C238.344 74.1406 237.703 74.375 236.859 74.375C236.016 74.375 235.375 74.1406 234.938 73.6719C234.516 73.2031 234.305 72.6172 234.305 71.9141ZM247.205 91.0859C247.205 88.6016 247.689 86.3672 248.658 84.3828C249.642 82.3984 251.002 80.8672 252.736 79.7891C254.486 78.7109 256.478 78.1719 258.712 78.1719C262.166 78.1719 264.955 79.3672 267.08 81.7578C269.22 84.1484 270.291 87.3281 270.291 91.2969V91.6016C270.291 94.0703 269.814 96.2891 268.861 98.2578C267.923 100.211 266.572 101.734 264.806 102.828C263.056 103.922 261.041 104.469 258.759 104.469C255.322 104.469 252.533 103.273 250.392 100.883C248.267 98.4922 247.205 95.3281 247.205 91.3906V91.0859ZM251.564 91.6016C251.564 94.4141 252.212 96.6719 253.509 98.375C254.822 100.078 256.572 100.93 258.759 100.93C260.962 100.93 262.712 100.07 264.009 98.3516C265.306 96.6172 265.955 94.1953 265.955 91.0859C265.955 88.3047 265.291 86.0547 263.962 84.3359C262.65 82.6016 260.9 81.7344 258.712 81.7344C256.572 81.7344 254.845 82.5859 253.533 84.2891C252.22 85.9922 251.564 88.4297 251.564 91.6016ZM282.23 78.6406L282.37 81.8281C284.308 79.3906 286.839 78.1719 289.964 78.1719C295.323 78.1719 298.027 81.1953 298.073 87.2422V104H293.737V87.2188C293.722 85.3906 293.3 84.0391 292.472 83.1641C291.659 82.2891 290.386 81.8516 288.652 81.8516C287.245 81.8516 286.011 82.2266 284.948 82.9766C283.886 83.7266 283.058 84.7109 282.464 85.9297V104H278.128V78.6406H282.23ZM321.778 97.2734C321.778 96.1016 321.333 95.1953 320.442 94.5547C319.567 93.8984 318.028 93.3359 315.825 92.8672C313.638 92.3984 311.895 91.8359 310.598 91.1797C309.317 90.5234 308.364 89.7422 307.739 88.8359C307.13 87.9297 306.825 86.8516 306.825 85.6016C306.825 83.5234 307.7 81.7656 309.45 80.3281C311.216 78.8906 313.466 78.1719 316.2 78.1719C319.075 78.1719 321.403 78.9141 323.184 80.3984C324.981 81.8828 325.88 83.7812 325.88 86.0938H321.52C321.52 84.9062 321.013 83.8828 319.997 83.0234C318.997 82.1641 317.731 81.7344 316.2 81.7344C314.622 81.7344 313.388 82.0781 312.497 82.7656C311.606 83.4531 311.161 84.3516 311.161 85.4609C311.161 86.5078 311.575 87.2969 312.403 87.8281C313.231 88.3594 314.723 88.8672 316.88 89.3516C319.052 89.8359 320.809 90.4141 322.153 91.0859C323.497 91.7578 324.489 92.5703 325.13 93.5234C325.786 94.4609 326.114 95.6094 326.114 96.9688C326.114 99.2344 325.208 101.055 323.395 102.43C321.583 103.789 319.231 104.469 316.341 104.469C314.309 104.469 312.513 104.109 310.95 103.391C309.388 102.672 308.161 101.672 307.27 100.391C306.395 99.0938 305.958 97.6953 305.958 96.1953H310.294C310.372 97.6484 310.95 98.8047 312.028 99.6641C313.122 100.508 314.559 100.93 316.341 100.93C317.981 100.93 319.294 100.602 320.278 99.9453C321.278 99.2734 321.778 98.3828 321.778 97.2734ZM334.022 110.797L331.561 109.109C333.03 107.062 333.795 104.953 333.858 102.781V98.8672H338.1V102.266C338.1 103.844 337.709 105.422 336.928 107C336.163 108.578 335.194 109.844 334.022 110.797ZM370.814 104.469C367.377 104.469 364.58 103.344 362.423 101.094C360.267 98.8281 359.189 95.8047 359.189 92.0234V91.2266C359.189 88.7109 359.666 86.4688 360.619 84.5C361.587 82.5156 362.931 80.9688 364.65 79.8594C366.384 78.7344 368.259 78.1719 370.275 78.1719C373.572 78.1719 376.134 79.2578 377.962 81.4297C379.791 83.6016 380.705 86.7109 380.705 90.7578V92.5625H363.525C363.587 95.0625 364.314 97.0859 365.705 98.6328C367.111 100.164 368.892 100.93 371.048 100.93C372.58 100.93 373.877 100.617 374.939 99.9922C376.002 99.3672 376.931 98.5391 377.728 97.5078L380.377 99.5703C378.252 102.836 375.064 104.469 370.814 104.469ZM370.275 81.7344C368.525 81.7344 367.056 82.375 365.869 83.6562C364.681 84.9219 363.947 86.7031 363.666 89H376.369V88.6719C376.244 86.4688 375.65 84.7656 374.587 83.5625C373.525 82.3438 372.087 81.7344 370.275 81.7344ZM392.222 78.6406L392.339 81.4531C394.198 79.2656 396.706 78.1719 399.862 78.1719C403.409 78.1719 405.823 79.5312 407.105 82.25C407.948 81.0312 409.042 80.0469 410.386 79.2969C411.745 78.5469 413.347 78.1719 415.191 78.1719C420.753 78.1719 423.581 81.1172 423.675 87.0078V104H419.339V87.2656C419.339 85.4531 418.925 84.1016 418.097 83.2109C417.269 82.3047 415.878 81.8516 413.925 81.8516C412.316 81.8516 410.98 82.3359 409.917 83.3047C408.855 84.2578 408.237 85.5469 408.066 87.1719V104H403.706V87.3828C403.706 83.6953 401.902 81.8516 398.292 81.8516C395.448 81.8516 393.503 83.0625 392.456 85.4844V104H388.12V78.6406H392.222ZM448.294 104C448.044 103.5 447.841 102.609 447.684 101.328C445.669 103.422 443.263 104.469 440.466 104.469C437.966 104.469 435.911 103.766 434.302 102.359C432.708 100.938 431.911 99.1406 431.911 96.9688C431.911 94.3281 432.911 92.2812 434.911 90.8281C436.927 89.3594 439.755 88.625 443.395 88.625H447.614V86.6328C447.614 85.1172 447.161 83.9141 446.255 83.0234C445.348 82.1172 444.013 81.6641 442.247 81.6641C440.7 81.6641 439.403 82.0547 438.356 82.8359C437.309 83.6172 436.786 84.5625 436.786 85.6719H432.427C432.427 84.4062 432.872 83.1875 433.763 82.0156C434.669 80.8281 435.888 79.8906 437.419 79.2031C438.966 78.5156 440.661 78.1719 442.505 78.1719C445.427 78.1719 447.716 78.9062 449.372 80.375C451.028 81.8281 451.888 83.8359 451.95 86.3984V98.0703C451.95 100.398 452.247 102.25 452.841 103.625V104H448.294ZM441.098 100.695C442.458 100.695 443.747 100.344 444.966 99.6406C446.184 98.9375 447.067 98.0234 447.614 96.8984V91.6953H444.216C438.903 91.6953 436.247 93.25 436.247 96.3594C436.247 97.7188 436.7 98.7812 437.606 99.5469C438.513 100.312 439.677 100.695 441.098 100.695ZM465.858 104H461.522V78.6406H465.858V104ZM461.17 71.9141C461.17 71.2109 461.381 70.6172 461.803 70.1328C462.241 69.6484 462.881 69.4062 463.725 69.4062C464.569 69.4062 465.209 69.6484 465.647 70.1328C466.084 70.6172 466.303 71.2109 466.303 71.9141C466.303 72.6172 466.084 73.2031 465.647 73.6719C465.209 74.1406 464.569 74.375 463.725 74.375C462.881 74.375 462.241 74.1406 461.803 73.6719C461.381 73.2031 461.17 72.6172 461.17 71.9141ZM479.93 104H475.594V68H479.93V104ZM511.894 97.6484L517.8 78.6406H522.441L512.245 107.914C510.667 112.133 508.159 114.242 504.722 114.242L503.902 114.172L502.284 113.867V110.352L503.456 110.445C504.925 110.445 506.066 110.148 506.878 109.555C507.706 108.961 508.386 107.875 508.917 106.297L509.878 103.719L500.831 78.6406H505.566L511.894 97.6484ZM527.208 91.0859C527.208 88.6016 527.692 86.3672 528.661 84.3828C529.645 82.3984 531.005 80.8672 532.739 79.7891C534.489 78.7109 536.481 78.1719 538.716 78.1719C542.169 78.1719 544.958 79.3672 547.083 81.7578C549.223 84.1484 550.294 87.3281 550.294 91.2969V91.6016C550.294 94.0703 549.817 96.2891 548.864 98.2578C547.927 100.211 546.575 101.734 544.809 102.828C543.059 103.922 541.044 104.469 538.763 104.469C535.325 104.469 532.536 103.273 530.395 100.883C528.27 98.4922 527.208 95.3281 527.208 91.3906V91.0859ZM531.567 91.6016C531.567 94.4141 532.216 96.6719 533.513 98.375C534.825 100.078 536.575 100.93 538.763 100.93C540.966 100.93 542.716 100.07 544.013 98.3516C545.309 96.6172 545.958 94.1953 545.958 91.0859C545.958 88.3047 545.294 86.0547 543.966 84.3359C542.653 82.6016 540.903 81.7344 538.716 81.7344C536.575 81.7344 534.848 82.5859 533.536 84.2891C532.223 85.9922 531.567 88.4297 531.567 91.6016ZM573.787 101.492C572.1 103.477 569.623 104.469 566.358 104.469C563.655 104.469 561.592 103.688 560.17 102.125C558.764 100.547 558.053 98.2188 558.037 95.1406V78.6406H562.373V95.0234C562.373 98.8672 563.936 100.789 567.061 100.789C570.373 100.789 572.577 99.5547 573.67 97.0859V78.6406H578.006V104H573.881L573.787 101.492ZM599.273 82.5312C598.617 82.4219 597.906 82.3672 597.141 82.3672C594.297 82.3672 592.367 83.5781 591.352 86V104H587.016V78.6406H591.234L591.305 81.5703C592.727 79.3047 594.742 78.1719 597.352 78.1719C598.195 78.1719 598.836 78.2812 599.273 78.5V82.5312ZM21.5391 138.531C20.8828 138.422 20.1719 138.367 19.4062 138.367C16.5625 138.367 14.6328 139.578 13.6172 142V160H9.28125V134.641H13.5L13.5703 137.57C14.9922 135.305 17.0078 134.172 19.6172 134.172C20.4609 134.172 21.1016 134.281 21.5391 134.5V138.531ZM38.0016 160.469C34.5641 160.469 31.7672 159.344 29.6109 157.094C27.4547 154.828 26.3766 151.805 26.3766 148.023V147.227C26.3766 144.711 26.8531 142.469 27.8062 140.5C28.775 138.516 30.1187 136.969 31.8375 135.859C33.5719 134.734 35.4469 134.172 37.4625 134.172C40.7594 134.172 43.3219 135.258 45.15 137.43C46.9781 139.602 47.8922 142.711 47.8922 146.758V148.562H30.7125C30.775 151.062 31.5016 153.086 32.8922 154.633C34.2984 156.164 36.0797 156.93 38.2359 156.93C39.7672 156.93 41.0641 156.617 42.1266 155.992C43.1891 155.367 44.1187 154.539 44.9156 153.508L47.5641 155.57C45.4391 158.836 42.2516 160.469 38.0016 160.469ZM37.4625 137.734C35.7125 137.734 34.2437 138.375 33.0562 139.656C31.8687 140.922 31.1344 142.703 30.8531 145H43.5562V144.672C43.4312 142.469 42.8375 140.766 41.775 139.562C40.7125 138.344 39.275 137.734 37.4625 137.734ZM76.7531 147.602C76.7531 151.461 75.8703 154.57 74.1047 156.93C72.3391 159.289 69.9484 160.469 66.9328 160.469C63.8547 160.469 61.4328 159.492 59.6672 157.539V169.75H55.3312V134.641H59.2922L59.5031 137.453C61.2687 135.266 63.7219 134.172 66.8625 134.172C69.9094 134.172 72.3156 135.32 74.0812 137.617C75.8625 139.914 76.7531 143.109 76.7531 147.203V147.602ZM72.4172 147.109C72.4172 144.25 71.8078 141.992 70.5891 140.336C69.3703 138.68 67.6984 137.852 65.5734 137.852C62.9484 137.852 60.9797 139.016 59.6672 141.344V153.461C60.9641 155.773 62.9484 156.93 65.6203 156.93C67.6984 156.93 69.3469 156.109 70.5656 154.469C71.8 152.812 72.4172 150.359 72.4172 147.109ZM96.9422 138.531C96.2859 138.422 95.575 138.367 94.8094 138.367C91.9656 138.367 90.0359 139.578 89.0203 142V160H84.6844V134.641H88.9031L88.9734 137.57C90.3953 135.305 92.4109 134.172 95.0203 134.172C95.8641 134.172 96.5047 134.281 96.9422 134.5V138.531ZM113.405 160.469C109.967 160.469 107.17 159.344 105.014 157.094C102.858 154.828 101.78 151.805 101.78 148.023V147.227C101.78 144.711 102.256 142.469 103.209 140.5C104.178 138.516 105.522 136.969 107.241 135.859C108.975 134.734 110.85 134.172 112.866 134.172C116.162 134.172 118.725 135.258 120.553 137.43C122.381 139.602 123.295 142.711 123.295 146.758V148.562H106.116C106.178 151.062 106.905 153.086 108.295 154.633C109.702 156.164 111.483 156.93 113.639 156.93C115.17 156.93 116.467 156.617 117.53 155.992C118.592 155.367 119.522 154.539 120.319 153.508L122.967 155.57C120.842 158.836 117.655 160.469 113.405 160.469ZM112.866 137.734C111.116 137.734 109.647 138.375 108.459 139.656C107.272 140.922 106.537 142.703 106.256 145H118.959V144.672C118.834 142.469 118.241 140.766 117.178 139.562C116.116 138.344 114.678 137.734 112.866 137.734ZM145.5 153.273C145.5 152.102 145.055 151.195 144.164 150.555C143.289 149.898 141.75 149.336 139.547 148.867C137.359 148.398 135.617 147.836 134.32 147.18C133.039 146.523 132.086 145.742 131.461 144.836C130.852 143.93 130.547 142.852 130.547 141.602C130.547 139.523 131.422 137.766 133.172 136.328C134.938 134.891 137.188 134.172 139.922 134.172C142.797 134.172 145.125 134.914 146.906 136.398C148.703 137.883 149.602 139.781 149.602 142.094H145.242C145.242 140.906 144.734 139.883 143.719 139.023C142.719 138.164 141.453 137.734 139.922 137.734C138.344 137.734 137.109 138.078 136.219 138.766C135.328 139.453 134.883 140.352 134.883 141.461C134.883 142.508 135.297 143.297 136.125 143.828C136.953 144.359 138.445 144.867 140.602 145.352C142.773 145.836 144.531 146.414 145.875 147.086C147.219 147.758 148.211 148.57 148.852 149.523C149.508 150.461 149.836 151.609 149.836 152.969C149.836 155.234 148.93 157.055 147.117 158.43C145.305 159.789 142.953 160.469 140.062 160.469C138.031 160.469 136.234 160.109 134.672 159.391C133.109 158.672 131.883 157.672 130.992 156.391C130.117 155.094 129.68 153.695 129.68 152.195H134.016C134.094 153.648 134.672 154.805 135.75 155.664C136.844 156.508 138.281 156.93 140.062 156.93C141.703 156.93 143.016 156.602 144 155.945C145 155.273 145.5 154.383 145.5 153.273ZM168.408 160.469C164.97 160.469 162.173 159.344 160.017 157.094C157.861 154.828 156.783 151.805 156.783 148.023V147.227C156.783 144.711 157.259 142.469 158.212 140.5C159.181 138.516 160.525 136.969 162.244 135.859C163.978 134.734 165.853 134.172 167.869 134.172C171.166 134.172 173.728 135.258 175.556 137.43C177.384 139.602 178.298 142.711 178.298 146.758V148.562H161.119C161.181 151.062 161.908 153.086 163.298 154.633C164.705 156.164 166.486 156.93 168.642 156.93C170.173 156.93 171.47 156.617 172.533 155.992C173.595 155.367 174.525 154.539 175.322 153.508L177.97 155.57C175.845 158.836 172.658 160.469 168.408 160.469ZM167.869 137.734C166.119 137.734 164.65 138.375 163.462 139.656C162.275 140.922 161.541 142.703 161.259 145H173.962V144.672C173.837 142.469 173.244 140.766 172.181 139.562C171.119 138.344 169.681 137.734 167.869 137.734ZM189.839 134.641L189.98 137.828C191.917 135.391 194.448 134.172 197.573 134.172C202.933 134.172 205.636 137.195 205.683 143.242V160H201.347V143.219C201.331 141.391 200.909 140.039 200.081 139.164C199.269 138.289 197.995 137.852 196.261 137.852C194.855 137.852 193.62 138.227 192.558 138.977C191.495 139.727 190.667 140.711 190.073 141.93V160H185.738V134.641H189.839ZM220.505 128.5V134.641H225.239V137.992H220.505V153.719C220.505 154.734 220.716 155.5 221.137 156.016C221.559 156.516 222.278 156.766 223.294 156.766C223.794 156.766 224.481 156.672 225.356 156.484V160C224.216 160.312 223.106 160.469 222.028 160.469C220.091 160.469 218.63 159.883 217.645 158.711C216.661 157.539 216.169 155.875 216.169 153.719V137.992H211.552V134.641H216.169V128.5H220.505ZM248.381 160C248.131 159.5 247.928 158.609 247.772 157.328C245.756 159.422 243.35 160.469 240.553 160.469C238.053 160.469 235.998 159.766 234.389 158.359C232.795 156.938 231.998 155.141 231.998 152.969C231.998 150.328 232.998 148.281 234.998 146.828C237.014 145.359 239.842 144.625 243.483 144.625H247.702V142.633C247.702 141.117 247.248 139.914 246.342 139.023C245.436 138.117 244.1 137.664 242.334 137.664C240.788 137.664 239.491 138.055 238.444 138.836C237.397 139.617 236.873 140.562 236.873 141.672H232.514C232.514 140.406 232.959 139.188 233.85 138.016C234.756 136.828 235.975 135.891 237.506 135.203C239.053 134.516 240.748 134.172 242.592 134.172C245.514 134.172 247.803 134.906 249.459 136.375C251.116 137.828 251.975 139.836 252.038 142.398V154.07C252.038 156.398 252.334 158.25 252.928 159.625V160H248.381ZM241.186 156.695C242.545 156.695 243.834 156.344 245.053 155.641C246.272 154.938 247.155 154.023 247.702 152.898V147.695H244.303C238.991 147.695 236.334 149.25 236.334 152.359C236.334 153.719 236.788 154.781 237.694 155.547C238.6 156.312 239.764 156.695 241.186 156.695ZM267.117 128.5V134.641H271.852V137.992H267.117V153.719C267.117 154.734 267.328 155.5 267.75 156.016C268.172 156.516 268.891 156.766 269.906 156.766C270.406 156.766 271.094 156.672 271.969 156.484V160C270.828 160.312 269.719 160.469 268.641 160.469C266.703 160.469 265.242 159.883 264.258 158.711C263.273 157.539 262.781 155.875 262.781 153.719V137.992H258.164V134.641H262.781V128.5H267.117ZM284.048 160H279.712V134.641H284.048V160ZM279.361 127.914C279.361 127.211 279.572 126.617 279.994 126.133C280.431 125.648 281.072 125.406 281.916 125.406C282.759 125.406 283.4 125.648 283.837 126.133C284.275 126.617 284.494 127.211 284.494 127.914C284.494 128.617 284.275 129.203 283.837 129.672C283.4 130.141 282.759 130.375 281.916 130.375C281.072 130.375 280.431 130.141 279.994 129.672C279.572 129.203 279.361 128.617 279.361 127.914ZM301.777 154.117L308.058 134.641H312.487L303.394 160H300.089L290.902 134.641H295.331L301.777 154.117ZM329.255 160.469C325.817 160.469 323.02 159.344 320.864 157.094C318.708 154.828 317.63 151.805 317.63 148.023V147.227C317.63 144.711 318.106 142.469 319.059 140.5C320.028 138.516 321.372 136.969 323.091 135.859C324.825 134.734 326.7 134.172 328.716 134.172C332.013 134.172 334.575 135.258 336.403 137.43C338.231 139.602 339.145 142.711 339.145 146.758V148.562H321.966C322.028 151.062 322.755 153.086 324.145 154.633C325.552 156.164 327.333 156.93 329.489 156.93C331.02 156.93 332.317 156.617 333.38 155.992C334.442 155.367 335.372 154.539 336.169 153.508L338.817 155.57C336.692 158.836 333.505 160.469 329.255 160.469ZM328.716 137.734C326.966 137.734 325.497 138.375 324.309 139.656C323.122 140.922 322.388 142.703 322.106 145H334.809V144.672C334.684 142.469 334.091 140.766 333.028 139.562C331.966 138.344 330.528 137.734 328.716 137.734ZM361.35 153.273C361.35 152.102 360.905 151.195 360.014 150.555C359.139 149.898 357.6 149.336 355.397 148.867C353.209 148.398 351.467 147.836 350.17 147.18C348.889 146.523 347.936 145.742 347.311 144.836C346.702 143.93 346.397 142.852 346.397 141.602C346.397 139.523 347.272 137.766 349.022 136.328C350.788 134.891 353.038 134.172 355.772 134.172C358.647 134.172 360.975 134.914 362.756 136.398C364.553 137.883 365.452 139.781 365.452 142.094H361.092C361.092 140.906 360.584 139.883 359.569 139.023C358.569 138.164 357.303 137.734 355.772 137.734C354.194 137.734 352.959 138.078 352.069 138.766C351.178 139.453 350.733 140.352 350.733 141.461C350.733 142.508 351.147 143.297 351.975 143.828C352.803 144.359 354.295 144.867 356.452 145.352C358.623 145.836 360.381 146.414 361.725 147.086C363.069 147.758 364.061 148.57 364.702 149.523C365.358 150.461 365.686 151.609 365.686 152.969C365.686 155.234 364.78 157.055 362.967 158.43C361.155 159.789 358.803 160.469 355.913 160.469C353.881 160.469 352.084 160.109 350.522 159.391C348.959 158.672 347.733 157.672 346.842 156.391C345.967 155.094 345.53 153.695 345.53 152.195H349.866C349.944 153.648 350.522 154.805 351.6 155.664C352.694 156.508 354.131 156.93 355.913 156.93C357.553 156.93 358.866 156.602 359.85 155.945C360.85 155.273 361.35 154.383 361.35 153.273ZM373.594 166.797L371.133 165.109C372.602 163.062 373.367 160.953 373.43 158.781V154.867H377.672V158.266C377.672 159.844 377.281 161.422 376.5 163C375.734 164.578 374.766 165.844 373.594 166.797ZM415.519 160C415.269 159.5 415.066 158.609 414.909 157.328C412.894 159.422 410.487 160.469 407.691 160.469C405.191 160.469 403.136 159.766 401.527 158.359C399.933 156.938 399.136 155.141 399.136 152.969C399.136 150.328 400.136 148.281 402.136 146.828C404.152 145.359 406.98 144.625 410.62 144.625H414.839V142.633C414.839 141.117 414.386 139.914 413.48 139.023C412.573 138.117 411.237 137.664 409.472 137.664C407.925 137.664 406.628 138.055 405.581 138.836C404.534 139.617 404.011 140.562 404.011 141.672H399.652C399.652 140.406 400.097 139.188 400.987 138.016C401.894 136.828 403.112 135.891 404.644 135.203C406.191 134.516 407.886 134.172 409.73 134.172C412.652 134.172 414.941 134.906 416.597 136.375C418.253 137.828 419.112 139.836 419.175 142.398V154.07C419.175 156.398 419.472 158.25 420.066 159.625V160H415.519ZM408.323 156.695C409.683 156.695 410.972 156.344 412.191 155.641C413.409 154.938 414.292 154.023 414.839 152.898V147.695H411.441C406.128 147.695 403.472 149.25 403.472 152.359C403.472 153.719 403.925 154.781 404.831 155.547C405.737 156.312 406.902 156.695 408.323 156.695ZM432.473 134.641L432.614 137.828C434.552 135.391 437.083 134.172 440.208 134.172C445.567 134.172 448.27 137.195 448.317 143.242V160H443.981V143.219C443.966 141.391 443.544 140.039 442.716 139.164C441.903 138.289 440.63 137.852 438.895 137.852C437.489 137.852 436.255 138.227 435.192 138.977C434.13 139.727 433.302 140.711 432.708 141.93V160H428.372V134.641H432.473ZM456.202 147.109C456.202 143.219 457.123 140.094 458.967 137.734C460.811 135.359 463.225 134.172 466.209 134.172C469.178 134.172 471.53 135.188 473.264 137.219V124H477.6V160H473.616L473.405 157.281C471.67 159.406 469.256 160.469 466.163 160.469C463.225 160.469 460.827 159.266 458.967 156.859C457.123 154.453 456.202 151.312 456.202 147.438V147.109ZM460.538 147.602C460.538 150.477 461.131 152.727 462.319 154.352C463.506 155.977 465.147 156.789 467.241 156.789C469.991 156.789 471.998 155.555 473.264 153.086V141.438C471.967 139.047 469.975 137.852 467.288 137.852C465.163 137.852 463.506 138.672 462.319 140.312C461.131 141.953 460.538 144.383 460.538 147.602ZM506.939 128.5V134.641H511.673V137.992H506.939V153.719C506.939 154.734 507.15 155.5 507.572 156.016C507.994 156.516 508.712 156.766 509.728 156.766C510.228 156.766 510.916 156.672 511.791 156.484V160C510.65 160.312 509.541 160.469 508.462 160.469C506.525 160.469 505.064 159.883 504.08 158.711C503.095 157.539 502.603 155.875 502.603 153.719V137.992H497.986V134.641H502.603V128.5H506.939ZM529.683 160.469C526.245 160.469 523.448 159.344 521.292 157.094C519.136 154.828 518.058 151.805 518.058 148.023V147.227C518.058 144.711 518.534 142.469 519.487 140.5C520.456 138.516 521.8 136.969 523.519 135.859C525.253 134.734 527.128 134.172 529.144 134.172C532.441 134.172 535.003 135.258 536.831 137.43C538.659 139.602 539.573 142.711 539.573 146.758V148.562H522.394C522.456 151.062 523.183 153.086 524.573 154.633C525.98 156.164 527.761 156.93 529.917 156.93C531.448 156.93 532.745 156.617 533.808 155.992C534.87 155.367 535.8 154.539 536.597 153.508L539.245 155.57C537.12 158.836 533.933 160.469 529.683 160.469ZM529.144 137.734C527.394 137.734 525.925 138.375 524.737 139.656C523.55 140.922 522.816 142.703 522.534 145H535.237V144.672C535.112 142.469 534.519 140.766 533.456 139.562C532.394 138.344 530.956 137.734 529.144 137.734ZM555.52 143.898L561.145 134.641H566.208L557.911 147.18L566.466 160H561.45L555.591 150.508L549.731 160H544.692L553.247 147.18L544.95 134.641H549.966L555.52 143.898ZM579.108 128.5V134.641H583.842V137.992H579.108V153.719C579.108 154.734 579.319 155.5 579.741 156.016C580.162 156.516 580.881 156.766 581.897 156.766C582.397 156.766 583.084 156.672 583.959 156.484V160C582.819 160.312 581.709 160.469 580.631 160.469C578.694 160.469 577.233 159.883 576.248 158.711C575.264 157.539 574.772 155.875 574.772 153.719V137.992H570.155V134.641H574.772V128.5H579.108ZM611.517 128.5V134.641H616.252V137.992H611.517V153.719C611.517 154.734 611.728 155.5 612.15 156.016C612.572 156.516 613.291 156.766 614.306 156.766C614.806 156.766 615.494 156.672 616.369 156.484V160C615.228 160.312 614.119 160.469 613.041 160.469C611.103 160.469 609.642 159.883 608.658 158.711C607.673 157.539 607.181 155.875 607.181 153.719V137.992H602.564V134.641H607.181V128.5H611.517ZM622.12 147.086C622.12 144.602 622.605 142.367 623.573 140.383C624.558 138.398 625.917 136.867 627.652 135.789C629.402 134.711 631.394 134.172 633.628 134.172C637.081 134.172 639.87 135.367 641.995 137.758C644.136 140.148 645.206 143.328 645.206 147.297V147.602C645.206 150.07 644.73 152.289 643.777 154.258C642.839 156.211 641.487 157.734 639.722 158.828C637.972 159.922 635.956 160.469 633.675 160.469C630.237 160.469 627.448 159.273 625.308 156.883C623.183 154.492 622.12 151.328 622.12 147.391V147.086ZM626.48 147.602C626.48 150.414 627.128 152.672 628.425 154.375C629.737 156.078 631.487 156.93 633.675 156.93C635.878 156.93 637.628 156.07 638.925 154.352C640.222 152.617 640.87 150.195 640.87 147.086C640.87 144.305 640.206 142.055 638.878 140.336C637.566 138.602 635.816 137.734 633.628 137.734C631.487 137.734 629.761 138.586 628.448 140.289C627.136 141.992 626.48 144.43 626.48 147.602ZM30.7031 203.602C30.7031 207.461 29.8203 210.57 28.0547 212.93C26.2891 215.289 23.8984 216.469 20.8828 216.469C17.8047 216.469 15.3828 215.492 13.6172 213.539V225.75H9.28125V190.641H13.2422L13.4531 193.453C15.2188 191.266 17.6719 190.172 20.8125 190.172C23.8594 190.172 26.2656 191.32 28.0312 193.617C29.8125 195.914 30.7031 199.109 30.7031 203.203V203.602ZM26.3672 203.109C26.3672 200.25 25.7578 197.992 24.5391 196.336C23.3203 194.68 21.6484 193.852 19.5234 193.852C16.8984 193.852 14.9297 195.016 13.6172 197.344V209.461C14.9141 211.773 16.8984 212.93 19.5703 212.93C21.6484 212.93 23.2969 212.109 24.5156 210.469C25.75 208.812 26.3672 206.359 26.3672 203.109ZM49.1578 216.469C45.7203 216.469 42.9234 215.344 40.7672 213.094C38.6109 210.828 37.5328 207.805 37.5328 204.023V203.227C37.5328 200.711 38.0094 198.469 38.9625 196.5C39.9312 194.516 41.275 192.969 42.9937 191.859C44.7281 190.734 46.6031 190.172 48.6187 190.172C51.9156 190.172 54.4781 191.258 56.3062 193.43C58.1344 195.602 59.0484 198.711 59.0484 202.758V204.562H41.8687C41.9312 207.062 42.6578 209.086 44.0484 210.633C45.4547 212.164 47.2359 212.93 49.3922 212.93C50.9234 212.93 52.2203 212.617 53.2828 211.992C54.3453 211.367 55.275 210.539 56.0719 209.508L58.7203 211.57C56.5953 214.836 53.4078 216.469 49.1578 216.469ZM48.6187 193.734C46.8687 193.734 45.4 194.375 44.2125 195.656C43.025 196.922 42.2906 198.703 42.0094 201H54.7125V200.672C54.5875 198.469 53.9937 196.766 52.9312 195.562C51.8687 194.344 50.4312 193.734 48.6187 193.734ZM72.3703 184.5V190.641H77.1047V193.992H72.3703V209.719C72.3703 210.734 72.5812 211.5 73.0031 212.016C73.425 212.516 74.1437 212.766 75.1594 212.766C75.6594 212.766 76.3469 212.672 77.2219 212.484V216C76.0812 216.312 74.9719 216.469 73.8937 216.469C71.9562 216.469 70.4953 215.883 69.5109 214.711C68.5266 213.539 68.0344 211.875 68.0344 209.719V193.992H63.4172V190.641H68.0344V184.5H72.3703ZM89.3016 216H84.9656V190.641H89.3016V216ZM84.6141 183.914C84.6141 183.211 84.825 182.617 85.2469 182.133C85.6844 181.648 86.325 181.406 87.1687 181.406C88.0125 181.406 88.6531 181.648 89.0906 182.133C89.5281 182.617 89.7469 183.211 89.7469 183.914C89.7469 184.617 89.5281 185.203 89.0906 185.672C88.6531 186.141 88.0125 186.375 87.1687 186.375C86.325 186.375 85.6844 186.141 85.2469 185.672C84.825 185.203 84.6141 184.617 84.6141 183.914ZM104.545 184.5V190.641H109.28V193.992H104.545V209.719C104.545 210.734 104.756 211.5 105.178 212.016C105.6 212.516 106.319 212.766 107.334 212.766C107.834 212.766 108.522 212.672 109.397 212.484V216C108.256 216.312 107.147 216.469 106.069 216.469C104.131 216.469 102.67 215.883 101.686 214.711C100.702 213.539 100.209 211.875 100.209 209.719V193.992H95.5922V190.641H100.209V184.5H104.545ZM121.477 216H117.141V190.641H121.477V216ZM116.789 183.914C116.789 183.211 117 182.617 117.422 182.133C117.859 181.648 118.5 181.406 119.344 181.406C120.188 181.406 120.828 181.648 121.266 182.133C121.703 182.617 121.922 183.211 121.922 183.914C121.922 184.617 121.703 185.203 121.266 185.672C120.828 186.141 120.188 186.375 119.344 186.375C118.5 186.375 117.859 186.141 117.422 185.672C117 185.203 116.789 184.617 116.789 183.914ZM129.689 203.086C129.689 200.602 130.173 198.367 131.142 196.383C132.127 194.398 133.486 192.867 135.22 191.789C136.97 190.711 138.963 190.172 141.197 190.172C144.65 190.172 147.439 191.367 149.564 193.758C151.705 196.148 152.775 199.328 152.775 203.297V203.602C152.775 206.07 152.298 208.289 151.345 210.258C150.408 212.211 149.056 213.734 147.291 214.828C145.541 215.922 143.525 216.469 141.244 216.469C137.806 216.469 135.017 215.273 132.877 212.883C130.752 210.492 129.689 207.328 129.689 203.391V203.086ZM134.048 203.602C134.048 206.414 134.697 208.672 135.994 210.375C137.306 212.078 139.056 212.93 141.244 212.93C143.447 212.93 145.197 212.07 146.494 210.352C147.791 208.617 148.439 206.195 148.439 203.086C148.439 200.305 147.775 198.055 146.447 196.336C145.134 194.602 143.384 193.734 141.197 193.734C139.056 193.734 137.33 194.586 136.017 196.289C134.705 197.992 134.048 200.43 134.048 203.602ZM164.714 190.641L164.855 193.828C166.792 191.391 169.323 190.172 172.448 190.172C177.808 190.172 180.511 193.195 180.558 199.242V216H176.222V199.219C176.206 197.391 175.784 196.039 174.956 195.164C174.144 194.289 172.87 193.852 171.136 193.852C169.73 193.852 168.495 194.227 167.433 194.977C166.37 195.727 165.542 196.711 164.948 197.93V216H160.613V190.641H164.714ZM204.262 209.273C204.262 208.102 203.817 207.195 202.927 206.555C202.052 205.898 200.512 205.336 198.309 204.867C196.122 204.398 194.38 203.836 193.083 203.18C191.802 202.523 190.848 201.742 190.223 200.836C189.614 199.93 189.309 198.852 189.309 197.602C189.309 195.523 190.184 193.766 191.934 192.328C193.7 190.891 195.95 190.172 198.684 190.172C201.559 190.172 203.887 190.914 205.669 192.398C207.466 193.883 208.364 195.781 208.364 198.094H204.005C204.005 196.906 203.497 195.883 202.481 195.023C201.481 194.164 200.216 193.734 198.684 193.734C197.106 193.734 195.872 194.078 194.981 194.766C194.091 195.453 193.645 196.352 193.645 197.461C193.645 198.508 194.059 199.297 194.887 199.828C195.716 200.359 197.208 200.867 199.364 201.352C201.536 201.836 203.294 202.414 204.637 203.086C205.981 203.758 206.973 204.57 207.614 205.523C208.27 206.461 208.598 207.609 208.598 208.969C208.598 211.234 207.692 213.055 205.88 214.43C204.067 215.789 201.716 216.469 198.825 216.469C196.794 216.469 194.997 216.109 193.434 215.391C191.872 214.672 190.645 213.672 189.755 212.391C188.88 211.094 188.442 209.695 188.442 208.195H192.778C192.856 209.648 193.434 210.805 194.512 211.664C195.606 212.508 197.044 212.93 198.825 212.93C200.466 212.93 201.778 212.602 202.762 211.945C203.762 211.273 204.262 210.383 204.262 209.273ZM246.609 216C246.359 215.5 246.156 214.609 246 213.328C243.984 215.422 241.578 216.469 238.781 216.469C236.281 216.469 234.227 215.766 232.617 214.359C231.023 212.938 230.227 211.141 230.227 208.969C230.227 206.328 231.227 204.281 233.227 202.828C235.242 201.359 238.07 200.625 241.711 200.625H245.93V198.633C245.93 197.117 245.477 195.914 244.57 195.023C243.664 194.117 242.328 193.664 240.562 193.664C239.016 193.664 237.719 194.055 236.672 194.836C235.625 195.617 235.102 196.562 235.102 197.672H230.742C230.742 196.406 231.188 195.188 232.078 194.016C232.984 192.828 234.203 191.891 235.734 191.203C237.281 190.516 238.977 190.172 240.82 190.172C243.742 190.172 246.031 190.906 247.688 192.375C249.344 193.828 250.203 195.836 250.266 198.398V210.07C250.266 212.398 250.562 214.25 251.156 215.625V216H246.609ZM239.414 212.695C240.773 212.695 242.062 212.344 243.281 211.641C244.5 210.938 245.383 210.023 245.93 208.898V203.695H242.531C237.219 203.695 234.562 205.25 234.562 208.359C234.562 209.719 235.016 210.781 235.922 211.547C236.828 212.312 237.992 212.695 239.414 212.695ZM264.173 216H259.837V180H264.173V216ZM278.245 216H273.909V180H278.245V216ZM306.623 216H302.288V190.641H306.623V216ZM301.936 183.914C301.936 183.211 302.147 182.617 302.569 182.133C303.006 181.648 303.647 181.406 304.491 181.406C305.334 181.406 305.975 181.648 306.413 182.133C306.85 182.617 307.069 183.211 307.069 183.914C307.069 184.617 306.85 185.203 306.413 185.672C305.975 186.141 305.334 186.375 304.491 186.375C303.647 186.375 303.006 186.141 302.569 185.672C302.147 185.203 301.936 184.617 301.936 183.914ZM320.086 190.641L320.227 193.828C322.164 191.391 324.695 190.172 327.82 190.172C333.18 190.172 335.883 193.195 335.93 199.242V216H331.594V199.219C331.578 197.391 331.156 196.039 330.328 195.164C329.516 194.289 328.242 193.852 326.508 193.852C325.102 193.852 323.867 194.227 322.805 194.977C321.742 195.727 320.914 196.711 320.32 197.93V216H315.984V190.641H320.086ZM358.027 203.086C358.027 200.602 358.511 198.367 359.48 196.383C360.464 194.398 361.823 192.867 363.558 191.789C365.308 190.711 367.3 190.172 369.534 190.172C372.987 190.172 375.777 191.367 377.902 193.758C380.042 196.148 381.112 199.328 381.112 203.297V203.602C381.112 206.07 380.636 208.289 379.683 210.258C378.745 212.211 377.394 213.734 375.628 214.828C373.878 215.922 371.862 216.469 369.581 216.469C366.144 216.469 363.355 215.273 361.214 212.883C359.089 210.492 358.027 207.328 358.027 203.391V203.086ZM362.386 203.602C362.386 206.414 363.034 208.672 364.331 210.375C365.644 212.078 367.394 212.93 369.581 212.93C371.784 212.93 373.534 212.07 374.831 210.352C376.128 208.617 376.777 206.195 376.777 203.086C376.777 200.305 376.112 198.055 374.784 196.336C373.472 194.602 371.722 193.734 369.534 193.734C367.394 193.734 365.667 194.586 364.355 196.289C363.042 197.992 362.386 200.43 362.386 203.602ZM393.052 190.641L393.192 193.828C395.13 191.391 397.661 190.172 400.786 190.172C406.145 190.172 408.848 193.195 408.895 199.242V216H404.559V199.219C404.544 197.391 404.122 196.039 403.294 195.164C402.481 194.289 401.208 193.852 399.473 193.852C398.067 193.852 396.833 194.227 395.77 194.977C394.708 195.727 393.88 196.711 393.286 197.93V216H388.95V190.641H393.052ZM428.358 216.469C424.92 216.469 422.123 215.344 419.967 213.094C417.811 210.828 416.733 207.805 416.733 204.023V203.227C416.733 200.711 417.209 198.469 418.163 196.5C419.131 194.516 420.475 192.969 422.194 191.859C423.928 190.734 425.803 190.172 427.819 190.172C431.116 190.172 433.678 191.258 435.506 193.43C437.334 195.602 438.248 198.711 438.248 202.758V204.562H421.069C421.131 207.062 421.858 209.086 423.248 210.633C424.655 212.164 426.436 212.93 428.592 212.93C430.123 212.93 431.42 212.617 432.483 211.992C433.545 211.367 434.475 210.539 435.272 209.508L437.92 211.57C435.795 214.836 432.608 216.469 428.358 216.469ZM427.819 193.734C426.069 193.734 424.6 194.375 423.413 195.656C422.225 196.922 421.491 198.703 421.209 201H433.913V200.672C433.788 198.469 433.194 196.766 432.131 195.562C431.069 194.344 429.631 193.734 427.819 193.734ZM481.416 203.602C481.416 207.461 480.533 210.57 478.767 212.93C477.002 215.289 474.611 216.469 471.595 216.469C468.517 216.469 466.095 215.492 464.33 213.539V225.75H459.994V190.641H463.955L464.166 193.453C465.931 191.266 468.384 190.172 471.525 190.172C474.572 190.172 476.978 191.32 478.744 193.617C480.525 195.914 481.416 199.109 481.416 203.203V203.602ZM477.08 203.109C477.08 200.25 476.47 197.992 475.252 196.336C474.033 194.68 472.361 193.852 470.236 193.852C467.611 193.852 465.642 195.016 464.33 197.344V209.461C465.627 211.773 467.611 212.93 470.283 212.93C472.361 212.93 474.009 212.109 475.228 210.469C476.462 208.812 477.08 206.359 477.08 203.109ZM494.058 216H489.722V180H494.058V216ZM519.075 216C518.825 215.5 518.622 214.609 518.466 213.328C516.45 215.422 514.044 216.469 511.247 216.469C508.747 216.469 506.692 215.766 505.083 214.359C503.489 212.938 502.692 211.141 502.692 208.969C502.692 206.328 503.692 204.281 505.692 202.828C507.708 201.359 510.536 200.625 514.177 200.625H518.395V198.633C518.395 197.117 517.942 195.914 517.036 195.023C516.13 194.117 514.794 193.664 513.028 193.664C511.481 193.664 510.184 194.055 509.138 194.836C508.091 195.617 507.567 196.562 507.567 197.672H503.208C503.208 196.406 503.653 195.188 504.544 194.016C505.45 192.828 506.669 191.891 508.2 191.203C509.747 190.516 511.442 190.172 513.286 190.172C516.208 190.172 518.497 190.906 520.153 192.375C521.809 193.828 522.669 195.836 522.731 198.398V210.07C522.731 212.398 523.028 214.25 523.622 215.625V216H519.075ZM511.88 212.695C513.239 212.695 514.528 212.344 515.747 211.641C516.966 210.938 517.848 210.023 518.395 208.898V203.695H514.997C509.684 203.695 507.028 205.25 507.028 208.359C507.028 209.719 507.481 210.781 508.388 211.547C509.294 212.312 510.458 212.695 511.88 212.695ZM542.1 212.93C543.647 212.93 544.998 212.461 546.155 211.523C547.311 210.586 547.952 209.414 548.077 208.008H552.178C552.1 209.461 551.6 210.844 550.678 212.156C549.756 213.469 548.522 214.516 546.975 215.297C545.444 216.078 543.819 216.469 542.1 216.469C538.647 216.469 535.897 215.32 533.85 213.023C531.819 210.711 530.803 207.555 530.803 203.555V202.828C530.803 200.359 531.256 198.164 532.162 196.242C533.069 194.32 534.366 192.828 536.053 191.766C537.756 190.703 539.764 190.172 542.077 190.172C544.92 190.172 547.28 191.023 549.155 192.727C551.045 194.43 552.053 196.641 552.178 199.359H548.077C547.952 197.719 547.327 196.375 546.202 195.328C545.092 194.266 543.717 193.734 542.077 193.734C539.873 193.734 538.162 194.531 536.944 196.125C535.741 197.703 535.139 199.992 535.139 202.992V203.812C535.139 206.734 535.741 208.984 536.944 210.562C538.147 212.141 539.866 212.93 542.1 212.93ZM569.977 216.469C566.539 216.469 563.742 215.344 561.586 213.094C559.43 210.828 558.352 207.805 558.352 204.023V203.227C558.352 200.711 558.828 198.469 559.781 196.5C560.75 194.516 562.094 192.969 563.812 191.859C565.547 190.734 567.422 190.172 569.438 190.172C572.734 190.172 575.297 191.258 577.125 193.43C578.953 195.602 579.867 198.711 579.867 202.758V204.562H562.688C562.75 207.062 563.477 209.086 564.867 210.633C566.273 212.164 568.055 212.93 570.211 212.93C571.742 212.93 573.039 212.617 574.102 211.992C575.164 211.367 576.094 210.539 576.891 209.508L579.539 211.57C577.414 214.836 574.227 216.469 569.977 216.469ZM569.438 193.734C567.688 193.734 566.219 194.375 565.031 195.656C563.844 196.922 563.109 198.703 562.828 201H575.531V200.672C575.406 198.469 574.812 196.766 573.75 195.562C572.688 194.344 571.25 193.734 569.438 193.734ZM587.4 213.727C587.4 212.977 587.619 212.352 588.056 211.852C588.509 211.352 589.181 211.102 590.072 211.102C590.963 211.102 591.634 211.352 592.088 211.852C592.556 212.352 592.791 212.977 592.791 213.727C592.791 214.445 592.556 215.047 592.088 215.531C591.634 216.016 590.963 216.258 590.072 216.258C589.181 216.258 588.509 216.016 588.056 215.531C587.619 215.047 587.4 214.445 587.4 213.727Z" fill="black"/>
<g clip-path="url(#clip0)">
<path d="M287.654 344.573H164.804C164.201 344.572 163.622 344.334 163.196 343.911C162.769 343.488 162.53 342.914 162.529 342.316V312.085C162.53 311.487 162.769 310.913 163.196 310.49C163.622 310.067 164.201 309.829 164.804 309.828H287.654C288.257 309.829 288.836 310.067 289.262 310.49C289.689 310.913 289.929 311.487 289.929 312.085V342.316C289.929 342.914 289.689 343.488 289.262 343.911C288.836 344.334 288.257 344.572 287.654 344.573ZM164.804 310.731C164.442 310.731 164.095 310.874 163.839 311.128C163.583 311.382 163.439 311.726 163.439 312.085V342.316C163.439 342.675 163.583 343.019 163.839 343.273C164.095 343.527 164.442 343.67 164.804 343.67H287.654C288.016 343.67 288.363 343.527 288.619 343.273C288.875 343.019 289.019 342.675 289.019 342.316V312.085C289.019 311.726 288.875 311.382 288.619 311.128C288.363 310.874 288.016 310.731 287.654 310.731L164.804 310.731Z" fill="#3F3D56"/>
<path d="M183.892 335.234C189.011 335.234 193.16 331.118 193.16 326.041C193.16 320.963 189.011 316.847 183.892 316.847C178.774 316.847 174.625 320.963 174.625 326.041C174.625 331.118 178.774 335.234 183.892 335.234Z" fill="#C4C1F6"/>
<path d="M205.295 319.912C204.885 319.912 204.493 320.073 204.203 320.361C203.913 320.648 203.75 321.038 203.75 321.444C203.75 321.85 203.913 322.24 204.203 322.527C204.493 322.815 204.885 322.976 205.295 322.976H278.108C278.518 322.976 278.911 322.815 279.201 322.527C279.49 322.24 279.653 321.85 279.653 321.444C279.653 321.038 279.49 320.648 279.201 320.361C278.911 320.073 278.518 319.912 278.108 319.912H205.295Z" fill="#E6E6E6"/>
<path d="M205.295 329.105C204.885 329.105 204.493 329.266 204.203 329.554C203.913 329.841 203.75 330.231 203.75 330.637C203.75 331.044 203.913 331.433 204.203 331.721C204.493 332.008 204.885 332.169 205.295 332.169H236.627C236.83 332.17 237.031 332.13 237.219 332.054C237.406 331.977 237.577 331.864 237.721 331.722C237.865 331.579 237.979 331.41 238.056 331.224C238.134 331.038 238.174 330.839 238.174 330.637C238.174 330.436 238.134 330.236 238.056 330.05C237.979 329.864 237.865 329.695 237.721 329.553C237.577 329.41 237.406 329.298 237.219 329.221C237.031 329.144 236.83 329.105 236.627 329.105H205.295Z" fill="#E6E6E6"/>
<path d="M234.32 452.332H179.72C179.117 452.332 178.538 452.094 178.112 451.671C177.685 451.247 177.446 450.674 177.445 450.076V393.665C177.446 393.067 177.685 392.493 178.112 392.07C178.538 391.647 179.117 391.409 179.72 391.408H234.32C234.923 391.409 235.502 391.647 235.928 392.07C236.355 392.493 236.594 393.067 236.595 393.665V450.076C236.594 450.674 236.355 451.247 235.928 451.671C235.502 452.094 234.923 452.332 234.32 452.332ZM179.72 392.311C179.358 392.311 179.011 392.454 178.755 392.708C178.499 392.962 178.355 393.306 178.355 393.665V450.076C178.355 450.435 178.499 450.779 178.755 451.033C179.011 451.286 179.358 451.429 179.72 451.43H234.32C234.682 451.429 235.029 451.286 235.285 451.033C235.541 450.779 235.685 450.435 235.685 450.076V393.665C235.685 393.306 235.541 392.962 235.285 392.708C235.029 392.454 234.682 392.311 234.32 392.311H179.72Z" fill="#3F3D56"/>
<path d="M191.354 403.041C190.944 403.041 190.552 403.202 190.262 403.49C189.972 403.777 189.81 404.167 189.81 404.573C189.81 404.98 189.972 405.369 190.262 405.657C190.552 405.944 190.944 406.105 191.354 406.105H222.686C223.096 406.105 223.488 405.944 223.778 405.657C224.068 405.369 224.23 404.98 224.23 404.573C224.23 404.167 224.068 403.777 223.778 403.49C223.488 403.202 223.096 403.041 222.686 403.041H191.354Z" fill="#E6E6E6"/>
<path d="M191.354 412.068C191.151 412.068 190.95 412.107 190.762 412.184C190.574 412.261 190.404 412.374 190.26 412.516C190.116 412.659 190.002 412.828 189.924 413.014C189.847 413.2 189.807 413.399 189.807 413.601C189.807 413.802 189.847 414.002 189.924 414.188C190.002 414.374 190.116 414.543 190.26 414.685C190.404 414.827 190.574 414.94 190.762 415.017C190.95 415.094 191.151 415.133 191.354 415.133H222.686C223.095 415.133 223.488 414.971 223.778 414.684C224.068 414.397 224.23 414.007 224.23 413.601C224.23 413.194 224.068 412.805 223.778 412.517C223.488 412.23 223.095 412.068 222.686 412.068H191.354Z" fill="#E6E6E6"/>
<path d="M207.02 440.699C205.097 440.699 203.217 440.134 201.619 439.074C200.02 438.014 198.774 436.508 198.038 434.746C197.302 432.983 197.11 431.044 197.485 429.173C197.86 427.303 198.786 425.584 200.145 424.235C201.505 422.886 203.237 421.968 205.123 421.596C207.009 421.224 208.964 421.415 210.74 422.145C212.517 422.875 214.035 424.111 215.104 425.697C216.172 427.283 216.742 429.147 216.742 431.055C216.739 433.612 215.714 436.063 213.891 437.871C212.069 439.68 209.597 440.697 207.02 440.699Z" fill="#C4C1F6"/>
<path d="M323.764 265H378.365C378.968 265.001 379.546 265.239 379.972 265.662C380.399 266.085 380.639 266.659 380.64 267.257V323.667C380.639 324.266 380.399 324.839 379.972 325.262C379.546 325.686 378.968 325.924 378.365 325.924H323.764C323.161 325.924 322.583 325.686 322.156 325.262C321.73 324.839 321.49 324.266 321.489 323.667V267.257C321.49 266.659 321.73 266.085 322.156 265.662C322.583 265.239 323.161 265.001 323.764 265ZM378.365 325.022C378.726 325.021 379.073 324.878 379.329 324.625C379.585 324.371 379.729 324.026 379.73 323.667V267.257C379.729 266.898 379.585 266.554 379.329 266.3C379.073 266.046 378.726 265.903 378.365 265.903H323.764C323.402 265.903 323.055 266.046 322.799 266.3C322.544 266.554 322.4 266.898 322.399 267.257V323.667C322.4 324.026 322.544 324.371 322.799 324.625C323.055 324.878 323.402 325.021 323.764 325.022H378.365Z" fill="#3F3D56"/>
<path d="M366.73 314.291C367.14 314.291 367.533 314.13 367.823 313.843C368.112 313.555 368.275 313.166 368.275 312.759C368.275 312.353 368.112 311.963 367.823 311.676C367.533 311.388 367.14 311.227 366.73 311.227H335.399C334.989 311.227 334.596 311.388 334.306 311.676C334.017 311.963 333.854 312.353 333.854 312.759C333.854 313.166 334.017 313.555 334.306 313.843C334.596 314.13 334.989 314.291 335.399 314.291H366.73Z" fill="#E6E6E6"/>
<path d="M366.73 305.264C367.14 305.264 367.533 305.103 367.823 304.815C368.112 304.528 368.275 304.138 368.275 303.732C368.275 303.325 368.112 302.936 367.823 302.648C367.533 302.361 367.14 302.2 366.73 302.2H335.399C334.989 302.2 334.596 302.361 334.306 302.648C334.017 302.936 333.854 303.325 333.854 303.732C333.854 304.138 334.017 304.528 334.306 304.815C334.596 305.103 334.989 305.264 335.399 305.264H366.73Z" fill="#E6E6E6"/>
<path d="M351.064 276.633C352.987 276.633 354.867 277.199 356.466 278.258C358.064 279.318 359.311 280.824 360.046 282.587C360.782 284.349 360.975 286.288 360.6 288.159C360.225 290.03 359.299 291.748 357.939 293.097C356.579 294.446 354.847 295.365 352.961 295.737C351.075 296.109 349.12 295.918 347.344 295.188C345.567 294.458 344.049 293.222 342.981 291.636C341.912 290.05 341.342 288.185 341.342 286.277C341.345 283.72 342.37 281.269 344.193 279.461C346.016 277.653 348.487 276.636 351.064 276.633Z" fill="#C4C1F6"/>
<path d="M163.231 381.705C172.892 374.281 184.181 369.219 196.181 366.928C208.278 364.641 220.751 365.277 232.547 368.782C238.477 370.533 244.174 372.982 249.517 376.076C254.962 379.234 259.881 383.12 264.615 387.236C269.409 391.404 274.047 395.759 279.052 399.683C293.343 411.015 311.084 417.207 329.379 417.246C330.891 417.249 332.401 417.207 333.91 417.122C334.728 417.078 334.734 415.809 333.91 415.854C315.261 416.873 296.846 411.352 281.886 400.259C276.698 396.41 271.961 392.01 267.125 387.746C262.436 383.612 257.622 379.591 252.303 376.269C239.292 368.138 224.155 363.987 208.781 364.334C193.407 364.682 178.477 369.513 165.853 378.224C164.653 379.052 163.48 379.917 162.327 380.808C161.678 381.309 162.589 382.201 163.231 381.705V381.705Z" fill="#3F3D56"/>
<path d="M162.552 387.835C166.221 387.835 169.196 384.884 169.196 381.244C169.196 377.604 166.221 374.653 162.552 374.653C158.882 374.653 155.908 377.604 155.908 381.244C155.908 384.884 158.882 387.835 162.552 387.835Z" fill="#3F3D56"/>
<path d="M409.729 475.349C413.398 475.349 416.373 472.398 416.373 468.757C416.373 465.117 413.398 462.166 409.729 462.166C406.059 462.166 403.085 465.117 403.085 468.757C403.085 472.398 406.059 475.349 409.729 475.349Z" fill="#3F3D56"/>
<path d="M444.536 431.211H336.123C335.52 431.21 334.942 430.972 334.516 430.549C334.089 430.126 333.849 429.552 333.848 428.954V372.995C333.849 372.396 334.089 371.823 334.516 371.4C334.942 370.976 335.52 370.738 336.123 370.738H444.536C445.14 370.738 445.718 370.976 446.144 371.4C446.571 371.823 446.811 372.396 446.811 372.995V428.954C446.811 429.552 446.571 430.126 446.144 430.549C445.718 430.972 445.14 431.21 444.536 431.211ZM336.123 371.64C335.761 371.641 335.415 371.784 335.159 372.038C334.903 372.291 334.759 372.636 334.758 372.995V428.954C334.759 429.313 334.903 429.657 335.159 429.911C335.415 430.165 335.761 430.307 336.123 430.308H444.536C444.898 430.307 445.245 430.165 445.501 429.911C445.757 429.657 445.901 429.313 445.901 428.954V372.995C445.901 372.636 445.757 372.291 445.501 372.038C445.245 371.784 444.898 371.641 444.536 371.64H336.123Z" fill="#3F3D56"/>
<path d="M354.302 399.754C359.42 399.754 363.569 395.638 363.569 390.561C363.569 385.484 359.42 381.368 354.302 381.368C349.184 381.368 345.035 385.484 345.035 390.561C345.035 395.638 349.184 399.754 354.302 399.754Z" fill="#C4C1F6"/>
<path d="M375.705 384.432C375.501 384.432 375.3 384.471 375.113 384.548C374.925 384.625 374.754 384.738 374.611 384.88C374.467 385.022 374.353 385.191 374.275 385.377C374.197 385.564 374.157 385.763 374.157 385.964C374.157 386.166 374.197 386.365 374.275 386.551C374.353 386.738 374.467 386.907 374.611 387.049C374.754 387.191 374.925 387.304 375.113 387.381C375.3 387.458 375.501 387.497 375.705 387.497H434.081C434.49 387.497 434.883 387.335 435.173 387.048C435.462 386.761 435.625 386.371 435.625 385.964C435.625 385.558 435.462 385.168 435.173 384.881C434.883 384.594 434.49 384.432 434.081 384.432H375.705Z" fill="#E6E6E6"/>
<path d="M375.705 393.626C375.501 393.625 375.3 393.665 375.113 393.741C374.925 393.818 374.754 393.931 374.611 394.073C374.467 394.216 374.353 394.385 374.275 394.571C374.197 394.757 374.157 394.956 374.157 395.158C374.157 395.359 374.197 395.559 374.275 395.745C374.353 395.931 374.467 396.1 374.611 396.242C374.754 396.384 374.925 396.497 375.113 396.574C375.3 396.651 375.501 396.69 375.705 396.69H407.036C407.446 396.69 407.839 396.529 408.129 396.241C408.418 395.954 408.581 395.564 408.581 395.158C408.581 394.751 408.418 394.362 408.129 394.074C407.839 393.787 407.446 393.626 407.036 393.626H375.705Z" fill="#E6E6E6"/>
<path d="M347.193 408.323C346.019 408.323 345.062 409.01 345.062 409.855C345.062 410.7 346.019 411.387 347.193 411.387H433.216C434.391 411.387 435.347 410.7 435.347 409.855C435.347 409.01 434.391 408.323 433.216 408.323H347.193Z" fill="#E6E6E6"/>
<path d="M347.193 417.516C346.019 417.516 345.062 418.204 345.062 419.048C345.062 419.893 346.019 420.581 347.193 420.581H433.216C434.391 420.581 435.347 419.893 435.347 419.048C435.347 418.204 434.391 417.516 433.216 417.516H347.193Z" fill="#E6E6E6"/>
<path d="M327.409 474.894C333.525 472.262 340.353 474.556 346.118 476.982C349.087 478.232 352.025 479.565 355.097 480.552C357.682 481.38 360.329 482.002 363.014 482.413C368.401 483.231 373.879 483.265 379.276 482.512C384.7 481.761 389.986 480.236 394.97 477.984C399.926 475.756 404.507 472.785 408.553 469.175C409.068 468.714 409.572 468.242 410.067 467.76C410.656 467.187 409.751 466.291 409.163 466.863C405.267 470.63 400.795 473.762 395.913 476.142C391.05 478.514 385.863 480.167 380.518 481.048C375.155 481.945 369.686 482.039 364.295 481.326C361.606 480.965 358.95 480.392 356.352 479.613C353.369 478.65 350.442 477.523 347.586 476.235C341.767 473.756 335.302 471.329 328.908 473.039C328.176 473.24 327.459 473.494 326.763 473.798C326.01 474.122 326.661 475.215 327.409 474.894V474.894Z" fill="#3F3D56"/>
<path d="M325.045 490.449H273.826L285.879 469.738C286.095 469.366 286.406 469.058 286.78 468.844C287.155 468.63 287.579 468.517 288.011 468.517C288.443 468.517 288.868 468.63 289.242 468.844C289.616 469.058 289.927 469.366 290.143 469.738L295.292 478.585L304.047 463.541C304.318 463.077 304.707 462.691 305.175 462.422C305.644 462.154 306.175 462.013 306.716 462.013C307.257 462.013 307.789 462.154 308.257 462.422C308.726 462.691 309.115 463.077 309.385 463.541L325.045 490.449Z" fill="#C4C1F6"/>
<path d="M325.094 490.444H270.493C269.89 490.443 269.312 490.205 268.886 489.782C268.459 489.359 268.219 488.785 268.219 488.187V457.956C268.219 457.358 268.459 456.784 268.886 456.361C269.312 455.938 269.89 455.7 270.493 455.699H325.094C325.697 455.7 326.275 455.938 326.702 456.361C327.128 456.784 327.368 457.358 327.369 457.956V488.187C327.368 488.785 327.128 489.359 326.702 489.782C326.275 490.205 325.697 490.443 325.094 490.444ZM270.493 456.602C270.132 456.602 269.785 456.745 269.529 456.999C269.273 457.253 269.129 457.597 269.128 457.956V488.187C269.129 488.546 269.273 488.89 269.529 489.144C269.785 489.398 270.132 489.541 270.493 489.541H325.094C325.456 489.541 325.803 489.398 326.059 489.144C326.314 488.89 326.458 488.546 326.459 488.187V457.956C326.458 457.597 326.314 457.253 326.059 456.999C325.803 456.745 325.456 456.602 325.094 456.602H270.493Z" fill="#3F3D56"/>
<path d="M432.185 463.837L422.453 468.74C418.979 470.49 415.627 470.191 414.343 466.542C414.037 465.674 413.925 464.75 414.012 463.834C414.1 462.919 414.386 462.033 414.851 461.237C415.316 460.441 415.948 459.755 416.705 459.224C417.463 458.693 418.326 458.331 419.238 458.162L428.488 456.449L468.102 443.411L492.099 426.531L500.896 440.434L473.168 455.277L432.185 463.837Z" fill="#FFB8B8"/>
<path d="M477.617 626.572L470.17 625.341L470.998 611.388H478.858L477.617 626.572Z" fill="#FFB8B8"/>
<path d="M549.886 612.944L542.68 615.174L537.08 602.349L544.096 598.835L549.886 612.944Z" fill="#FFB8B8"/>
<path d="M545.873 600.718L536.772 604.411L493.336 547.779L479.685 614.26L470.584 612.619C464.746 555.303 459.985 496.842 465.827 469.192L499.541 467.755L514.847 516.18L522.293 549.01L545.873 600.718Z" fill="#2F2E41"/>
<path d="M477.207 637.856C475.845 638.146 474.426 637.996 473.157 637.429L468.733 635.454C465.024 635.266 462.499 635.998 460.434 633.325C459.851 632.561 459.485 631.656 459.374 630.704C459.263 629.752 459.411 628.788 459.802 627.912C460.189 627.033 460.806 626.273 461.588 625.708C462.37 625.143 463.29 624.796 464.252 624.7L470.328 620.902L470.647 623.749C473.423 625.31 476.72 624.636 480.213 623.117L482.12 629.738C482.366 630.591 482.433 631.486 482.316 632.366C482.198 633.246 481.9 634.093 481.44 634.855C480.979 635.616 480.366 636.275 479.637 636.791C478.909 637.308 478.082 637.67 477.207 637.856Z" fill="#2F2E41"/>
<path d="M552.835 624.275C551.642 624.987 550.251 625.303 548.864 625.176L544.034 624.733C540.464 625.749 538.315 627.256 535.487 625.393C534.686 624.858 534.044 624.12 533.627 623.255C533.211 622.391 533.035 621.431 533.118 620.477C533.197 619.521 533.531 618.602 534.086 617.816C534.641 617.031 535.396 616.405 536.275 616.005L540.779 610.456L542.012 613.046C545.149 613.627 548.047 611.928 550.853 609.366L554.824 615.013C555.336 615.742 555.692 616.566 555.869 617.437C556.047 618.307 556.042 619.204 555.856 620.073C555.669 620.941 555.305 621.762 554.785 622.485C554.265 623.208 553.601 623.817 552.835 624.275Z" fill="#2F2E41"/>
<path d="M487.131 409.482C495.356 409.482 502.023 402.867 502.023 394.708C502.023 386.549 495.356 379.934 487.131 379.934C478.906 379.934 472.239 386.549 472.239 394.708C472.239 402.867 478.906 409.482 487.131 409.482Z" fill="#FFB8B8"/>
<path d="M505.333 425.897L485.89 421.793L483.408 405.788L497.059 402.916L505.333 425.897Z" fill="#FFB8B8"/>
<path d="M499.955 469.807H465.206L473.039 450.299C472.469 443.587 475.337 438.65 479.442 434.352L484.649 421.383C493.062 415.889 499.405 416.3 506.16 423.435C514.169 434.683 508.625 451.592 499.955 469.807Z" fill="#C4C1F6"/>
<path d="M484.235 511.256L483.247 522.039C482.894 525.888 480.857 528.546 477.059 527.685C476.155 527.48 475.307 527.084 474.571 526.523C473.836 525.963 473.232 525.252 472.8 524.438C472.367 523.624 472.117 522.728 472.067 521.809C472.016 520.891 472.166 519.973 472.507 519.117L475.962 510.435L485.89 470.218L484.235 441.081H500.782L498.714 472.27L484.235 511.256Z" fill="#FFB8B8"/>
<path d="M502.023 441.902H482.994L484.328 429.587C484.416 427.457 485.303 425.437 486.816 423.923C488.328 422.409 490.356 421.51 492.503 421.404C493.64 421.347 494.777 421.515 495.848 421.897C496.92 422.28 497.904 422.869 498.744 423.632C499.584 424.394 500.264 425.314 500.743 426.339C501.223 427.363 501.493 428.472 501.537 429.601L502.023 441.902Z" fill="#C4C1F6"/>
<path d="M505.562 379.518C508.654 379.518 511.16 377.031 511.16 373.965C511.16 370.898 508.654 368.411 505.562 368.411C502.471 368.411 499.965 370.898 499.965 373.965C499.965 377.031 502.471 379.518 505.562 379.518Z" fill="#2F2E41"/>
<path d="M499.795 372.605C499.887 371.196 500.516 369.875 501.556 368.911C502.596 367.946 503.966 367.412 505.39 367.415C505.274 367.4 505.16 367.383 505.042 367.375C503.561 367.282 502.103 367.775 500.989 368.748C499.874 369.72 499.195 371.092 499.1 372.561C499.004 374.03 499.501 375.476 500.481 376.582C501.46 377.688 502.842 378.363 504.323 378.458C504.441 378.466 504.557 378.463 504.674 378.463C503.262 378.286 501.971 377.581 501.065 376.493C500.158 375.404 499.704 374.014 499.795 372.605Z" fill="#2F2E41"/>
<path d="M499.763 374.976C494.771 370.868 480.452 376.089 479.528 378.852C472.777 379.764 467.666 383.672 467.666 390.619V390.619C471.679 392.25 476.244 392.049 481.178 390.619C489.044 396.978 489.584 404.972 484.8 414.154L490.685 414.271L497.98 403.694L498.329 414.422L511.819 414.154V398.78C511.863 393.668 510.677 388.619 508.359 384.053C506.257 380.002 502.995 377.636 499.763 374.976Z" fill="#2F2E41"/>
<path d="M487.201 402.14C488.679 402.14 489.878 400.475 489.878 398.422C489.878 396.369 488.679 394.704 487.201 394.704C485.723 394.704 484.524 396.369 484.524 398.422C484.524 400.475 485.723 402.14 487.201 402.14Z" fill="#FFB8B8"/>
<path d="M150.396 403.14C150.396 403.14 152.008 375.472 160.373 381.759C168.738 388.045 156.72 405.705 156.72 405.705L150.396 403.14Z" fill="#FFB9B9"/>
<path d="M119.275 485.209C119.275 485.209 137.856 505.903 127.46 507.325C117.064 508.748 112.974 487.83 112.974 487.83L119.275 485.209Z" fill="#FFB9B9"/>
<path d="M95.0268 387.252C97.359 387.861 99.4579 389.14 101.06 390.928C102.662 392.716 103.696 394.934 104.031 397.303L109.942 439.038L118.228 472.329C118.228 472.329 122.371 476.028 120.714 478.083C119.056 480.138 122.785 488.769 122.785 488.769L112.428 492.057C112.428 492.057 111.185 483.426 109.113 483.015C107.293 482.654 86.9133 428.647 82.001 415.564C81.3237 413.76 80.9404 412.734 80.9404 412.734C80.9404 412.734 81.7691 385.197 95.0268 387.252Z" fill="#575A89"/>
<path d="M96.9184 604.894L103.28 616.078C108.207 626.513 103.829 628.408 91.7494 623.236L88.9958 610.03L96.9184 604.894Z" fill="#FFB9B9"/>
<path d="M100.128 619.759C100.128 619.759 103.148 614.881 104.241 615.697C105.333 616.514 109.839 620.052 109.839 620.052L115.707 625.628C115.707 625.628 135.535 627.707 122.936 634.599C110.337 641.491 103.375 635.776 103.375 635.776C103.375 635.776 85.7288 636.687 86.0134 631.803C86.2981 626.919 91.989 619.192 91.989 619.192C91.989 619.192 99.1614 623.963 100.128 619.759Z" fill="#2F2E41"/>
<path d="M68.6875 478.473L74.6518 550.065C74.6518 550.065 74.8506 592.863 81.2126 601.147C87.5745 609.43 87.7733 613.572 87.7733 613.572L100.895 606.866C100.895 606.866 94.1352 595.693 95.5269 593.982C96.3847 592.897 96.9952 591.641 97.3161 590.299L93.7376 546.121L100.497 469.203L68.6875 478.473Z" fill="#2F2E41"/>
<path d="M84.9897 604.894L79.4231 619.489L66.7986 614.253L73.4589 603.316L84.9897 604.894Z" fill="#FFB9B9"/>
<path d="M75.703 614.573C75.703 614.573 80.4378 611.637 81.0297 612.812C81.6216 613.986 83.989 618.976 83.989 618.976L86.6523 626.316C86.6523 626.316 102.928 636.591 89.0197 637.178C75.1112 637.765 71.56 629.838 71.56 629.838C71.56 629.838 55.8759 623.086 58.2434 618.976C60.6108 614.866 68.8967 610.604 68.8967 610.604C68.8967 610.604 73.0397 617.802 75.703 614.573Z" fill="#2F2E41"/>
<path d="M119.185 478.67L122.366 544.543C122.366 544.543 93.34 604.105 90.159 605.683C89.2111 606.168 88.3709 606.837 87.688 607.65C87.0051 608.463 86.4933 609.404 86.1828 610.416L68.6875 606.077L76.6399 593.455L94.1352 551.249C94.1352 551.249 96.9185 550.065 97.7138 546.121C98.5091 542.176 100.1 542.176 96.1233 541.388C92.1471 540.599 92.1471 536.654 92.1471 536.654L79.0256 476.698L119.185 478.67Z" fill="#2F2E41"/>
<path d="M120.57 362.074C121.977 353.472 116.089 345.368 107.419 343.972C98.748 342.576 90.5785 348.417 89.1714 357.019C87.7644 365.62 93.6527 373.725 102.323 375.121C110.994 376.516 119.163 370.675 120.57 362.074Z" fill="#FFB9B9"/>
<path d="M90.7554 360.532C90.7554 360.532 89.5625 380.649 87.972 382.622C86.3816 384.594 104.672 384.199 104.672 384.199C104.672 384.199 103.479 367.238 104.672 365.66C105.865 364.082 90.7554 360.532 90.7554 360.532Z" fill="#FFB9B9"/>
<path d="M120.377 483.01C120.377 483.01 75.4453 479.066 67.0974 483.01C67.0974 483.01 70.1705 471.7 69.3765 470.518C68.799 469.654 70.3922 437.439 69.8921 418.856C69.6085 408.37 67.1696 398.13 74.2594 390.344C76.6725 387.7 79.364 385.48 82.2051 384.396C82.2051 384.396 81.4111 376.902 85.3865 376.508C85.3865 376.508 100.499 374.927 106.063 379.664C107.842 381.168 108.961 385.751 109.079 389.7C106.326 403.132 107.3 418.038 109.827 433.5C109.982 434.483 110.152 435.47 110.322 436.457C113.003 451.792 117.056 467.603 120.377 483.01Z" fill="#575A89"/>
<path d="M96.562 364.195C97.9071 364.116 99.2204 364.567 100.556 364.743C105.335 365.372 110.307 361.932 111.362 357.266C111.446 356.644 111.633 356.041 111.914 355.479C112.65 354.288 114.325 354.061 115.706 354.335C117.087 354.609 118.396 355.25 119.802 355.323C121.973 355.436 124.058 354.11 125.215 352.284C126.308 350.4 126.773 348.221 126.543 346.059L125.502 347.143C125.079 346.256 124.916 345.268 125.031 344.293C124.479 344.147 123.899 344.144 123.346 344.285C122.793 344.425 122.286 344.704 121.873 345.094C120.955 345.191 121.648 343.406 120.966 342.788C120.634 342.586 120.239 342.513 119.856 342.582C117.903 342.601 116.324 341.12 114.785 339.927C112.119 337.865 109.002 336.454 105.685 335.809C103.48 335.382 101.135 335.314 99.0445 336.128C97.3566 336.88 95.8332 337.952 94.5602 339.284C91.2866 342.407 88.3878 346.076 87.0259 350.373C85.9188 353.894 85.8874 357.661 86.9358 361.199C87.4845 363.036 89.1384 369.328 91.5595 369.475C94.6018 369.659 92.7753 364.42 96.562 364.195Z" fill="#2F2E41"/>
<path d="M103.145 389.188L108.844 389.794C108.844 389.794 114.437 400.559 114.031 402.805C113.625 405.051 112.74 403.687 115.258 407.28C117.775 410.872 124.919 420.159 125.804 421.522C126.688 422.885 150.806 404.631 149.306 399.162C149.306 399.162 156.923 404.583 160.186 405.304C160.186 405.304 135.332 437.641 131.868 441.779C128.405 445.917 125.617 445.067 120.857 442.614C116.097 440.16 92.0171 415.686 92.0171 415.686L103.145 389.188Z" fill="#575A89"/>
<path opacity="0.1" d="M110.322 436.457L90.5171 416.81L95.5289 415.188L109.827 433.5C109.982 434.483 110.152 435.47 110.322 436.457Z" fill="black"/>
</g>
<rect y="72" width="107" height="26" fill="#88A4A6" fill-opacity="0.5"/>
<rect x="345" y="72" width="142" height="25" fill="#88A4A6" fill-opacity="0.5"/>
<rect x="488" y="121" width="101" height="26" fill="#88A4A6" fill-opacity="0.5"/>
<path d="M14.5312 12.5859C14.3203 14.3906 13.6523 15.7852 12.5273 16.7695C11.4102 17.7461 9.92188 18.2344 8.0625 18.2344C6.04688 18.2344 4.42969 17.5117 3.21094 16.0664C2 14.6211 1.39453 12.6875 1.39453 10.2656V8.625C1.39453 7.03906 1.67578 5.64453 2.23828 4.44141C2.80859 3.23828 3.61328 2.31641 4.65234 1.67578C5.69141 1.02734 6.89453 0.703125 8.26172 0.703125C10.0742 0.703125 11.5273 1.21094 12.6211 2.22656C13.7148 3.23438 14.3516 4.63281 14.5312 6.42188H12.2695C12.0742 5.0625 11.6484 4.07812 10.9922 3.46875C10.3438 2.85938 9.43359 2.55469 8.26172 2.55469C6.82422 2.55469 5.69531 3.08594 4.875 4.14844C4.0625 5.21094 3.65625 6.72266 3.65625 8.68359V10.3359C3.65625 12.1875 4.04297 13.6602 4.81641 14.7539C5.58984 15.8477 6.67188 16.3945 8.0625 16.3945C9.3125 16.3945 10.2695 16.1133 10.9336 15.5508C11.6055 14.9805 12.0508 13.9922 12.2695 12.5859H14.5312ZM20.6414 6.85547C21.6023 5.67578 22.8523 5.08594 24.3914 5.08594C27.0711 5.08594 28.4227 6.59766 28.4461 9.62109V18H26.2781V9.60938C26.2703 8.69531 26.0594 8.01953 25.6453 7.58203C25.2391 7.14453 24.6023 6.92578 23.7352 6.92578C23.032 6.92578 22.4148 7.11328 21.8836 7.48828C21.3523 7.86328 20.9383 8.35547 20.6414 8.96484V18H18.4734V0H20.6414V6.85547ZM40.7203 18C40.5953 17.75 40.4937 17.3047 40.4156 16.6641C39.4078 17.7109 38.2047 18.2344 36.8062 18.2344C35.5562 18.2344 34.5289 17.8828 33.7242 17.1797C32.9273 16.4688 32.5289 15.5703 32.5289 14.4844C32.5289 13.1641 33.0289 12.1406 34.0289 11.4141C35.0367 10.6797 36.4508 10.3125 38.2711 10.3125H40.3805V9.31641C40.3805 8.55859 40.1539 7.95703 39.7008 7.51172C39.2477 7.05859 38.5797 6.83203 37.6969 6.83203C36.9234 6.83203 36.275 7.02734 35.7516 7.41797C35.2281 7.80859 34.9664 8.28125 34.9664 8.83594H32.7867C32.7867 8.20312 33.0094 7.59375 33.4547 7.00781C33.9078 6.41406 34.5172 5.94531 35.2828 5.60156C36.0562 5.25781 36.9039 5.08594 37.8258 5.08594C39.2867 5.08594 40.4312 5.45312 41.2594 6.1875C42.0875 6.91406 42.5172 7.91797 42.5484 9.19922V15.0352C42.5484 16.1992 42.6969 17.125 42.9937 17.8125V18H40.7203ZM37.1227 16.3477C37.8023 16.3477 38.4469 16.1719 39.0562 15.8203C39.6656 15.4688 40.107 15.0117 40.3805 14.4492V11.8477H38.6812C36.025 11.8477 34.6969 12.625 34.6969 14.1797C34.6969 14.8594 34.9234 15.3906 35.3766 15.7734C35.8297 16.1562 36.4117 16.3477 37.1227 16.3477ZM49.1977 5.32031L49.268 6.91406C50.2367 5.69531 51.5023 5.08594 53.0648 5.08594C55.7445 5.08594 57.0961 6.59766 57.1195 9.62109V18H54.9516V9.60938C54.9437 8.69531 54.7328 8.01953 54.3187 7.58203C53.9125 7.14453 53.2758 6.92578 52.4086 6.92578C51.7055 6.92578 51.0883 7.11328 50.557 7.48828C50.0258 7.86328 49.6117 8.35547 49.3148 8.96484V18H47.1469V5.32031H49.1977ZM61.0734 11.5547C61.0734 9.57812 61.5305 8.00781 62.4445 6.84375C63.3586 5.67188 64.5695 5.08594 66.0773 5.08594C67.6242 5.08594 68.8312 5.63281 69.6984 6.72656L69.8039 5.32031H71.7844V17.6953C71.7844 19.3359 71.2961 20.6289 70.3195 21.5742C69.3508 22.5195 68.0461 22.9922 66.4055 22.9922C65.4914 22.9922 64.5969 22.7969 63.7219 22.4062C62.8469 22.0156 62.1789 21.4805 61.718 20.8008L62.843 19.5C63.7727 20.6484 64.9094 21.2227 66.2531 21.2227C67.3078 21.2227 68.1281 20.9258 68.7141 20.332C69.3078 19.7383 69.6047 18.9023 69.6047 17.8242V16.7344C68.7375 17.7344 67.5539 18.2344 66.0539 18.2344C64.5695 18.2344 63.3664 17.6367 62.4445 16.4414C61.5305 15.2461 61.0734 13.6172 61.0734 11.5547ZM63.2531 11.8008C63.2531 13.2305 63.5461 14.3555 64.132 15.1758C64.718 15.9883 65.5383 16.3945 66.593 16.3945C67.9602 16.3945 68.9641 15.7734 69.6047 14.5312V8.74219C68.9406 7.53125 67.9445 6.92578 66.6164 6.92578C65.5617 6.92578 64.7375 7.33594 64.1437 8.15625C63.55 8.97656 63.2531 10.1914 63.2531 11.8008ZM81.5273 18.2344C79.8086 18.2344 78.4102 17.6719 77.332 16.5469C76.2539 15.4141 75.7148 13.9023 75.7148 12.0117V11.6133C75.7148 10.3555 75.9531 9.23438 76.4297 8.25C76.9141 7.25781 77.5859 6.48438 78.4453 5.92969C79.3125 5.36719 80.25 5.08594 81.2578 5.08594C82.9062 5.08594 84.1875 5.62891 85.1016 6.71484C86.0156 7.80078 86.4727 9.35547 86.4727 11.3789V12.2812H77.8828C77.9141 13.5312 78.2773 14.543 78.9727 15.3164C79.6758 16.082 80.5664 16.4648 81.6445 16.4648C82.4102 16.4648 83.0586 16.3086 83.5898 15.9961C84.1211 15.6836 84.5859 15.2695 84.9844 14.7539L86.3086 15.7852C85.2461 17.418 83.6523 18.2344 81.5273 18.2344ZM81.2578 6.86719C80.3828 6.86719 79.6484 7.1875 79.0547 7.82812C78.4609 8.46094 78.0938 9.35156 77.9531 10.5H84.3047V10.3359C84.2422 9.23438 83.9453 8.38281 83.4141 7.78125C82.8828 7.17188 82.1641 6.86719 81.2578 6.86719ZM103.645 18H101.384V10.1133H92.782V18H90.532V0.9375H92.782V8.27344H101.384V0.9375H103.645V18ZM116.33 16.7461C115.486 17.7383 114.248 18.2344 112.615 18.2344C111.263 18.2344 110.232 17.8438 109.521 17.0625C108.818 16.2734 108.463 15.1094 108.455 13.5703V5.32031H110.623V13.5117C110.623 15.4336 111.404 16.3945 112.966 16.3945C114.623 16.3945 115.724 15.7773 116.271 14.543V5.32031H118.439V18H116.377L116.33 16.7461ZM133.678 11.8008C133.678 13.7383 133.233 15.2969 132.342 16.4766C131.452 17.6484 130.256 18.2344 128.756 18.2344C127.155 18.2344 125.916 17.668 125.041 16.5352L124.936 18H122.944V0H125.112V6.71484C125.987 5.62891 127.194 5.08594 128.733 5.08594C130.272 5.08594 131.479 5.66797 132.354 6.83203C133.237 7.99609 133.678 9.58984 133.678 11.6133V11.8008ZM131.51 11.5547C131.51 10.0781 131.225 8.9375 130.655 8.13281C130.084 7.32812 129.264 6.92578 128.194 6.92578C126.764 6.92578 125.737 7.58984 125.112 8.91797V14.4023C125.776 15.7305 126.811 16.3945 128.217 16.3945C129.256 16.3945 130.065 15.9922 130.643 15.1875C131.221 14.3828 131.51 13.1719 131.51 11.5547Z" fill="black"/>
<defs>
<clipPath id="clip0">
<rect width="498" height="373" fill="white" transform="translate(58 265)"/>
</clipPath>
</defs>
</svg>
