<svg width="645" height="638" viewBox="0 0 645 638" fill="none" xmlns="http://www.w3.org/2000/svg">
<path d="M19.0156 88.7891C15.1562 87.6797 12.3438 86.3203 10.5781 84.7109C8.82812 83.0859 7.95312 81.0859 7.95312 78.7109C7.95312 76.0234 9.02344 73.8047 11.1641 72.0547C13.3203 70.2891 16.1172 69.4062 19.5547 69.4062C21.8984 69.4062 23.9844 69.8594 25.8125 70.7656C27.6562 71.6719 29.0781 72.9219 30.0781 74.5156C31.0938 76.1094 31.6016 77.8516 31.6016 79.7422H27.0781C27.0781 77.6797 26.4219 76.0625 25.1094 74.8906C23.7969 73.7031 21.9453 73.1094 19.5547 73.1094C17.3359 73.1094 15.6016 73.6016 14.3516 74.5859C13.1172 75.5547 12.5 76.9062 12.5 78.6406C12.5 80.0312 13.0859 81.2109 14.2578 82.1797C15.4453 83.1328 17.4531 84.0078 20.2812 84.8047C23.125 85.6016 25.3438 86.4844 26.9375 87.4531C28.5469 88.4062 29.7344 89.5234 30.5 90.8047C31.2812 92.0859 31.6719 93.5938 31.6719 95.3281C31.6719 98.0938 30.5938 100.312 28.4375 101.984C26.2812 103.641 23.3984 104.469 19.7891 104.469C17.4453 104.469 15.2578 104.023 13.2266 103.133C11.1953 102.227 9.625 100.992 8.51562 99.4297C7.42188 97.8672 6.875 96.0938 6.875 94.1094H11.3984C11.3984 96.1719 12.1562 97.8047 13.6719 99.0078C15.2031 100.195 17.2422 100.789 19.7891 100.789C22.1641 100.789 23.9844 100.305 25.25 99.3359C26.5156 98.3672 27.1484 97.0469 27.1484 95.375C27.1484 93.7031 26.5625 92.4141 25.3906 91.5078C24.2188 90.5859 22.0938 89.6797 19.0156 88.7891ZM43.8922 104H39.5562V78.6406H43.8922V104ZM39.2047 71.9141C39.2047 71.2109 39.4156 70.6172 39.8375 70.1328C40.275 69.6484 40.9156 69.4062 41.7594 69.4062C42.6031 69.4062 43.2437 69.6484 43.6812 70.1328C44.1187 70.6172 44.3375 71.2109 44.3375 71.9141C44.3375 72.6172 44.1187 73.2031 43.6812 73.6719C43.2437 74.1406 42.6031 74.375 41.7594 74.375C40.9156 74.375 40.275 74.1406 39.8375 73.6719C39.4156 73.2031 39.2047 72.6172 39.2047 71.9141ZM52.2219 91.1094C52.2219 87.1562 53.1359 84.0156 54.9641 81.6875C56.7922 79.3438 59.2141 78.1719 62.2297 78.1719C65.3234 78.1719 67.7375 79.2656 69.4719 81.4531L69.6828 78.6406H73.6437V103.391C73.6437 106.672 72.6672 109.258 70.7141 111.148C68.7766 113.039 66.1672 113.984 62.8859 113.984C61.0578 113.984 59.2687 113.594 57.5187 112.812C55.7687 112.031 54.4328 110.961 53.5109 109.602L55.7609 107C57.6203 109.297 59.8937 110.445 62.5812 110.445C64.6906 110.445 66.3312 109.852 67.5031 108.664C68.6906 107.477 69.2844 105.805 69.2844 103.648V101.469C67.55 103.469 65.1828 104.469 62.1828 104.469C59.2141 104.469 56.8078 103.273 54.9641 100.883C53.1359 98.4922 52.2219 95.2344 52.2219 91.1094ZM56.5812 91.6016C56.5812 94.4609 57.1672 96.7109 58.3391 98.3516C59.5109 99.9766 61.1516 100.789 63.2609 100.789C65.9953 100.789 68.0031 99.5469 69.2844 97.0625V85.4844C67.9562 83.0625 65.9641 81.8516 63.3078 81.8516C61.1984 81.8516 59.55 82.6719 58.3625 84.3125C57.175 85.9531 56.5812 88.3828 56.5812 91.6016ZM86.7078 78.6406L86.8484 81.8281C88.7859 79.3906 91.3172 78.1719 94.4422 78.1719C99.8016 78.1719 102.505 81.1953 102.552 87.2422V104H98.2156V87.2188C98.2 85.3906 97.7781 84.0391 96.95 83.1641C96.1375 82.2891 94.8641 81.8516 93.1297 81.8516C91.7234 81.8516 90.4891 82.2266 89.4266 82.9766C88.3641 83.7266 87.5359 84.7109 86.9422 85.9297V104H82.6062V78.6406H86.7078ZM147.219 91.6016C147.219 95.4609 146.336 98.5703 144.57 100.93C142.805 103.289 140.414 104.469 137.398 104.469C134.32 104.469 131.898 103.492 130.133 101.539V113.75H125.797V78.6406H129.758L129.969 81.4531C131.734 79.2656 134.188 78.1719 137.328 78.1719C140.375 78.1719 142.781 79.3203 144.547 81.6172C146.328 83.9141 147.219 87.1094 147.219 91.2031V91.6016ZM142.883 91.1094C142.883 88.25 142.273 85.9922 141.055 84.3359C139.836 82.6797 138.164 81.8516 136.039 81.8516C133.414 81.8516 131.445 83.0156 130.133 85.3438V97.4609C131.43 99.7734 133.414 100.93 136.086 100.93C138.164 100.93 139.812 100.109 141.031 98.4688C142.266 96.8125 142.883 94.3594 142.883 91.1094ZM165.673 104.469C162.236 104.469 159.439 103.344 157.283 101.094C155.127 98.8281 154.048 95.8047 154.048 92.0234V91.2266C154.048 88.7109 154.525 86.4688 155.478 84.5C156.447 82.5156 157.791 80.9688 159.509 79.8594C161.244 78.7344 163.119 78.1719 165.134 78.1719C168.431 78.1719 170.994 79.2578 172.822 81.4297C174.65 83.6016 175.564 86.7109 175.564 90.7578V92.5625H158.384C158.447 95.0625 159.173 97.0859 160.564 98.6328C161.97 100.164 163.752 100.93 165.908 100.93C167.439 100.93 168.736 100.617 169.798 99.9922C170.861 99.3672 171.791 98.5391 172.587 97.5078L175.236 99.5703C173.111 102.836 169.923 104.469 165.673 104.469ZM165.134 81.7344C163.384 81.7344 161.916 82.375 160.728 83.6562C159.541 84.9219 158.806 86.7031 158.525 89H171.228V88.6719C171.103 86.4688 170.509 84.7656 169.447 83.5625C168.384 82.3438 166.947 81.7344 165.134 81.7344ZM188.886 72.5V78.6406H193.62V81.9922H188.886V97.7188C188.886 98.7344 189.097 99.5 189.519 100.016C189.941 100.516 190.659 100.766 191.675 100.766C192.175 100.766 192.863 100.672 193.738 100.484V104C192.597 104.312 191.488 104.469 190.409 104.469C188.472 104.469 187.011 103.883 186.027 102.711C185.042 101.539 184.55 99.875 184.55 97.7188V81.9922H179.933V78.6406H184.55V72.5H188.886ZM205.817 104H201.481V78.6406H205.817V104ZM201.13 71.9141C201.13 71.2109 201.341 70.6172 201.762 70.1328C202.2 69.6484 202.841 69.4062 203.684 69.4062C204.528 69.4062 205.169 69.6484 205.606 70.1328C206.044 70.6172 206.262 71.2109 206.262 71.9141C206.262 72.6172 206.044 73.2031 205.606 73.6719C205.169 74.1406 204.528 74.375 203.684 74.375C202.841 74.375 202.2 74.1406 201.762 73.6719C201.341 73.2031 201.13 72.6172 201.13 71.9141ZM221.061 72.5V78.6406H225.795V81.9922H221.061V97.7188C221.061 98.7344 221.272 99.5 221.694 100.016C222.116 100.516 222.834 100.766 223.85 100.766C224.35 100.766 225.038 100.672 225.913 100.484V104C224.772 104.312 223.663 104.469 222.584 104.469C220.647 104.469 219.186 103.883 218.202 102.711C217.217 101.539 216.725 99.875 216.725 97.7188V81.9922H212.108V78.6406H216.725V72.5H221.061ZM237.992 104H233.656V78.6406H237.992V104ZM233.305 71.9141C233.305 71.2109 233.516 70.6172 233.938 70.1328C234.375 69.6484 235.016 69.4062 235.859 69.4062C236.703 69.4062 237.344 69.6484 237.781 70.1328C238.219 70.6172 238.438 71.2109 238.438 71.9141C238.438 72.6172 238.219 73.2031 237.781 73.6719C237.344 74.1406 236.703 74.375 235.859 74.375C235.016 74.375 234.375 74.1406 233.938 73.6719C233.516 73.2031 233.305 72.6172 233.305 71.9141ZM246.205 91.0859C246.205 88.6016 246.689 86.3672 247.658 84.3828C248.642 82.3984 250.002 80.8672 251.736 79.7891C253.486 78.7109 255.478 78.1719 257.712 78.1719C261.166 78.1719 263.955 79.3672 266.08 81.7578C268.22 84.1484 269.291 87.3281 269.291 91.2969V91.6016C269.291 94.0703 268.814 96.2891 267.861 98.2578C266.923 100.211 265.572 101.734 263.806 102.828C262.056 103.922 260.041 104.469 257.759 104.469C254.322 104.469 251.533 103.273 249.392 100.883C247.267 98.4922 246.205 95.3281 246.205 91.3906V91.0859ZM250.564 91.6016C250.564 94.4141 251.212 96.6719 252.509 98.375C253.822 100.078 255.572 100.93 257.759 100.93C259.962 100.93 261.712 100.07 263.009 98.3516C264.306 96.6172 264.955 94.1953 264.955 91.0859C264.955 88.3047 264.291 86.0547 262.962 84.3359C261.65 82.6016 259.9 81.7344 257.712 81.7344C255.572 81.7344 253.845 82.5859 252.533 84.2891C251.22 85.9922 250.564 88.4297 250.564 91.6016ZM281.23 78.6406L281.37 81.8281C283.308 79.3906 285.839 78.1719 288.964 78.1719C294.323 78.1719 297.027 81.1953 297.073 87.2422V104H292.737V87.2188C292.722 85.3906 292.3 84.0391 291.472 83.1641C290.659 82.2891 289.386 81.8516 287.652 81.8516C286.245 81.8516 285.011 82.2266 283.948 82.9766C282.886 83.7266 282.058 84.7109 281.464 85.9297V104H277.128V78.6406H281.23ZM320.778 97.2734C320.778 96.1016 320.333 95.1953 319.442 94.5547C318.567 93.8984 317.028 93.3359 314.825 92.8672C312.638 92.3984 310.895 91.8359 309.598 91.1797C308.317 90.5234 307.364 89.7422 306.739 88.8359C306.13 87.9297 305.825 86.8516 305.825 85.6016C305.825 83.5234 306.7 81.7656 308.45 80.3281C310.216 78.8906 312.466 78.1719 315.2 78.1719C318.075 78.1719 320.403 78.9141 322.184 80.3984C323.981 81.8828 324.88 83.7812 324.88 86.0938H320.52C320.52 84.9062 320.013 83.8828 318.997 83.0234C317.997 82.1641 316.731 81.7344 315.2 81.7344C313.622 81.7344 312.388 82.0781 311.497 82.7656C310.606 83.4531 310.161 84.3516 310.161 85.4609C310.161 86.5078 310.575 87.2969 311.403 87.8281C312.231 88.3594 313.723 88.8672 315.88 89.3516C318.052 89.8359 319.809 90.4141 321.153 91.0859C322.497 91.7578 323.489 92.5703 324.13 93.5234C324.786 94.4609 325.114 95.6094 325.114 96.9688C325.114 99.2344 324.208 101.055 322.395 102.43C320.583 103.789 318.231 104.469 315.341 104.469C313.309 104.469 311.513 104.109 309.95 103.391C308.388 102.672 307.161 101.672 306.27 100.391C305.395 99.0938 304.958 97.6953 304.958 96.1953H309.294C309.372 97.6484 309.95 98.8047 311.028 99.6641C312.122 100.508 313.559 100.93 315.341 100.93C316.981 100.93 318.294 100.602 319.278 99.9453C320.278 99.2734 320.778 98.3828 320.778 97.2734ZM333.022 110.797L330.561 109.109C332.03 107.062 332.795 104.953 332.858 102.781V98.8672H337.1V102.266C337.1 103.844 336.709 105.422 335.928 107C335.163 108.578 334.194 109.844 333.022 110.797ZM369.814 104.469C366.377 104.469 363.58 103.344 361.423 101.094C359.267 98.8281 358.189 95.8047 358.189 92.0234V91.2266C358.189 88.7109 358.666 86.4688 359.619 84.5C360.587 82.5156 361.931 80.9688 363.65 79.8594C365.384 78.7344 367.259 78.1719 369.275 78.1719C372.572 78.1719 375.134 79.2578 376.962 81.4297C378.791 83.6016 379.705 86.7109 379.705 90.7578V92.5625H362.525C362.587 95.0625 363.314 97.0859 364.705 98.6328C366.111 100.164 367.892 100.93 370.048 100.93C371.58 100.93 372.877 100.617 373.939 99.9922C375.002 99.3672 375.931 98.5391 376.728 97.5078L379.377 99.5703C377.252 102.836 374.064 104.469 369.814 104.469ZM369.275 81.7344C367.525 81.7344 366.056 82.375 364.869 83.6562C363.681 84.9219 362.947 86.7031 362.666 89H375.369V88.6719C375.244 86.4688 374.65 84.7656 373.587 83.5625C372.525 82.3438 371.087 81.7344 369.275 81.7344ZM391.222 78.6406L391.339 81.4531C393.198 79.2656 395.706 78.1719 398.862 78.1719C402.409 78.1719 404.823 79.5312 406.105 82.25C406.948 81.0312 408.042 80.0469 409.386 79.2969C410.745 78.5469 412.347 78.1719 414.191 78.1719C419.753 78.1719 422.581 81.1172 422.675 87.0078V104H418.339V87.2656C418.339 85.4531 417.925 84.1016 417.097 83.2109C416.269 82.3047 414.878 81.8516 412.925 81.8516C411.316 81.8516 409.98 82.3359 408.917 83.3047C407.855 84.2578 407.237 85.5469 407.066 87.1719V104H402.706V87.3828C402.706 83.6953 400.902 81.8516 397.292 81.8516C394.448 81.8516 392.503 83.0625 391.456 85.4844V104H387.12V78.6406H391.222ZM447.294 104C447.044 103.5 446.841 102.609 446.684 101.328C444.669 103.422 442.263 104.469 439.466 104.469C436.966 104.469 434.911 103.766 433.302 102.359C431.708 100.938 430.911 99.1406 430.911 96.9688C430.911 94.3281 431.911 92.2812 433.911 90.8281C435.927 89.3594 438.755 88.625 442.395 88.625H446.614V86.6328C446.614 85.1172 446.161 83.9141 445.255 83.0234C444.348 82.1172 443.013 81.6641 441.247 81.6641C439.7 81.6641 438.403 82.0547 437.356 82.8359C436.309 83.6172 435.786 84.5625 435.786 85.6719H431.427C431.427 84.4062 431.872 83.1875 432.763 82.0156C433.669 80.8281 434.888 79.8906 436.419 79.2031C437.966 78.5156 439.661 78.1719 441.505 78.1719C444.427 78.1719 446.716 78.9062 448.372 80.375C450.028 81.8281 450.888 83.8359 450.95 86.3984V98.0703C450.95 100.398 451.247 102.25 451.841 103.625V104H447.294ZM440.098 100.695C441.458 100.695 442.747 100.344 443.966 99.6406C445.184 98.9375 446.067 98.0234 446.614 96.8984V91.6953H443.216C437.903 91.6953 435.247 93.25 435.247 96.3594C435.247 97.7188 435.7 98.7812 436.606 99.5469C437.513 100.312 438.677 100.695 440.098 100.695ZM464.858 104H460.522V78.6406H464.858V104ZM460.17 71.9141C460.17 71.2109 460.381 70.6172 460.803 70.1328C461.241 69.6484 461.881 69.4062 462.725 69.4062C463.569 69.4062 464.209 69.6484 464.647 70.1328C465.084 70.6172 465.303 71.2109 465.303 71.9141C465.303 72.6172 465.084 73.2031 464.647 73.6719C464.209 74.1406 463.569 74.375 462.725 74.375C461.881 74.375 461.241 74.1406 460.803 73.6719C460.381 73.2031 460.17 72.6172 460.17 71.9141ZM478.93 104H474.594V68H478.93V104ZM510.894 97.6484L516.8 78.6406H521.441L511.245 107.914C509.667 112.133 507.159 114.242 503.722 114.242L502.902 114.172L501.284 113.867V110.352L502.456 110.445C503.925 110.445 505.066 110.148 505.878 109.555C506.706 108.961 507.386 107.875 507.917 106.297L508.878 103.719L499.831 78.6406H504.566L510.894 97.6484ZM526.208 91.0859C526.208 88.6016 526.692 86.3672 527.661 84.3828C528.645 82.3984 530.005 80.8672 531.739 79.7891C533.489 78.7109 535.481 78.1719 537.716 78.1719C541.169 78.1719 543.958 79.3672 546.083 81.7578C548.223 84.1484 549.294 87.3281 549.294 91.2969V91.6016C549.294 94.0703 548.817 96.2891 547.864 98.2578C546.927 100.211 545.575 101.734 543.809 102.828C542.059 103.922 540.044 104.469 537.763 104.469C534.325 104.469 531.536 103.273 529.395 100.883C527.27 98.4922 526.208 95.3281 526.208 91.3906V91.0859ZM530.567 91.6016C530.567 94.4141 531.216 96.6719 532.513 98.375C533.825 100.078 535.575 100.93 537.763 100.93C539.966 100.93 541.716 100.07 543.013 98.3516C544.309 96.6172 544.958 94.1953 544.958 91.0859C544.958 88.3047 544.294 86.0547 542.966 84.3359C541.653 82.6016 539.903 81.7344 537.716 81.7344C535.575 81.7344 533.848 82.5859 532.536 84.2891C531.223 85.9922 530.567 88.4297 530.567 91.6016ZM572.787 101.492C571.1 103.477 568.623 104.469 565.358 104.469C562.655 104.469 560.592 103.688 559.17 102.125C557.764 100.547 557.053 98.2188 557.037 95.1406V78.6406H561.373V95.0234C561.373 98.8672 562.936 100.789 566.061 100.789C569.373 100.789 571.577 99.5547 572.67 97.0859V78.6406H577.006V104H572.881L572.787 101.492ZM598.273 82.5312C597.617 82.4219 596.906 82.3672 596.141 82.3672C593.297 82.3672 591.367 83.5781 590.352 86V104H586.016V78.6406H590.234L590.305 81.5703C591.727 79.3047 593.742 78.1719 596.352 78.1719C597.195 78.1719 597.836 78.2812 598.273 78.5V82.5312ZM20.5391 138.531C19.8828 138.422 19.1719 138.367 18.4062 138.367C15.5625 138.367 13.6328 139.578 12.6172 142V160H8.28125V134.641H12.5L12.5703 137.57C13.9922 135.305 16.0078 134.172 18.6172 134.172C19.4609 134.172 20.1016 134.281 20.5391 134.5V138.531ZM37.0016 160.469C33.5641 160.469 30.7672 159.344 28.6109 157.094C26.4547 154.828 25.3766 151.805 25.3766 148.023V147.227C25.3766 144.711 25.8531 142.469 26.8062 140.5C27.775 138.516 29.1187 136.969 30.8375 135.859C32.5719 134.734 34.4469 134.172 36.4625 134.172C39.7594 134.172 42.3219 135.258 44.15 137.43C45.9781 139.602 46.8922 142.711 46.8922 146.758V148.562H29.7125C29.775 151.062 30.5016 153.086 31.8922 154.633C33.2984 156.164 35.0797 156.93 37.2359 156.93C38.7672 156.93 40.0641 156.617 41.1266 155.992C42.1891 155.367 43.1187 154.539 43.9156 153.508L46.5641 155.57C44.4391 158.836 41.2516 160.469 37.0016 160.469ZM36.4625 137.734C34.7125 137.734 33.2437 138.375 32.0562 139.656C30.8687 140.922 30.1344 142.703 29.8531 145H42.5562V144.672C42.4312 142.469 41.8375 140.766 40.775 139.562C39.7125 138.344 38.275 137.734 36.4625 137.734ZM75.7531 147.602C75.7531 151.461 74.8703 154.57 73.1047 156.93C71.3391 159.289 68.9484 160.469 65.9328 160.469C62.8547 160.469 60.4328 159.492 58.6672 157.539V169.75H54.3312V134.641H58.2922L58.5031 137.453C60.2687 135.266 62.7219 134.172 65.8625 134.172C68.9094 134.172 71.3156 135.32 73.0812 137.617C74.8625 139.914 75.7531 143.109 75.7531 147.203V147.602ZM71.4172 147.109C71.4172 144.25 70.8078 141.992 69.5891 140.336C68.3703 138.68 66.6984 137.852 64.5734 137.852C61.9484 137.852 59.9797 139.016 58.6672 141.344V153.461C59.9641 155.773 61.9484 156.93 64.6203 156.93C66.6984 156.93 68.3469 156.109 69.5656 154.469C70.8 152.812 71.4172 150.359 71.4172 147.109ZM95.9422 138.531C95.2859 138.422 94.575 138.367 93.8094 138.367C90.9656 138.367 89.0359 139.578 88.0203 142V160H83.6844V134.641H87.9031L87.9734 137.57C89.3953 135.305 91.4109 134.172 94.0203 134.172C94.8641 134.172 95.5047 134.281 95.9422 134.5V138.531ZM112.405 160.469C108.967 160.469 106.17 159.344 104.014 157.094C101.858 154.828 100.78 151.805 100.78 148.023V147.227C100.78 144.711 101.256 142.469 102.209 140.5C103.178 138.516 104.522 136.969 106.241 135.859C107.975 134.734 109.85 134.172 111.866 134.172C115.162 134.172 117.725 135.258 119.553 137.43C121.381 139.602 122.295 142.711 122.295 146.758V148.562H105.116C105.178 151.062 105.905 153.086 107.295 154.633C108.702 156.164 110.483 156.93 112.639 156.93C114.17 156.93 115.467 156.617 116.53 155.992C117.592 155.367 118.522 154.539 119.319 153.508L121.967 155.57C119.842 158.836 116.655 160.469 112.405 160.469ZM111.866 137.734C110.116 137.734 108.647 138.375 107.459 139.656C106.272 140.922 105.537 142.703 105.256 145H117.959V144.672C117.834 142.469 117.241 140.766 116.178 139.562C115.116 138.344 113.678 137.734 111.866 137.734ZM144.5 153.273C144.5 152.102 144.055 151.195 143.164 150.555C142.289 149.898 140.75 149.336 138.547 148.867C136.359 148.398 134.617 147.836 133.32 147.18C132.039 146.523 131.086 145.742 130.461 144.836C129.852 143.93 129.547 142.852 129.547 141.602C129.547 139.523 130.422 137.766 132.172 136.328C133.938 134.891 136.188 134.172 138.922 134.172C141.797 134.172 144.125 134.914 145.906 136.398C147.703 137.883 148.602 139.781 148.602 142.094H144.242C144.242 140.906 143.734 139.883 142.719 139.023C141.719 138.164 140.453 137.734 138.922 137.734C137.344 137.734 136.109 138.078 135.219 138.766C134.328 139.453 133.883 140.352 133.883 141.461C133.883 142.508 134.297 143.297 135.125 143.828C135.953 144.359 137.445 144.867 139.602 145.352C141.773 145.836 143.531 146.414 144.875 147.086C146.219 147.758 147.211 148.57 147.852 149.523C148.508 150.461 148.836 151.609 148.836 152.969C148.836 155.234 147.93 157.055 146.117 158.43C144.305 159.789 141.953 160.469 139.062 160.469C137.031 160.469 135.234 160.109 133.672 159.391C132.109 158.672 130.883 157.672 129.992 156.391C129.117 155.094 128.68 153.695 128.68 152.195H133.016C133.094 153.648 133.672 154.805 134.75 155.664C135.844 156.508 137.281 156.93 139.062 156.93C140.703 156.93 142.016 156.602 143 155.945C144 155.273 144.5 154.383 144.5 153.273ZM167.408 160.469C163.97 160.469 161.173 159.344 159.017 157.094C156.861 154.828 155.783 151.805 155.783 148.023V147.227C155.783 144.711 156.259 142.469 157.212 140.5C158.181 138.516 159.525 136.969 161.244 135.859C162.978 134.734 164.853 134.172 166.869 134.172C170.166 134.172 172.728 135.258 174.556 137.43C176.384 139.602 177.298 142.711 177.298 146.758V148.562H160.119C160.181 151.062 160.908 153.086 162.298 154.633C163.705 156.164 165.486 156.93 167.642 156.93C169.173 156.93 170.47 156.617 171.533 155.992C172.595 155.367 173.525 154.539 174.322 153.508L176.97 155.57C174.845 158.836 171.658 160.469 167.408 160.469ZM166.869 137.734C165.119 137.734 163.65 138.375 162.462 139.656C161.275 140.922 160.541 142.703 160.259 145H172.962V144.672C172.837 142.469 172.244 140.766 171.181 139.562C170.119 138.344 168.681 137.734 166.869 137.734ZM188.839 134.641L188.98 137.828C190.917 135.391 193.448 134.172 196.573 134.172C201.933 134.172 204.636 137.195 204.683 143.242V160H200.347V143.219C200.331 141.391 199.909 140.039 199.081 139.164C198.269 138.289 196.995 137.852 195.261 137.852C193.855 137.852 192.62 138.227 191.558 138.977C190.495 139.727 189.667 140.711 189.073 141.93V160H184.738V134.641H188.839ZM219.505 128.5V134.641H224.239V137.992H219.505V153.719C219.505 154.734 219.716 155.5 220.137 156.016C220.559 156.516 221.278 156.766 222.294 156.766C222.794 156.766 223.481 156.672 224.356 156.484V160C223.216 160.312 222.106 160.469 221.028 160.469C219.091 160.469 217.63 159.883 216.645 158.711C215.661 157.539 215.169 155.875 215.169 153.719V137.992H210.552V134.641H215.169V128.5H219.505ZM247.381 160C247.131 159.5 246.928 158.609 246.772 157.328C244.756 159.422 242.35 160.469 239.553 160.469C237.053 160.469 234.998 159.766 233.389 158.359C231.795 156.938 230.998 155.141 230.998 152.969C230.998 150.328 231.998 148.281 233.998 146.828C236.014 145.359 238.842 144.625 242.483 144.625H246.702V142.633C246.702 141.117 246.248 139.914 245.342 139.023C244.436 138.117 243.1 137.664 241.334 137.664C239.788 137.664 238.491 138.055 237.444 138.836C236.397 139.617 235.873 140.562 235.873 141.672H231.514C231.514 140.406 231.959 139.188 232.85 138.016C233.756 136.828 234.975 135.891 236.506 135.203C238.053 134.516 239.748 134.172 241.592 134.172C244.514 134.172 246.803 134.906 248.459 136.375C250.116 137.828 250.975 139.836 251.038 142.398V154.07C251.038 156.398 251.334 158.25 251.928 159.625V160H247.381ZM240.186 156.695C241.545 156.695 242.834 156.344 244.053 155.641C245.272 154.938 246.155 154.023 246.702 152.898V147.695H243.303C237.991 147.695 235.334 149.25 235.334 152.359C235.334 153.719 235.788 154.781 236.694 155.547C237.6 156.312 238.764 156.695 240.186 156.695ZM266.117 128.5V134.641H270.852V137.992H266.117V153.719C266.117 154.734 266.328 155.5 266.75 156.016C267.172 156.516 267.891 156.766 268.906 156.766C269.406 156.766 270.094 156.672 270.969 156.484V160C269.828 160.312 268.719 160.469 267.641 160.469C265.703 160.469 264.242 159.883 263.258 158.711C262.273 157.539 261.781 155.875 261.781 153.719V137.992H257.164V134.641H261.781V128.5H266.117ZM283.048 160H278.712V134.641H283.048V160ZM278.361 127.914C278.361 127.211 278.572 126.617 278.994 126.133C279.431 125.648 280.072 125.406 280.916 125.406C281.759 125.406 282.4 125.648 282.837 126.133C283.275 126.617 283.494 127.211 283.494 127.914C283.494 128.617 283.275 129.203 282.837 129.672C282.4 130.141 281.759 130.375 280.916 130.375C280.072 130.375 279.431 130.141 278.994 129.672C278.572 129.203 278.361 128.617 278.361 127.914ZM300.777 154.117L307.058 134.641H311.487L302.394 160H299.089L289.902 134.641H294.331L300.777 154.117ZM328.255 160.469C324.817 160.469 322.02 159.344 319.864 157.094C317.708 154.828 316.63 151.805 316.63 148.023V147.227C316.63 144.711 317.106 142.469 318.059 140.5C319.028 138.516 320.372 136.969 322.091 135.859C323.825 134.734 325.7 134.172 327.716 134.172C331.013 134.172 333.575 135.258 335.403 137.43C337.231 139.602 338.145 142.711 338.145 146.758V148.562H320.966C321.028 151.062 321.755 153.086 323.145 154.633C324.552 156.164 326.333 156.93 328.489 156.93C330.02 156.93 331.317 156.617 332.38 155.992C333.442 155.367 334.372 154.539 335.169 153.508L337.817 155.57C335.692 158.836 332.505 160.469 328.255 160.469ZM327.716 137.734C325.966 137.734 324.497 138.375 323.309 139.656C322.122 140.922 321.388 142.703 321.106 145H333.809V144.672C333.684 142.469 333.091 140.766 332.028 139.562C330.966 138.344 329.528 137.734 327.716 137.734ZM360.35 153.273C360.35 152.102 359.905 151.195 359.014 150.555C358.139 149.898 356.6 149.336 354.397 148.867C352.209 148.398 350.467 147.836 349.17 147.18C347.889 146.523 346.936 145.742 346.311 144.836C345.702 143.93 345.397 142.852 345.397 141.602C345.397 139.523 346.272 137.766 348.022 136.328C349.788 134.891 352.038 134.172 354.772 134.172C357.647 134.172 359.975 134.914 361.756 136.398C363.553 137.883 364.452 139.781 364.452 142.094H360.092C360.092 140.906 359.584 139.883 358.569 139.023C357.569 138.164 356.303 137.734 354.772 137.734C353.194 137.734 351.959 138.078 351.069 138.766C350.178 139.453 349.733 140.352 349.733 141.461C349.733 142.508 350.147 143.297 350.975 143.828C351.803 144.359 353.295 144.867 355.452 145.352C357.623 145.836 359.381 146.414 360.725 147.086C362.069 147.758 363.061 148.57 363.702 149.523C364.358 150.461 364.686 151.609 364.686 152.969C364.686 155.234 363.78 157.055 361.967 158.43C360.155 159.789 357.803 160.469 354.913 160.469C352.881 160.469 351.084 160.109 349.522 159.391C347.959 158.672 346.733 157.672 345.842 156.391C344.967 155.094 344.53 153.695 344.53 152.195H348.866C348.944 153.648 349.522 154.805 350.6 155.664C351.694 156.508 353.131 156.93 354.913 156.93C356.553 156.93 357.866 156.602 358.85 155.945C359.85 155.273 360.35 154.383 360.35 153.273ZM372.594 166.797L370.133 165.109C371.602 163.062 372.367 160.953 372.43 158.781V154.867H376.672V158.266C376.672 159.844 376.281 161.422 375.5 163C374.734 164.578 373.766 165.844 372.594 166.797ZM414.519 160C414.269 159.5 414.066 158.609 413.909 157.328C411.894 159.422 409.487 160.469 406.691 160.469C404.191 160.469 402.136 159.766 400.527 158.359C398.933 156.938 398.136 155.141 398.136 152.969C398.136 150.328 399.136 148.281 401.136 146.828C403.152 145.359 405.98 144.625 409.62 144.625H413.839V142.633C413.839 141.117 413.386 139.914 412.48 139.023C411.573 138.117 410.237 137.664 408.472 137.664C406.925 137.664 405.628 138.055 404.581 138.836C403.534 139.617 403.011 140.562 403.011 141.672H398.652C398.652 140.406 399.097 139.188 399.987 138.016C400.894 136.828 402.112 135.891 403.644 135.203C405.191 134.516 406.886 134.172 408.73 134.172C411.652 134.172 413.941 134.906 415.597 136.375C417.253 137.828 418.112 139.836 418.175 142.398V154.07C418.175 156.398 418.472 158.25 419.066 159.625V160H414.519ZM407.323 156.695C408.683 156.695 409.972 156.344 411.191 155.641C412.409 154.938 413.292 154.023 413.839 152.898V147.695H410.441C405.128 147.695 402.472 149.25 402.472 152.359C402.472 153.719 402.925 154.781 403.831 155.547C404.737 156.312 405.902 156.695 407.323 156.695ZM431.473 134.641L431.614 137.828C433.552 135.391 436.083 134.172 439.208 134.172C444.567 134.172 447.27 137.195 447.317 143.242V160H442.981V143.219C442.966 141.391 442.544 140.039 441.716 139.164C440.903 138.289 439.63 137.852 437.895 137.852C436.489 137.852 435.255 138.227 434.192 138.977C433.13 139.727 432.302 140.711 431.708 141.93V160H427.372V134.641H431.473ZM455.202 147.109C455.202 143.219 456.123 140.094 457.967 137.734C459.811 135.359 462.225 134.172 465.209 134.172C468.178 134.172 470.53 135.188 472.264 137.219V124H476.6V160H472.616L472.405 157.281C470.67 159.406 468.256 160.469 465.163 160.469C462.225 160.469 459.827 159.266 457.967 156.859C456.123 154.453 455.202 151.312 455.202 147.438V147.109ZM459.538 147.602C459.538 150.477 460.131 152.727 461.319 154.352C462.506 155.977 464.147 156.789 466.241 156.789C468.991 156.789 470.998 155.555 472.264 153.086V141.438C470.967 139.047 468.975 137.852 466.288 137.852C464.163 137.852 462.506 138.672 461.319 140.312C460.131 141.953 459.538 144.383 459.538 147.602ZM505.939 128.5V134.641H510.673V137.992H505.939V153.719C505.939 154.734 506.15 155.5 506.572 156.016C506.994 156.516 507.712 156.766 508.728 156.766C509.228 156.766 509.916 156.672 510.791 156.484V160C509.65 160.312 508.541 160.469 507.462 160.469C505.525 160.469 504.064 159.883 503.08 158.711C502.095 157.539 501.603 155.875 501.603 153.719V137.992H496.986V134.641H501.603V128.5H505.939ZM528.683 160.469C525.245 160.469 522.448 159.344 520.292 157.094C518.136 154.828 517.058 151.805 517.058 148.023V147.227C517.058 144.711 517.534 142.469 518.487 140.5C519.456 138.516 520.8 136.969 522.519 135.859C524.253 134.734 526.128 134.172 528.144 134.172C531.441 134.172 534.003 135.258 535.831 137.43C537.659 139.602 538.573 142.711 538.573 146.758V148.562H521.394C521.456 151.062 522.183 153.086 523.573 154.633C524.98 156.164 526.761 156.93 528.917 156.93C530.448 156.93 531.745 156.617 532.808 155.992C533.87 155.367 534.8 154.539 535.597 153.508L538.245 155.57C536.12 158.836 532.933 160.469 528.683 160.469ZM528.144 137.734C526.394 137.734 524.925 138.375 523.737 139.656C522.55 140.922 521.816 142.703 521.534 145H534.237V144.672C534.112 142.469 533.519 140.766 532.456 139.562C531.394 138.344 529.956 137.734 528.144 137.734ZM554.52 143.898L560.145 134.641H565.208L556.911 147.18L565.466 160H560.45L554.591 150.508L548.731 160H543.692L552.247 147.18L543.95 134.641H548.966L554.52 143.898ZM578.108 128.5V134.641H582.842V137.992H578.108V153.719C578.108 154.734 578.319 155.5 578.741 156.016C579.162 156.516 579.881 156.766 580.897 156.766C581.397 156.766 582.084 156.672 582.959 156.484V160C581.819 160.312 580.709 160.469 579.631 160.469C577.694 160.469 576.233 159.883 575.248 158.711C574.264 157.539 573.772 155.875 573.772 153.719V137.992H569.155V134.641H573.772V128.5H578.108ZM610.517 128.5V134.641H615.252V137.992H610.517V153.719C610.517 154.734 610.728 155.5 611.15 156.016C611.572 156.516 612.291 156.766 613.306 156.766C613.806 156.766 614.494 156.672 615.369 156.484V160C614.228 160.312 613.119 160.469 612.041 160.469C610.103 160.469 608.642 159.883 607.658 158.711C606.673 157.539 606.181 155.875 606.181 153.719V137.992H601.564V134.641H606.181V128.5H610.517ZM621.12 147.086C621.12 144.602 621.605 142.367 622.573 140.383C623.558 138.398 624.917 136.867 626.652 135.789C628.402 134.711 630.394 134.172 632.628 134.172C636.081 134.172 638.87 135.367 640.995 137.758C643.136 140.148 644.206 143.328 644.206 147.297V147.602C644.206 150.07 643.73 152.289 642.777 154.258C641.839 156.211 640.487 157.734 638.722 158.828C636.972 159.922 634.956 160.469 632.675 160.469C629.237 160.469 626.448 159.273 624.308 156.883C622.183 154.492 621.12 151.328 621.12 147.391V147.086ZM625.48 147.602C625.48 150.414 626.128 152.672 627.425 154.375C628.737 156.078 630.487 156.93 632.675 156.93C634.878 156.93 636.628 156.07 637.925 154.352C639.222 152.617 639.87 150.195 639.87 147.086C639.87 144.305 639.206 142.055 637.878 140.336C636.566 138.602 634.816 137.734 632.628 137.734C630.487 137.734 628.761 138.586 627.448 140.289C626.136 141.992 625.48 144.43 625.48 147.602ZM29.7031 203.602C29.7031 207.461 28.8203 210.57 27.0547 212.93C25.2891 215.289 22.8984 216.469 19.8828 216.469C16.8047 216.469 14.3828 215.492 12.6172 213.539V225.75H8.28125V190.641H12.2422L12.4531 193.453C14.2188 191.266 16.6719 190.172 19.8125 190.172C22.8594 190.172 25.2656 191.32 27.0312 193.617C28.8125 195.914 29.7031 199.109 29.7031 203.203V203.602ZM25.3672 203.109C25.3672 200.25 24.7578 197.992 23.5391 196.336C22.3203 194.68 20.6484 193.852 18.5234 193.852C15.8984 193.852 13.9297 195.016 12.6172 197.344V209.461C13.9141 211.773 15.8984 212.93 18.5703 212.93C20.6484 212.93 22.2969 212.109 23.5156 210.469C24.75 208.812 25.3672 206.359 25.3672 203.109ZM48.1578 216.469C44.7203 216.469 41.9234 215.344 39.7672 213.094C37.6109 210.828 36.5328 207.805 36.5328 204.023V203.227C36.5328 200.711 37.0094 198.469 37.9625 196.5C38.9312 194.516 40.275 192.969 41.9937 191.859C43.7281 190.734 45.6031 190.172 47.6187 190.172C50.9156 190.172 53.4781 191.258 55.3062 193.43C57.1344 195.602 58.0484 198.711 58.0484 202.758V204.562H40.8687C40.9312 207.062 41.6578 209.086 43.0484 210.633C44.4547 212.164 46.2359 212.93 48.3922 212.93C49.9234 212.93 51.2203 212.617 52.2828 211.992C53.3453 211.367 54.275 210.539 55.0719 209.508L57.7203 211.57C55.5953 214.836 52.4078 216.469 48.1578 216.469ZM47.6187 193.734C45.8687 193.734 44.4 194.375 43.2125 195.656C42.025 196.922 41.2906 198.703 41.0094 201H53.7125V200.672C53.5875 198.469 52.9937 196.766 51.9312 195.562C50.8687 194.344 49.4312 193.734 47.6187 193.734ZM71.3703 184.5V190.641H76.1047V193.992H71.3703V209.719C71.3703 210.734 71.5812 211.5 72.0031 212.016C72.425 212.516 73.1437 212.766 74.1594 212.766C74.6594 212.766 75.3469 212.672 76.2219 212.484V216C75.0812 216.312 73.9719 216.469 72.8937 216.469C70.9562 216.469 69.4953 215.883 68.5109 214.711C67.5266 213.539 67.0344 211.875 67.0344 209.719V193.992H62.4172V190.641H67.0344V184.5H71.3703ZM88.3016 216H83.9656V190.641H88.3016V216ZM83.6141 183.914C83.6141 183.211 83.825 182.617 84.2469 182.133C84.6844 181.648 85.325 181.406 86.1687 181.406C87.0125 181.406 87.6531 181.648 88.0906 182.133C88.5281 182.617 88.7469 183.211 88.7469 183.914C88.7469 184.617 88.5281 185.203 88.0906 185.672C87.6531 186.141 87.0125 186.375 86.1687 186.375C85.325 186.375 84.6844 186.141 84.2469 185.672C83.825 185.203 83.6141 184.617 83.6141 183.914ZM103.545 184.5V190.641H108.28V193.992H103.545V209.719C103.545 210.734 103.756 211.5 104.178 212.016C104.6 212.516 105.319 212.766 106.334 212.766C106.834 212.766 107.522 212.672 108.397 212.484V216C107.256 216.312 106.147 216.469 105.069 216.469C103.131 216.469 101.67 215.883 100.686 214.711C99.7016 213.539 99.2094 211.875 99.2094 209.719V193.992H94.5922V190.641H99.2094V184.5H103.545ZM120.477 216H116.141V190.641H120.477V216ZM115.789 183.914C115.789 183.211 116 182.617 116.422 182.133C116.859 181.648 117.5 181.406 118.344 181.406C119.188 181.406 119.828 181.648 120.266 182.133C120.703 182.617 120.922 183.211 120.922 183.914C120.922 184.617 120.703 185.203 120.266 185.672C119.828 186.141 119.188 186.375 118.344 186.375C117.5 186.375 116.859 186.141 116.422 185.672C116 185.203 115.789 184.617 115.789 183.914ZM128.689 203.086C128.689 200.602 129.173 198.367 130.142 196.383C131.127 194.398 132.486 192.867 134.22 191.789C135.97 190.711 137.963 190.172 140.197 190.172C143.65 190.172 146.439 191.367 148.564 193.758C150.705 196.148 151.775 199.328 151.775 203.297V203.602C151.775 206.07 151.298 208.289 150.345 210.258C149.408 212.211 148.056 213.734 146.291 214.828C144.541 215.922 142.525 216.469 140.244 216.469C136.806 216.469 134.017 215.273 131.877 212.883C129.752 210.492 128.689 207.328 128.689 203.391V203.086ZM133.048 203.602C133.048 206.414 133.697 208.672 134.994 210.375C136.306 212.078 138.056 212.93 140.244 212.93C142.447 212.93 144.197 212.07 145.494 210.352C146.791 208.617 147.439 206.195 147.439 203.086C147.439 200.305 146.775 198.055 145.447 196.336C144.134 194.602 142.384 193.734 140.197 193.734C138.056 193.734 136.33 194.586 135.017 196.289C133.705 197.992 133.048 200.43 133.048 203.602ZM163.714 190.641L163.855 193.828C165.792 191.391 168.323 190.172 171.448 190.172C176.808 190.172 179.511 193.195 179.558 199.242V216H175.222V199.219C175.206 197.391 174.784 196.039 173.956 195.164C173.144 194.289 171.87 193.852 170.136 193.852C168.73 193.852 167.495 194.227 166.433 194.977C165.37 195.727 164.542 196.711 163.948 197.93V216H159.613V190.641H163.714ZM203.262 209.273C203.262 208.102 202.817 207.195 201.927 206.555C201.052 205.898 199.512 205.336 197.309 204.867C195.122 204.398 193.38 203.836 192.083 203.18C190.802 202.523 189.848 201.742 189.223 200.836C188.614 199.93 188.309 198.852 188.309 197.602C188.309 195.523 189.184 193.766 190.934 192.328C192.7 190.891 194.95 190.172 197.684 190.172C200.559 190.172 202.887 190.914 204.669 192.398C206.466 193.883 207.364 195.781 207.364 198.094H203.005C203.005 196.906 202.497 195.883 201.481 195.023C200.481 194.164 199.216 193.734 197.684 193.734C196.106 193.734 194.872 194.078 193.981 194.766C193.091 195.453 192.645 196.352 192.645 197.461C192.645 198.508 193.059 199.297 193.887 199.828C194.716 200.359 196.208 200.867 198.364 201.352C200.536 201.836 202.294 202.414 203.637 203.086C204.981 203.758 205.973 204.57 206.614 205.523C207.27 206.461 207.598 207.609 207.598 208.969C207.598 211.234 206.692 213.055 204.88 214.43C203.067 215.789 200.716 216.469 197.825 216.469C195.794 216.469 193.997 216.109 192.434 215.391C190.872 214.672 189.645 213.672 188.755 212.391C187.88 211.094 187.442 209.695 187.442 208.195H191.778C191.856 209.648 192.434 210.805 193.512 211.664C194.606 212.508 196.044 212.93 197.825 212.93C199.466 212.93 200.778 212.602 201.762 211.945C202.762 211.273 203.262 210.383 203.262 209.273ZM245.609 216C245.359 215.5 245.156 214.609 245 213.328C242.984 215.422 240.578 216.469 237.781 216.469C235.281 216.469 233.227 215.766 231.617 214.359C230.023 212.938 229.227 211.141 229.227 208.969C229.227 206.328 230.227 204.281 232.227 202.828C234.242 201.359 237.07 200.625 240.711 200.625H244.93V198.633C244.93 197.117 244.477 195.914 243.57 195.023C242.664 194.117 241.328 193.664 239.562 193.664C238.016 193.664 236.719 194.055 235.672 194.836C234.625 195.617 234.102 196.562 234.102 197.672H229.742C229.742 196.406 230.188 195.188 231.078 194.016C231.984 192.828 233.203 191.891 234.734 191.203C236.281 190.516 237.977 190.172 239.82 190.172C242.742 190.172 245.031 190.906 246.688 192.375C248.344 193.828 249.203 195.836 249.266 198.398V210.07C249.266 212.398 249.562 214.25 250.156 215.625V216H245.609ZM238.414 212.695C239.773 212.695 241.062 212.344 242.281 211.641C243.5 210.938 244.383 210.023 244.93 208.898V203.695H241.531C236.219 203.695 233.562 205.25 233.562 208.359C233.562 209.719 234.016 210.781 234.922 211.547C235.828 212.312 236.992 212.695 238.414 212.695ZM263.173 216H258.837V180H263.173V216ZM277.245 216H272.909V180H277.245V216ZM305.623 216H301.288V190.641H305.623V216ZM300.936 183.914C300.936 183.211 301.147 182.617 301.569 182.133C302.006 181.648 302.647 181.406 303.491 181.406C304.334 181.406 304.975 181.648 305.413 182.133C305.85 182.617 306.069 183.211 306.069 183.914C306.069 184.617 305.85 185.203 305.413 185.672C304.975 186.141 304.334 186.375 303.491 186.375C302.647 186.375 302.006 186.141 301.569 185.672C301.147 185.203 300.936 184.617 300.936 183.914ZM319.086 190.641L319.227 193.828C321.164 191.391 323.695 190.172 326.82 190.172C332.18 190.172 334.883 193.195 334.93 199.242V216H330.594V199.219C330.578 197.391 330.156 196.039 329.328 195.164C328.516 194.289 327.242 193.852 325.508 193.852C324.102 193.852 322.867 194.227 321.805 194.977C320.742 195.727 319.914 196.711 319.32 197.93V216H314.984V190.641H319.086ZM357.027 203.086C357.027 200.602 357.511 198.367 358.48 196.383C359.464 194.398 360.823 192.867 362.558 191.789C364.308 190.711 366.3 190.172 368.534 190.172C371.987 190.172 374.777 191.367 376.902 193.758C379.042 196.148 380.112 199.328 380.112 203.297V203.602C380.112 206.07 379.636 208.289 378.683 210.258C377.745 212.211 376.394 213.734 374.628 214.828C372.878 215.922 370.862 216.469 368.581 216.469C365.144 216.469 362.355 215.273 360.214 212.883C358.089 210.492 357.027 207.328 357.027 203.391V203.086ZM361.386 203.602C361.386 206.414 362.034 208.672 363.331 210.375C364.644 212.078 366.394 212.93 368.581 212.93C370.784 212.93 372.534 212.07 373.831 210.352C375.128 208.617 375.777 206.195 375.777 203.086C375.777 200.305 375.112 198.055 373.784 196.336C372.472 194.602 370.722 193.734 368.534 193.734C366.394 193.734 364.667 194.586 363.355 196.289C362.042 197.992 361.386 200.43 361.386 203.602ZM392.052 190.641L392.192 193.828C394.13 191.391 396.661 190.172 399.786 190.172C405.145 190.172 407.848 193.195 407.895 199.242V216H403.559V199.219C403.544 197.391 403.122 196.039 402.294 195.164C401.481 194.289 400.208 193.852 398.473 193.852C397.067 193.852 395.833 194.227 394.77 194.977C393.708 195.727 392.88 196.711 392.286 197.93V216H387.95V190.641H392.052ZM427.358 216.469C423.92 216.469 421.123 215.344 418.967 213.094C416.811 210.828 415.733 207.805 415.733 204.023V203.227C415.733 200.711 416.209 198.469 417.163 196.5C418.131 194.516 419.475 192.969 421.194 191.859C422.928 190.734 424.803 190.172 426.819 190.172C430.116 190.172 432.678 191.258 434.506 193.43C436.334 195.602 437.248 198.711 437.248 202.758V204.562H420.069C420.131 207.062 420.858 209.086 422.248 210.633C423.655 212.164 425.436 212.93 427.592 212.93C429.123 212.93 430.42 212.617 431.483 211.992C432.545 211.367 433.475 210.539 434.272 209.508L436.92 211.57C434.795 214.836 431.608 216.469 427.358 216.469ZM426.819 193.734C425.069 193.734 423.6 194.375 422.413 195.656C421.225 196.922 420.491 198.703 420.209 201H432.913V200.672C432.788 198.469 432.194 196.766 431.131 195.562C430.069 194.344 428.631 193.734 426.819 193.734ZM480.416 203.602C480.416 207.461 479.533 210.57 477.767 212.93C476.002 215.289 473.611 216.469 470.595 216.469C467.517 216.469 465.095 215.492 463.33 213.539V225.75H458.994V190.641H462.955L463.166 193.453C464.931 191.266 467.384 190.172 470.525 190.172C473.572 190.172 475.978 191.32 477.744 193.617C479.525 195.914 480.416 199.109 480.416 203.203V203.602ZM476.08 203.109C476.08 200.25 475.47 197.992 474.252 196.336C473.033 194.68 471.361 193.852 469.236 193.852C466.611 193.852 464.642 195.016 463.33 197.344V209.461C464.627 211.773 466.611 212.93 469.283 212.93C471.361 212.93 473.009 212.109 474.228 210.469C475.462 208.812 476.08 206.359 476.08 203.109ZM493.058 216H488.722V180H493.058V216ZM518.075 216C517.825 215.5 517.622 214.609 517.466 213.328C515.45 215.422 513.044 216.469 510.247 216.469C507.747 216.469 505.692 215.766 504.083 214.359C502.489 212.938 501.692 211.141 501.692 208.969C501.692 206.328 502.692 204.281 504.692 202.828C506.708 201.359 509.536 200.625 513.177 200.625H517.395V198.633C517.395 197.117 516.942 195.914 516.036 195.023C515.13 194.117 513.794 193.664 512.028 193.664C510.481 193.664 509.184 194.055 508.138 194.836C507.091 195.617 506.567 196.562 506.567 197.672H502.208C502.208 196.406 502.653 195.188 503.544 194.016C504.45 192.828 505.669 191.891 507.2 191.203C508.747 190.516 510.442 190.172 512.286 190.172C515.208 190.172 517.497 190.906 519.153 192.375C520.809 193.828 521.669 195.836 521.731 198.398V210.07C521.731 212.398 522.028 214.25 522.622 215.625V216H518.075ZM510.88 212.695C512.239 212.695 513.528 212.344 514.747 211.641C515.966 210.938 516.848 210.023 517.395 208.898V203.695H513.997C508.684 203.695 506.028 205.25 506.028 208.359C506.028 209.719 506.481 210.781 507.388 211.547C508.294 212.312 509.458 212.695 510.88 212.695ZM541.1 212.93C542.647 212.93 543.998 212.461 545.155 211.523C546.311 210.586 546.952 209.414 547.077 208.008H551.178C551.1 209.461 550.6 210.844 549.678 212.156C548.756 213.469 547.522 214.516 545.975 215.297C544.444 216.078 542.819 216.469 541.1 216.469C537.647 216.469 534.897 215.32 532.85 213.023C530.819 210.711 529.803 207.555 529.803 203.555V202.828C529.803 200.359 530.256 198.164 531.162 196.242C532.069 194.32 533.366 192.828 535.053 191.766C536.756 190.703 538.764 190.172 541.077 190.172C543.92 190.172 546.28 191.023 548.155 192.727C550.045 194.43 551.053 196.641 551.178 199.359H547.077C546.952 197.719 546.327 196.375 545.202 195.328C544.092 194.266 542.717 193.734 541.077 193.734C538.873 193.734 537.162 194.531 535.944 196.125C534.741 197.703 534.139 199.992 534.139 202.992V203.812C534.139 206.734 534.741 208.984 535.944 210.562C537.147 212.141 538.866 212.93 541.1 212.93ZM568.977 216.469C565.539 216.469 562.742 215.344 560.586 213.094C558.43 210.828 557.352 207.805 557.352 204.023V203.227C557.352 200.711 557.828 198.469 558.781 196.5C559.75 194.516 561.094 192.969 562.812 191.859C564.547 190.734 566.422 190.172 568.438 190.172C571.734 190.172 574.297 191.258 576.125 193.43C577.953 195.602 578.867 198.711 578.867 202.758V204.562H561.688C561.75 207.062 562.477 209.086 563.867 210.633C565.273 212.164 567.055 212.93 569.211 212.93C570.742 212.93 572.039 212.617 573.102 211.992C574.164 211.367 575.094 210.539 575.891 209.508L578.539 211.57C576.414 214.836 573.227 216.469 568.977 216.469ZM568.438 193.734C566.688 193.734 565.219 194.375 564.031 195.656C562.844 196.922 562.109 198.703 561.828 201H574.531V200.672C574.406 198.469 573.812 196.766 572.75 195.562C571.688 194.344 570.25 193.734 568.438 193.734ZM586.4 213.727C586.4 212.977 586.619 212.352 587.056 211.852C587.509 211.352 588.181 211.102 589.072 211.102C589.963 211.102 590.634 211.352 591.088 211.852C591.556 212.352 591.791 212.977 591.791 213.727C591.791 214.445 591.556 215.047 591.088 215.531C590.634 216.016 589.963 216.258 589.072 216.258C588.181 216.258 587.509 216.016 587.056 215.531C586.619 215.047 586.4 214.445 586.4 213.727Z" fill="black"/>
<g clip-path="url(#clip0)">
<path d="M286.654 344.573H163.804C163.201 344.572 162.622 344.334 162.196 343.911C161.769 343.488 161.53 342.914 161.529 342.316V312.085C161.53 311.487 161.769 310.913 162.196 310.49C162.622 310.067 163.201 309.829 163.804 309.828H286.654C287.257 309.829 287.836 310.067 288.262 310.49C288.689 310.913 288.929 311.487 288.929 312.085V342.316C288.929 342.914 288.689 343.488 288.262 343.911C287.836 344.334 287.257 344.572 286.654 344.573ZM163.804 310.731C163.442 310.731 163.095 310.874 162.839 311.128C162.583 311.382 162.439 311.726 162.439 312.085V342.316C162.439 342.675 162.583 343.019 162.839 343.273C163.095 343.527 163.442 343.67 163.804 343.67H286.654C287.016 343.67 287.363 343.527 287.619 343.273C287.875 343.019 288.019 342.675 288.019 342.316V312.085C288.019 311.726 287.875 311.382 287.619 311.128C287.363 310.874 287.016 310.731 286.654 310.731L163.804 310.731Z" fill="#3F3D56"/>
<path d="M182.892 335.234C188.011 335.234 192.16 331.118 192.16 326.041C192.16 320.963 188.011 316.847 182.892 316.847C177.774 316.847 173.625 320.963 173.625 326.041C173.625 331.118 177.774 335.234 182.892 335.234Z" fill="#EEECBD" fill-opacity="0.75"/>
<path d="M204.295 319.912C203.885 319.912 203.493 320.073 203.203 320.361C202.913 320.648 202.75 321.038 202.75 321.444C202.75 321.85 202.913 322.24 203.203 322.527C203.493 322.815 203.885 322.976 204.295 322.976H277.108C277.518 322.976 277.911 322.815 278.201 322.527C278.49 322.24 278.653 321.85 278.653 321.444C278.653 321.038 278.49 320.648 278.201 320.361C277.911 320.073 277.518 319.912 277.108 319.912H204.295Z" fill="#E6E6E6"/>
<path d="M204.295 329.105C203.885 329.105 203.493 329.266 203.203 329.554C202.913 329.841 202.75 330.231 202.75 330.637C202.75 331.044 202.913 331.433 203.203 331.721C203.493 332.008 203.885 332.169 204.295 332.169H235.627C235.83 332.17 236.031 332.13 236.219 332.054C236.406 331.977 236.577 331.864 236.721 331.722C236.865 331.579 236.979 331.41 237.056 331.224C237.134 331.038 237.174 330.839 237.174 330.637C237.174 330.436 237.134 330.236 237.056 330.05C236.979 329.864 236.865 329.695 236.721 329.553C236.577 329.41 236.406 329.298 236.219 329.221C236.031 329.144 235.83 329.105 235.627 329.105H204.295Z" fill="#E6E6E6"/>
<path d="M233.32 452.332H178.72C178.117 452.332 177.538 452.094 177.112 451.671C176.685 451.247 176.446 450.674 176.445 450.076V393.665C176.446 393.067 176.685 392.493 177.112 392.07C177.538 391.647 178.117 391.409 178.72 391.408H233.32C233.923 391.409 234.502 391.647 234.928 392.07C235.355 392.493 235.594 393.067 235.595 393.665V450.076C235.594 450.674 235.355 451.247 234.928 451.671C234.502 452.094 233.923 452.332 233.32 452.332ZM178.72 392.311C178.358 392.311 178.011 392.454 177.755 392.708C177.499 392.962 177.355 393.306 177.355 393.665V450.076C177.355 450.435 177.499 450.779 177.755 451.033C178.011 451.286 178.358 451.429 178.72 451.43H233.32C233.682 451.429 234.029 451.286 234.285 451.033C234.541 450.779 234.685 450.435 234.685 450.076V393.665C234.685 393.306 234.541 392.962 234.285 392.708C234.029 392.454 233.682 392.311 233.32 392.311H178.72Z" fill="#3F3D56"/>
<path d="M190.354 403.041C189.944 403.041 189.552 403.202 189.262 403.49C188.972 403.777 188.81 404.167 188.81 404.573C188.81 404.98 188.972 405.369 189.262 405.657C189.552 405.944 189.944 406.105 190.354 406.105H221.686C222.096 406.105 222.488 405.944 222.778 405.657C223.068 405.369 223.23 404.98 223.23 404.573C223.23 404.167 223.068 403.777 222.778 403.49C222.488 403.202 222.096 403.041 221.686 403.041H190.354Z" fill="#E6E6E6"/>
<path d="M190.354 412.068C190.151 412.068 189.95 412.107 189.762 412.184C189.574 412.261 189.404 412.374 189.26 412.516C189.116 412.659 189.002 412.828 188.924 413.014C188.847 413.2 188.807 413.399 188.807 413.601C188.807 413.802 188.847 414.002 188.924 414.188C189.002 414.374 189.116 414.543 189.26 414.685C189.404 414.827 189.574 414.94 189.762 415.017C189.95 415.094 190.151 415.133 190.354 415.133H221.686C222.095 415.133 222.488 414.971 222.778 414.684C223.068 414.397 223.23 414.007 223.23 413.601C223.23 413.194 223.068 412.805 222.778 412.517C222.488 412.23 222.095 412.068 221.686 412.068H190.354Z" fill="#E6E6E6"/>
<path d="M206.02 440.699C204.097 440.699 202.217 440.134 200.619 439.074C199.02 438.014 197.774 436.508 197.038 434.746C196.302 432.983 196.11 431.044 196.485 429.173C196.86 427.303 197.786 425.584 199.145 424.235C200.505 422.886 202.237 421.968 204.123 421.596C206.009 421.224 207.964 421.415 209.74 422.145C211.517 422.875 213.035 424.111 214.104 425.697C215.172 427.283 215.742 429.147 215.742 431.055C215.739 433.612 214.714 436.063 212.891 437.871C211.069 439.68 208.597 440.697 206.02 440.699Z" fill="#EEECBD" fill-opacity="0.75"/>
<path d="M322.764 265H377.365C377.968 265.001 378.546 265.239 378.972 265.662C379.399 266.085 379.639 266.659 379.64 267.257V323.667C379.639 324.266 379.399 324.839 378.972 325.262C378.546 325.686 377.968 325.924 377.365 325.924H322.764C322.161 325.924 321.583 325.686 321.156 325.262C320.73 324.839 320.49 324.266 320.489 323.667V267.257C320.49 266.659 320.73 266.085 321.156 265.662C321.583 265.239 322.161 265.001 322.764 265ZM377.365 325.022C377.726 325.021 378.073 324.878 378.329 324.625C378.585 324.371 378.729 324.026 378.73 323.667V267.257C378.729 266.898 378.585 266.554 378.329 266.3C378.073 266.046 377.726 265.903 377.365 265.903H322.764C322.402 265.903 322.055 266.046 321.799 266.3C321.544 266.554 321.4 266.898 321.399 267.257V323.667C321.4 324.026 321.544 324.371 321.799 324.625C322.055 324.878 322.402 325.021 322.764 325.022H377.365Z" fill="#3F3D56"/>
<path d="M365.73 314.291C366.14 314.291 366.533 314.13 366.823 313.843C367.112 313.555 367.275 313.166 367.275 312.759C367.275 312.353 367.112 311.963 366.823 311.676C366.533 311.388 366.14 311.227 365.73 311.227H334.399C333.989 311.227 333.596 311.388 333.306 311.676C333.017 311.963 332.854 312.353 332.854 312.759C332.854 313.166 333.017 313.555 333.306 313.843C333.596 314.13 333.989 314.291 334.399 314.291H365.73Z" fill="#E6E6E6"/>
<path d="M365.73 305.264C366.14 305.264 366.533 305.103 366.823 304.815C367.112 304.528 367.275 304.138 367.275 303.732C367.275 303.325 367.112 302.936 366.823 302.648C366.533 302.361 366.14 302.2 365.73 302.2H334.399C333.989 302.2 333.596 302.361 333.306 302.648C333.017 302.936 332.854 303.325 332.854 303.732C332.854 304.138 333.017 304.528 333.306 304.815C333.596 305.103 333.989 305.264 334.399 305.264H365.73Z" fill="#E6E6E6"/>
<path d="M350.064 276.633C351.987 276.633 353.867 277.199 355.466 278.258C357.064 279.318 358.311 280.824 359.046 282.587C359.782 284.349 359.975 286.288 359.6 288.159C359.225 290.03 358.299 291.748 356.939 293.097C355.579 294.446 353.847 295.365 351.961 295.737C350.075 296.109 348.12 295.918 346.344 295.188C344.567 294.458 343.049 293.222 341.981 291.636C340.912 290.05 340.342 288.185 340.342 286.277C340.345 283.72 341.37 281.269 343.193 279.461C345.016 277.653 347.487 276.636 350.064 276.633Z" fill="#EEECBD" fill-opacity="0.75"/>
<path d="M162.231 381.705C171.892 374.281 183.181 369.219 195.181 366.928C207.278 364.641 219.751 365.277 231.547 368.782C237.477 370.533 243.174 372.982 248.517 376.076C253.962 379.234 258.881 383.12 263.615 387.236C268.409 391.404 273.047 395.759 278.052 399.683C292.343 411.015 310.084 417.207 328.379 417.246C329.891 417.249 331.401 417.207 332.91 417.122C333.728 417.078 333.734 415.809 332.91 415.854C314.261 416.873 295.846 411.352 280.886 400.259C275.698 396.41 270.961 392.01 266.125 387.746C261.436 383.612 256.622 379.591 251.303 376.269C238.292 368.138 223.155 363.987 207.781 364.334C192.407 364.682 177.477 369.513 164.853 378.224C163.653 379.052 162.48 379.917 161.327 380.808C160.678 381.309 161.589 382.201 162.231 381.705V381.705Z" fill="#3F3D56"/>
<path d="M161.552 387.835C165.221 387.835 168.196 384.884 168.196 381.244C168.196 377.604 165.221 374.653 161.552 374.653C157.882 374.653 154.908 377.604 154.908 381.244C154.908 384.884 157.882 387.835 161.552 387.835Z" fill="#3F3D56"/>
<path d="M408.729 475.349C412.398 475.349 415.373 472.398 415.373 468.757C415.373 465.117 412.398 462.166 408.729 462.166C405.059 462.166 402.085 465.117 402.085 468.757C402.085 472.398 405.059 475.349 408.729 475.349Z" fill="#3F3D56"/>
<path d="M443.536 431.211H335.123C334.52 431.21 333.942 430.972 333.516 430.549C333.089 430.126 332.849 429.552 332.848 428.954V372.995C332.849 372.396 333.089 371.823 333.516 371.4C333.942 370.976 334.52 370.738 335.123 370.738H443.536C444.14 370.738 444.718 370.976 445.144 371.4C445.571 371.823 445.811 372.396 445.811 372.995V428.954C445.811 429.552 445.571 430.126 445.144 430.549C444.718 430.972 444.14 431.21 443.536 431.211ZM335.123 371.64C334.761 371.641 334.415 371.784 334.159 372.038C333.903 372.291 333.759 372.636 333.758 372.995V428.954C333.759 429.313 333.903 429.657 334.159 429.911C334.415 430.165 334.761 430.307 335.123 430.308H443.536C443.898 430.307 444.245 430.165 444.501 429.911C444.757 429.657 444.901 429.313 444.901 428.954V372.995C444.901 372.636 444.757 372.291 444.501 372.038C444.245 371.784 443.898 371.641 443.536 371.64H335.123Z" fill="#3F3D56"/>
<path d="M353.302 399.754C358.42 399.754 362.569 395.638 362.569 390.561C362.569 385.484 358.42 381.368 353.302 381.368C348.184 381.368 344.035 385.484 344.035 390.561C344.035 395.638 348.184 399.754 353.302 399.754Z" fill="#EEECBD" fill-opacity="0.75"/>
<path d="M374.705 384.432C374.501 384.432 374.3 384.471 374.113 384.548C373.925 384.625 373.754 384.738 373.611 384.88C373.467 385.022 373.353 385.191 373.275 385.377C373.197 385.564 373.157 385.763 373.157 385.964C373.157 386.166 373.197 386.365 373.275 386.551C373.353 386.738 373.467 386.907 373.611 387.049C373.754 387.191 373.925 387.304 374.113 387.381C374.3 387.458 374.501 387.497 374.705 387.497H433.081C433.49 387.497 433.883 387.335 434.173 387.048C434.462 386.761 434.625 386.371 434.625 385.964C434.625 385.558 434.462 385.168 434.173 384.881C433.883 384.594 433.49 384.432 433.081 384.432H374.705Z" fill="#E6E6E6"/>
<path d="M374.705 393.626C374.501 393.625 374.3 393.665 374.113 393.741C373.925 393.818 373.754 393.931 373.611 394.073C373.467 394.216 373.353 394.385 373.275 394.571C373.197 394.757 373.157 394.956 373.157 395.158C373.157 395.359 373.197 395.559 373.275 395.745C373.353 395.931 373.467 396.1 373.611 396.242C373.754 396.384 373.925 396.497 374.113 396.574C374.3 396.651 374.501 396.69 374.705 396.69H406.036C406.446 396.69 406.839 396.529 407.129 396.241C407.418 395.954 407.581 395.564 407.581 395.158C407.581 394.751 407.418 394.362 407.129 394.074C406.839 393.787 406.446 393.626 406.036 393.626H374.705Z" fill="#E6E6E6"/>
<path d="M346.193 408.323C345.019 408.323 344.062 409.01 344.062 409.855C344.062 410.7 345.019 411.387 346.193 411.387H432.216C433.391 411.387 434.347 410.7 434.347 409.855C434.347 409.01 433.391 408.323 432.216 408.323H346.193Z" fill="#E6E6E6"/>
<path d="M346.193 417.516C345.019 417.516 344.062 418.204 344.062 419.048C344.062 419.893 345.019 420.581 346.193 420.581H432.216C433.391 420.581 434.347 419.893 434.347 419.048C434.347 418.204 433.391 417.516 432.216 417.516H346.193Z" fill="#E6E6E6"/>
<path d="M326.409 474.894C332.525 472.262 339.353 474.556 345.118 476.982C348.087 478.232 351.025 479.565 354.097 480.552C356.682 481.38 359.329 482.002 362.014 482.413C367.401 483.231 372.879 483.265 378.276 482.512C383.7 481.761 388.986 480.236 393.97 477.984C398.926 475.756 403.507 472.785 407.553 469.175C408.068 468.714 408.572 468.242 409.067 467.76C409.656 467.187 408.751 466.291 408.163 466.863C404.267 470.63 399.795 473.762 394.913 476.142C390.05 478.514 384.863 480.167 379.518 481.048C374.155 481.945 368.686 482.039 363.295 481.326C360.606 480.965 357.95 480.392 355.352 479.613C352.369 478.65 349.442 477.523 346.586 476.235C340.767 473.756 334.302 471.329 327.908 473.039C327.176 473.24 326.459 473.494 325.763 473.798C325.01 474.122 325.661 475.215 326.409 474.894V474.894Z" fill="#3F3D56"/>
<path d="M324.045 490.449H272.826L284.879 469.738C285.095 469.366 285.406 469.058 285.78 468.844C286.155 468.63 286.579 468.517 287.011 468.517C287.443 468.517 287.868 468.63 288.242 468.844C288.616 469.058 288.927 469.366 289.143 469.738L294.292 478.585L303.047 463.541C303.318 463.077 303.707 462.691 304.175 462.422C304.644 462.154 305.175 462.013 305.716 462.013C306.257 462.013 306.789 462.154 307.257 462.422C307.726 462.691 308.115 463.077 308.385 463.541L324.045 490.449Z" fill="#D6B1B1" fill-opacity="0.5"/>
<path d="M324.094 490.444H269.493C268.89 490.443 268.312 490.205 267.886 489.782C267.459 489.359 267.219 488.785 267.219 488.187V457.956C267.219 457.358 267.459 456.784 267.886 456.361C268.312 455.938 268.89 455.7 269.493 455.699H324.094C324.697 455.7 325.275 455.938 325.702 456.361C326.128 456.784 326.368 457.358 326.369 457.956V488.187C326.368 488.785 326.128 489.359 325.702 489.782C325.275 490.205 324.697 490.443 324.094 490.444ZM269.493 456.602C269.132 456.602 268.785 456.745 268.529 456.999C268.273 457.253 268.129 457.597 268.128 457.956V488.187C268.129 488.546 268.273 488.89 268.529 489.144C268.785 489.398 269.132 489.541 269.493 489.541H324.094C324.456 489.541 324.803 489.398 325.059 489.144C325.314 488.89 325.458 488.546 325.459 488.187V457.956C325.458 457.597 325.314 457.253 325.059 456.999C324.803 456.745 324.456 456.602 324.094 456.602H269.493Z" fill="#3F3D56"/>
<path d="M431.185 463.837L421.453 468.74C417.979 470.49 414.627 470.191 413.343 466.542C413.037 465.674 412.925 464.75 413.012 463.834C413.1 462.919 413.386 462.033 413.851 461.237C414.316 460.441 414.948 459.755 415.705 459.224C416.463 458.693 417.326 458.331 418.238 458.162L427.488 456.449L467.102 443.411L491.099 426.531L499.896 440.434L472.168 455.277L431.185 463.837Z" fill="#FFB8B8"/>
<path d="M476.617 626.572L469.17 625.341L469.998 611.388H477.858L476.617 626.572Z" fill="#FFB8B8"/>
<path d="M548.886 612.944L541.68 615.174L536.08 602.349L543.096 598.835L548.886 612.944Z" fill="#FFB8B8"/>
<path d="M544.873 600.718L535.772 604.411L492.336 547.779L478.685 614.26L469.584 612.619C463.746 555.303 458.985 496.842 464.827 469.192L498.541 467.755L513.847 516.18L521.293 549.01L544.873 600.718Z" fill="#2F2E41"/>
<path d="M476.207 637.856C474.845 638.146 473.426 637.996 472.157 637.429L467.733 635.454C464.024 635.266 461.499 635.998 459.434 633.325C458.851 632.561 458.485 631.656 458.374 630.704C458.263 629.752 458.411 628.788 458.802 627.912C459.189 627.033 459.806 626.273 460.588 625.708C461.37 625.143 462.29 624.796 463.252 624.7L469.328 620.902L469.647 623.749C472.423 625.31 475.72 624.636 479.213 623.117L481.12 629.738C481.366 630.591 481.433 631.486 481.316 632.366C481.198 633.246 480.9 634.093 480.44 634.855C479.979 635.616 479.366 636.275 478.637 636.791C477.909 637.308 477.082 637.67 476.207 637.856Z" fill="#2F2E41"/>
<path d="M551.835 624.275C550.642 624.987 549.251 625.303 547.864 625.176L543.034 624.733C539.464 625.749 537.315 627.256 534.487 625.393C533.686 624.858 533.044 624.12 532.627 623.255C532.211 622.391 532.035 621.431 532.118 620.477C532.197 619.521 532.531 618.602 533.086 617.816C533.641 617.031 534.396 616.405 535.275 616.005L539.779 610.456L541.012 613.046C544.149 613.627 547.047 611.928 549.853 609.366L553.824 615.013C554.336 615.742 554.692 616.566 554.869 617.437C555.047 618.307 555.042 619.204 554.856 620.073C554.669 620.941 554.305 621.762 553.785 622.485C553.265 623.208 552.601 623.817 551.835 624.275Z" fill="#2F2E41"/>
<path d="M486.131 409.482C494.356 409.482 501.023 402.867 501.023 394.708C501.023 386.549 494.356 379.934 486.131 379.934C477.906 379.934 471.239 386.549 471.239 394.708C471.239 402.867 477.906 409.482 486.131 409.482Z" fill="#FFB8B8"/>
<path d="M504.333 425.897L484.89 421.793L482.408 405.788L496.059 402.916L504.333 425.897Z" fill="#FFB8B8"/>
<path d="M498.955 469.807H464.206L472.039 450.299C471.469 443.587 474.337 438.65 478.442 434.352L483.649 421.383C492.062 415.889 498.405 416.3 505.16 423.435C513.169 434.683 507.625 451.592 498.955 469.807Z" fill="#BCC4DB" fill-opacity="0.9"/>
<path d="M483.235 511.256L482.247 522.039C481.894 525.888 479.857 528.546 476.059 527.685C475.155 527.48 474.307 527.084 473.571 526.523C472.836 525.963 472.232 525.252 471.8 524.438C471.367 523.624 471.117 522.728 471.067 521.809C471.016 520.891 471.166 519.973 471.507 519.117L474.962 510.435L484.89 470.218L483.235 441.081H499.782L497.714 472.27L483.235 511.256Z" fill="#FFB8B8"/>
<path d="M501.023 441.902H481.994L483.328 429.587C483.416 427.457 484.303 425.437 485.816 423.923C487.328 422.409 489.356 421.51 491.503 421.404C492.64 421.347 493.777 421.515 494.848 421.897C495.92 422.28 496.904 422.869 497.744 423.632C498.584 424.394 499.264 425.314 499.743 426.339C500.223 427.363 500.493 428.472 500.537 429.601L501.023 441.902Z" fill="#BCC4DB" fill-opacity="0.9"/>
<path d="M504.562 379.518C507.654 379.518 510.16 377.031 510.16 373.965C510.16 370.898 507.654 368.411 504.562 368.411C501.471 368.411 498.965 370.898 498.965 373.965C498.965 377.031 501.471 379.518 504.562 379.518Z" fill="#2F2E41"/>
<path d="M498.795 372.605C498.887 371.196 499.516 369.875 500.556 368.911C501.596 367.946 502.966 367.412 504.39 367.415C504.274 367.4 504.16 367.383 504.042 367.375C502.561 367.282 501.103 367.775 499.989 368.748C498.874 369.72 498.195 371.092 498.1 372.561C498.004 374.03 498.501 375.476 499.481 376.582C500.46 377.688 501.842 378.363 503.323 378.458C503.441 378.466 503.557 378.463 503.674 378.463C502.262 378.286 500.971 377.581 500.065 376.493C499.158 375.404 498.704 374.014 498.795 372.605Z" fill="#2F2E41"/>
<path d="M498.763 374.976C493.771 370.868 479.452 376.089 478.528 378.852C471.777 379.764 466.666 383.672 466.666 390.619V390.619C470.679 392.25 475.244 392.049 480.178 390.619C488.044 396.978 488.584 404.972 483.8 414.154L489.685 414.271L496.98 403.694L497.329 414.422L510.819 414.154V398.78C510.863 393.668 509.677 388.619 507.359 384.053C505.257 380.002 501.995 377.636 498.763 374.976Z" fill="#2F2E41"/>
<path d="M486.201 402.14C487.679 402.14 488.878 400.475 488.878 398.422C488.878 396.369 487.679 394.704 486.201 394.704C484.723 394.704 483.524 396.369 483.524 398.422C483.524 400.475 484.723 402.14 486.201 402.14Z" fill="#FFB8B8"/>
<path d="M149.396 403.14C149.396 403.14 151.008 375.472 159.373 381.759C167.738 388.045 155.72 405.705 155.72 405.705L149.396 403.14Z" fill="#FFB9B9"/>
<path d="M118.275 485.209C118.275 485.209 136.856 505.903 126.46 507.325C116.064 508.748 111.974 487.83 111.974 487.83L118.275 485.209Z" fill="#FFB9B9"/>
<path d="M94.0268 387.252C96.359 387.861 98.4579 389.14 100.06 390.928C101.662 392.716 102.696 394.934 103.031 397.303L108.942 439.038L117.228 472.329C117.228 472.329 121.371 476.028 119.714 478.083C118.056 480.138 121.785 488.769 121.785 488.769L111.428 492.057C111.428 492.057 110.185 483.426 108.113 483.015C106.293 482.654 85.9133 428.647 81.001 415.564C80.3237 413.76 79.9404 412.734 79.9404 412.734C79.9404 412.734 80.7691 385.197 94.0268 387.252Z" fill="#575A89"/>
<path d="M95.9184 604.894L102.28 616.078C107.207 626.513 102.829 628.408 90.7494 623.236L87.9958 610.03L95.9184 604.894Z" fill="#FFB9B9"/>
<path d="M99.1284 619.759C99.1284 619.759 102.148 614.881 103.241 615.697C104.333 616.514 108.839 620.052 108.839 620.052L114.707 625.628C114.707 625.628 134.535 627.707 121.936 634.599C109.337 641.491 102.375 635.776 102.375 635.776C102.375 635.776 84.7288 636.687 85.0134 631.803C85.2981 626.919 90.989 619.192 90.989 619.192C90.989 619.192 98.1614 623.963 99.1284 619.759Z" fill="#2F2E41"/>
<path d="M67.6875 478.473L73.6518 550.065C73.6518 550.065 73.8506 592.863 80.2126 601.147C86.5745 609.43 86.7733 613.572 86.7733 613.572L99.8947 606.866C99.8947 606.866 93.1352 595.693 94.5269 593.982C95.3847 592.897 95.9952 591.641 96.3161 590.299L92.7376 546.121L99.4971 469.203L67.6875 478.473Z" fill="#2F2E41"/>
<path d="M83.9897 604.894L78.4231 619.489L65.7986 614.253L72.4589 603.316L83.9897 604.894Z" fill="#FFB9B9"/>
<path d="M74.703 614.573C74.703 614.573 79.4378 611.637 80.0297 612.812C80.6216 613.986 82.989 618.976 82.989 618.976L85.6523 626.316C85.6523 626.316 101.928 636.591 88.0197 637.178C74.1112 637.765 70.56 629.838 70.56 629.838C70.56 629.838 54.8759 623.086 57.2434 618.976C59.6108 614.866 67.8967 610.604 67.8967 610.604C67.8967 610.604 72.0397 617.802 74.703 614.573Z" fill="#2F2E41"/>
<path d="M118.185 478.67L121.366 544.543C121.366 544.543 92.34 604.105 89.159 605.683C88.2111 606.168 87.3709 606.837 86.688 607.65C86.0051 608.463 85.4933 609.404 85.1828 610.416L67.6875 606.077L75.6399 593.455L93.1352 551.249C93.1352 551.249 95.9185 550.065 96.7138 546.121C97.5091 542.176 99.0995 542.176 95.1233 541.388C91.1471 540.599 91.1471 536.654 91.1471 536.654L78.0256 476.698L118.185 478.67Z" fill="#2F2E41"/>
<path d="M119.57 362.074C120.977 353.472 115.089 345.368 106.419 343.972C97.748 342.576 89.5785 348.417 88.1714 357.019C86.7644 365.62 92.6527 373.725 101.323 375.121C109.994 376.516 118.163 370.675 119.57 362.074Z" fill="#FFB9B9"/>
<path d="M89.7554 360.532C89.7554 360.532 88.5625 380.649 86.972 382.622C85.3816 384.594 103.672 384.199 103.672 384.199C103.672 384.199 102.479 367.238 103.672 365.66C104.865 364.082 89.7554 360.532 89.7554 360.532Z" fill="#FFB9B9"/>
<path d="M119.377 483.01C119.377 483.01 74.4453 479.066 66.0974 483.01C66.0974 483.01 69.1705 471.7 68.3765 470.518C67.799 469.654 69.3922 437.439 68.8921 418.856C68.6085 408.37 66.1696 398.13 73.2594 390.344C75.6725 387.7 78.364 385.48 81.2051 384.396C81.2051 384.396 80.4111 376.902 84.3865 376.508C84.3865 376.508 99.4993 374.927 105.063 379.664C106.842 381.168 107.961 385.751 108.079 389.7C105.326 403.132 106.3 418.038 108.827 433.5C108.982 434.483 109.152 435.47 109.322 436.457C112.003 451.792 116.056 467.603 119.377 483.01Z" fill="#646536" fill-opacity="0.95"/>
<path d="M95.562 364.195C96.9071 364.116 98.2204 364.567 99.5562 364.743C104.335 365.372 109.307 361.932 110.362 357.266C110.446 356.644 110.633 356.041 110.914 355.479C111.65 354.288 113.325 354.061 114.706 354.335C116.087 354.609 117.396 355.25 118.802 355.323C120.973 355.436 123.058 354.11 124.215 352.284C125.308 350.4 125.773 348.221 125.543 346.059L124.502 347.143C124.079 346.256 123.916 345.268 124.031 344.293C123.479 344.147 122.899 344.144 122.346 344.285C121.793 344.425 121.286 344.704 120.873 345.094C119.955 345.191 120.648 343.406 119.966 342.788C119.634 342.586 119.239 342.513 118.856 342.582C116.903 342.601 115.324 341.12 113.785 339.927C111.119 337.865 108.002 336.454 104.685 335.809C102.48 335.382 100.135 335.314 98.0445 336.128C96.3566 336.88 94.8332 337.952 93.5602 339.284C90.2866 342.407 87.3878 346.076 86.0259 350.373C84.9188 353.894 84.8874 357.661 85.9358 361.199C86.4845 363.036 88.1384 369.328 90.5595 369.475C93.6018 369.659 91.7753 364.42 95.562 364.195Z" fill="#2F2E41"/>
<path d="M102.145 389.188L107.844 389.794C107.844 389.794 113.437 400.559 113.031 402.805C112.625 405.051 111.74 403.687 114.258 407.28C116.775 410.872 123.919 420.159 124.804 421.522C125.688 422.885 149.806 404.631 148.306 399.162C148.306 399.162 155.923 404.583 159.186 405.304C159.186 405.304 134.332 437.641 130.868 441.779C127.405 445.917 124.617 445.067 119.857 442.614C115.097 440.16 91.0171 415.686 91.0171 415.686L102.145 389.188Z" fill="#646536" fill-opacity="0.95"/>
<path opacity="0.1" d="M109.322 436.457L89.5171 416.81L94.5289 415.188L108.827 433.5C108.982 434.483 109.152 435.47 109.322 436.457Z" fill="black"/>
</g>
<rect x="286" y="203" width="300" height="26" fill="#88A4A6" fill-opacity="0.5"/>
<path d="M13.5312 12.5859C13.3203 14.3906 12.6523 15.7852 11.5273 16.7695C10.4102 17.7461 8.92188 18.2344 7.0625 18.2344C5.04688 18.2344 3.42969 17.5117 2.21094 16.0664C1 14.6211 0.394531 12.6875 0.394531 10.2656V8.625C0.394531 7.03906 0.675781 5.64453 1.23828 4.44141C1.80859 3.23828 2.61328 2.31641 3.65234 1.67578C4.69141 1.02734 5.89453 0.703125 7.26172 0.703125C9.07422 0.703125 10.5273 1.21094 11.6211 2.22656C12.7148 3.23438 13.3516 4.63281 13.5312 6.42188H11.2695C11.0742 5.0625 10.6484 4.07812 9.99219 3.46875C9.34375 2.85938 8.43359 2.55469 7.26172 2.55469C5.82422 2.55469 4.69531 3.08594 3.875 4.14844C3.0625 5.21094 2.65625 6.72266 2.65625 8.68359V10.3359C2.65625 12.1875 3.04297 13.6602 3.81641 14.7539C4.58984 15.8477 5.67188 16.3945 7.0625 16.3945C8.3125 16.3945 9.26953 16.1133 9.93359 15.5508C10.6055 14.9805 11.0508 13.9922 11.2695 12.5859H13.5312ZM19.6414 6.85547C20.6023 5.67578 21.8523 5.08594 23.3914 5.08594C26.0711 5.08594 27.4227 6.59766 27.4461 9.62109V18H25.2781V9.60938C25.2703 8.69531 25.0594 8.01953 24.6453 7.58203C24.2391 7.14453 23.6023 6.92578 22.7352 6.92578C22.032 6.92578 21.4148 7.11328 20.8836 7.48828C20.3523 7.86328 19.9383 8.35547 19.6414 8.96484V18H17.4734V0H19.6414V6.85547ZM39.7203 18C39.5953 17.75 39.4937 17.3047 39.4156 16.6641C38.4078 17.7109 37.2047 18.2344 35.8062 18.2344C34.5562 18.2344 33.5289 17.8828 32.7242 17.1797C31.9273 16.4688 31.5289 15.5703 31.5289 14.4844C31.5289 13.1641 32.0289 12.1406 33.0289 11.4141C34.0367 10.6797 35.4508 10.3125 37.2711 10.3125H39.3805V9.31641C39.3805 8.55859 39.1539 7.95703 38.7008 7.51172C38.2477 7.05859 37.5797 6.83203 36.6969 6.83203C35.9234 6.83203 35.275 7.02734 34.7516 7.41797C34.2281 7.80859 33.9664 8.28125 33.9664 8.83594H31.7867C31.7867 8.20312 32.0094 7.59375 32.4547 7.00781C32.9078 6.41406 33.5172 5.94531 34.2828 5.60156C35.0562 5.25781 35.9039 5.08594 36.8258 5.08594C38.2867 5.08594 39.4312 5.45312 40.2594 6.1875C41.0875 6.91406 41.5172 7.91797 41.5484 9.19922V15.0352C41.5484 16.1992 41.6969 17.125 41.9937 17.8125V18H39.7203ZM36.1227 16.3477C36.8023 16.3477 37.4469 16.1719 38.0562 15.8203C38.6656 15.4688 39.107 15.0117 39.3805 14.4492V11.8477H37.6812C35.025 11.8477 33.6969 12.625 33.6969 14.1797C33.6969 14.8594 33.9234 15.3906 34.3766 15.7734C34.8297 16.1562 35.4117 16.3477 36.1227 16.3477ZM48.1977 5.32031L48.268 6.91406C49.2367 5.69531 50.5023 5.08594 52.0648 5.08594C54.7445 5.08594 56.0961 6.59766 56.1195 9.62109V18H53.9516V9.60938C53.9437 8.69531 53.7328 8.01953 53.3187 7.58203C52.9125 7.14453 52.2758 6.92578 51.4086 6.92578C50.7055 6.92578 50.0883 7.11328 49.557 7.48828C49.0258 7.86328 48.6117 8.35547 48.3148 8.96484V18H46.1469V5.32031H48.1977ZM60.0734 11.5547C60.0734 9.57812 60.5305 8.00781 61.4445 6.84375C62.3586 5.67188 63.5695 5.08594 65.0773 5.08594C66.6242 5.08594 67.8312 5.63281 68.6984 6.72656L68.8039 5.32031H70.7844V17.6953C70.7844 19.3359 70.2961 20.6289 69.3195 21.5742C68.3508 22.5195 67.0461 22.9922 65.4055 22.9922C64.4914 22.9922 63.5969 22.7969 62.7219 22.4062C61.8469 22.0156 61.1789 21.4805 60.718 20.8008L61.843 19.5C62.7727 20.6484 63.9094 21.2227 65.2531 21.2227C66.3078 21.2227 67.1281 20.9258 67.7141 20.332C68.3078 19.7383 68.6047 18.9023 68.6047 17.8242V16.7344C67.7375 17.7344 66.5539 18.2344 65.0539 18.2344C63.5695 18.2344 62.3664 17.6367 61.4445 16.4414C60.5305 15.2461 60.0734 13.6172 60.0734 11.5547ZM62.2531 11.8008C62.2531 13.2305 62.5461 14.3555 63.132 15.1758C63.718 15.9883 64.5383 16.3945 65.593 16.3945C66.9602 16.3945 67.9641 15.7734 68.6047 14.5312V8.74219C67.9406 7.53125 66.9445 6.92578 65.6164 6.92578C64.5617 6.92578 63.7375 7.33594 63.1437 8.15625C62.55 8.97656 62.2531 10.1914 62.2531 11.8008ZM80.5273 18.2344C78.8086 18.2344 77.4102 17.6719 76.332 16.5469C75.2539 15.4141 74.7148 13.9023 74.7148 12.0117V11.6133C74.7148 10.3555 74.9531 9.23438 75.4297 8.25C75.9141 7.25781 76.5859 6.48438 77.4453 5.92969C78.3125 5.36719 79.25 5.08594 80.2578 5.08594C81.9062 5.08594 83.1875 5.62891 84.1016 6.71484C85.0156 7.80078 85.4727 9.35547 85.4727 11.3789V12.2812H76.8828C76.9141 13.5312 77.2773 14.543 77.9727 15.3164C78.6758 16.082 79.5664 16.4648 80.6445 16.4648C81.4102 16.4648 82.0586 16.3086 82.5898 15.9961C83.1211 15.6836 83.5859 15.2695 83.9844 14.7539L85.3086 15.7852C84.2461 17.418 82.6523 18.2344 80.5273 18.2344ZM80.2578 6.86719C79.3828 6.86719 78.6484 7.1875 78.0547 7.82812C77.4609 8.46094 77.0938 9.35156 76.9531 10.5H83.3047V10.3359C83.2422 9.23438 82.9453 8.38281 82.4141 7.78125C81.8828 7.17188 81.1641 6.86719 80.2578 6.86719ZM102.645 18H100.384V10.1133H91.782V18H89.532V0.9375H91.782V8.27344H100.384V0.9375H102.645V18ZM115.33 16.7461C114.486 17.7383 113.248 18.2344 111.615 18.2344C110.263 18.2344 109.232 17.8438 108.521 17.0625C107.818 16.2734 107.463 15.1094 107.455 13.5703V5.32031H109.623V13.5117C109.623 15.4336 110.404 16.3945 111.966 16.3945C113.623 16.3945 114.724 15.7773 115.271 14.543V5.32031H117.439V18H115.377L115.33 16.7461ZM132.678 11.8008C132.678 13.7383 132.233 15.2969 131.342 16.4766C130.452 17.6484 129.256 18.2344 127.756 18.2344C126.155 18.2344 124.916 17.668 124.041 16.5352L123.936 18H121.944V0H124.112V6.71484C124.987 5.62891 126.194 5.08594 127.733 5.08594C129.272 5.08594 130.479 5.66797 131.354 6.83203C132.237 7.99609 132.678 9.58984 132.678 11.6133V11.8008ZM130.51 11.5547C130.51 10.0781 130.225 8.9375 129.655 8.13281C129.084 7.32812 128.264 6.92578 127.194 6.92578C125.764 6.92578 124.737 7.58984 124.112 8.91797V14.4023C124.776 15.7305 125.811 16.3945 127.217 16.3945C128.256 16.3945 129.065 15.9922 129.643 15.1875C130.221 14.3828 130.51 13.1719 130.51 11.5547Z" fill="black"/>
<defs>
<clipPath id="clip0">
<rect width="498" height="373" fill="white" transform="translate(57 265)"/>
</clipPath>
</defs>
</svg>
